<?xml version="1.0" standalone="no"?><!DOCTYPE svg PUBLIC "-//W3C//DTD SVG 1.1//EN" "http://www.w3.org/Graphics/SVG/1.1/DTD/svg11.dtd"><svg t="1642141911305" class="icon" viewBox="0 0 1024 1024" version="1.1" xmlns="http://www.w3.org/2000/svg" p-id="14641" xmlns:xlink="http://www.w3.org/1999/xlink" width="200" height="200"><defs><style type="text/css"></style></defs><path d="M512 208.79687c140.095872 0 268.174563 44.31917 268.174563 44.31917 5.369357 1.745501 9.501126 7.73212 9.228263 13.368208l-16.00792 330.944128c-0.272862 5.63711-4.257469 12.81022-8.89715 16.01814l-244.094212 168.804663c-4.640703 3.209964-12.166387 3.208942-16.80709 0l-244.094212-168.804663c-4.640703-3.209964-8.624287-10.382052-8.89715-16.01814L234.597174 266.485269c-0.272862-5.63711 3.845621-11.647234 9.228263-13.368208C243.825437 253.11604 371.903106 208.79687 512 208.79687z" p-id="14642" fill="#4c4c4c"></path><path d="M937.306443 161.46804c5.269206 2.021429 9.091321 8.217549 8.538443 13.822978l-48.789206 494.475497c-1.1078 11.232319-9.530762 25.536639-18.821365 31.956567L535.811577 938.316136c-13.150531 9.086212-34.373493 9.154683-47.623154 0l-342.422739-236.593054c-9.286515-6.416862-17.713565-20.730379-18.821365-31.956567l-48.789206-494.475497c-0.5539-5.613605 3.26004-11.824032 8.538443-13.822978 0 0 205.520479-82.624128 425.306443-82.624128S937.306443 161.46804 937.306443 161.46804zM236.774962 197.258986c-32.326515 6.983026-62.037844 14.453525-88.379784 21.888255-9.099497 2.568176-17.086084 4.934004-23.865741 7.031058-3.862994 1.194667-6.338172 1.99077-7.333557 2.322906 29.47117-9.097453 48.824974-37.853253 46.333445-70.056112l38.860902 502.325142c-1.38475-17.894451-9.2579-31.624431-24.191745-41.943122l359.238004 248.211673c-16.451449-11.367218-34.447074-11.348822-50.872974 0l362.000351-246.030818c-15.018667 10.376942-25.567297 21.830004-26.954092 39.762267l38.860902-502.325142c-2.470068 31.92693 16.836727 60.789014 47.908279 70.563002-2.394443-0.784862-4.872687-1.581988-8.739768-2.778699-6.785788-2.099098-14.779529-4.46697-23.887202-7.03719-26.363401-7.440862-56.096192-14.917493-88.442124-21.906651C695.236727 177.390116 601.340423 165.479218 512 165.479218 422.656511 165.479218 328.79291 177.380918 236.774962 197.258986z" p-id="14643" fill="#4c4c4c"></path></svg>
