<svg xmlns="http://www.w3.org/2000/svg" width="19.297" height="19.297" viewBox="0 0 19.297 19.297"><path d="M9.649,0A9.649,9.649,0,1,0,19.3,9.649,9.648,9.648,0,0,0,9.649,0Zm4.472,9.061a2.164,2.164,0,0,1-.14.358h0l-.008.013C13.57,10.3,12.513,12,12.513,12l-.006-.011-.309.537h1.489l-2.844,3.786.646-2.573H10.318l.407-1.7c-.33.08-.718.189-1.18.338,0,0-.624.365-1.8-.7,0,0-.791-.7-.331-.87a13.961,13.961,0,0,1,1.54-.249c.8-.107,1.291-.166,1.291-.166s-2.464.038-3.049-.055S5.872,9.26,5.714,8.4c0,0-.244-.471.526-.249s3.958.868,3.958.868a36.56,36.56,0,0,1-4.421-1.58A4.869,4.869,0,0,1,5.033,4.9a.186.186,0,0,1,.247-.154s3.064,1.4,5.16,2.167,3.916,1.157,3.681,2.148Z" fill="#3e3d39"/></svg>