<svg xmlns="http://www.w3.org/2000/svg" xmlns:xlink="http://www.w3.org/1999/xlink" width="125.51" height="129.5" viewBox="0 0 125.51 129.5"><defs><linearGradient id="a" y1="0.501" x2="1.42" y2="0.501" gradientUnits="objectBoundingBox"><stop offset="0" stop-color="#4c4c4c" stop-opacity="0"/><stop offset="1" stop-color="#4c4c4c"/></linearGradient></defs><g transform="translate(-9.49 -2.69)"><path d="M90.19,13.06,72.24,2.69,54.28,13.06,72.24,23.42Z" fill="#4c4c4c"/><path d="M62.45,80.72l2.56,47.3,7.23,4.17,7.22-4.17,2.56-47.3-9.78-5.66Z" fill="#4c4c4c"/><path d="M103.63,41.62,135,23.52l-13.14-7.59a10,10,0,0,0-5-1.39,9.44,9.44,0,0,0-4.82,1.3L85.51,31.16Z" fill="#4c4c4c"/><path d="M103.6,57,135,75.07l-13.14,7.59a10,10,0,0,1-5,1.39,9.44,9.44,0,0,1-4.82-1.3L85.47,67.42Z" fill="#4c4c4c"/><path d="M54.12,49.28,9.49,75l13.14,7.59a10,10,0,0,0,5,1.39,9.44,9.44,0,0,0,4.82-1.3l39.8-23Z" fill="#4c4c4c"/><path d="M72.24,59.74,9.49,23.52l13.14-7.59a10,10,0,0,1,5-1.39,9.44,9.44,0,0,1,4.82,1.3L90.36,49.28Z" fill="#4c4c4c"/><path d="M54.12,49.28,9.49,75l13.14,7.59a10,10,0,0,0,5,1.39,9.44,9.44,0,0,0,4.82-1.3l28.8-16.6a7.23,7.23,0,0,0,.29-12.52C57.45,51.26,54.12,49.28,54.12,49.28Z" fill="url(#a)"/></g></svg>