<svg xmlns="http://www.w3.org/2000/svg" width="22.648" height="18.409" viewBox="0 0 22.648 18.409"><path d="M0,137.168a12.4,12.4,0,0,0,.288,2.785,8.3,8.3,0,0,0,.8,2.165,6.091,6.091,0,0,0,1.3,1.617,7.432,7.432,0,0,0,1.706,1.141,10.22,10.22,0,0,0,2.1.72,17.389,17.389,0,0,0,2.409.388q1.229.11,2.7.11t2.714-.11a17.546,17.546,0,0,0,2.414-.388,10.332,10.332,0,0,0,2.11-.72,7.493,7.493,0,0,0,1.716-1.141,6.135,6.135,0,0,0,1.307-1.617,8.172,8.172,0,0,0,.8-2.165,12.4,12.4,0,0,0,.288-2.785,6.8,6.8,0,0,0-1.838-4.751,5.7,5.7,0,0,0,.183-.6,8.3,8.3,0,0,0,.155-.963,5.443,5.443,0,0,0-.055-1.445,7.586,7.586,0,0,0-.471-1.672l-.166-.033a2.141,2.141,0,0,0-.582.016,6.574,6.574,0,0,0-.941.2,8.1,8.1,0,0,0-1.384.576,15.775,15.775,0,0,0-1.788,1.069,17.516,17.516,0,0,0-4.441-.443,17.456,17.456,0,0,0-4.43.443,15.21,15.21,0,0,0-1.8-1.069,8.987,8.987,0,0,0-1.367-.576,5.272,5.272,0,0,0-.953-.194,3.16,3.16,0,0,0-.559-.028,1.085,1.085,0,0,0-.183.039,7.534,7.534,0,0,0-.471,1.672A5.476,5.476,0,0,0,1.5,130.85a8.3,8.3,0,0,0,.155.963,5.535,5.535,0,0,0,.183.6A6.793,6.793,0,0,0,0,137.168Zm2.78,2.779a3.921,3.921,0,0,1,1.451-2.924,2.914,2.914,0,0,1,1.007-.6,4.395,4.395,0,0,1,1.3-.232q.725-.028,1.39.011t1.639.1q.975.067,1.683.067t1.684-.067q.975-.066,1.639-.1t1.389-.011a4.386,4.386,0,0,1,1.3.232,2.906,2.906,0,0,1,1.008.6,3.874,3.874,0,0,1,1.451,2.924,5.474,5.474,0,0,1-.239,1.689,4.243,4.243,0,0,1-.609,1.235,3.025,3.025,0,0,1-1.03.847,7.238,7.238,0,0,1-1.285.537,9.093,9.093,0,0,1-1.606.293q-.98.105-1.75.127t-1.955.023q-1.185,0-1.955-.023t-1.75-.127a9.118,9.118,0,0,1-1.606-.293,7.254,7.254,0,0,1-1.285-.537,3.012,3.012,0,0,1-1.03-.847,4.226,4.226,0,0,1-.609-1.235A5.5,5.5,0,0,1,2.78,139.947Zm11.375-.223c0,1.173.634,2.123,1.416,2.123s1.416-.951,1.416-2.123-.634-2.123-1.416-2.123S14.155,138.551,14.155,139.724Zm-8.493,0c0,1.173.634,2.123,1.416,2.123s1.416-.951,1.416-2.123S7.859,137.6,7.078,137.6,5.662,138.551,5.662,139.724Z" transform="translate(0 -127.685)" fill="#3e3d39"/></svg>