<svg xmlns="http://www.w3.org/2000/svg" width="774.437" height="360.223" viewBox="0 0 774.437 360.223"><g transform="translate(11.967 -30.791)" opacity="0.3"><path d="M26.114,281.072a55.246,55.246,0,0,1-11.374-1.12c-12.04-2.537-20.952-9.311-26.492-20.135l.668-.342c5.432,10.613,14.172,17.255,25.978,19.743a57.822,57.822,0,0,0,15.61.959A84.866,84.866,0,0,0,45,277.9a96.078,96.078,0,0,0,18.423-6.585A109.759,109.759,0,0,0,81.08,260.75,123.662,123.662,0,0,0,97.4,246.4a137.151,137.151,0,0,0,14.433-17.951c2.3-3.41,4.644-6.891,6.907-10.258,9.593-14.271,19.514-29.027,29.55-42.653,5.4-7.339,10.408-13.768,15.3-19.656,5.488-6.612,10.69-12.377,15.9-17.622a174.21,174.21,0,0,1,16.707-14.9,119.237,119.237,0,0,1,17.71-11.479,89.563,89.563,0,0,1,18.909-7.362,79.426,79.426,0,0,1,20.293-2.54,54.533,54.533,0,0,1,12.014,1.487,80.058,80.058,0,0,1,12.31,4.015,142.675,142.675,0,0,1,24.8,13.661c16.4,10.986,32.408,25.058,45.267,36.358,9.96,8.755,18.281,19.289,27.09,30.441,7.118,9.01,14.478,18.328,23.438,27.73a197.916,197.916,0,0,0,32.613,27.72,15.187,15.187,0,0,0,5.235,2.349,11.565,11.565,0,0,0,4.977-.008,17.688,17.688,0,0,0,7.265-3.786,46.448,46.448,0,0,0,7.077-7.429c4.679-5.931,9.185-13.393,13.956-21.292,8.572-14.194,17.437-28.871,27.814-34.98a33.156,33.156,0,0,1,9.649-3.781,45.991,45.991,0,0,1,10.246-1.054h.016c6.982,0,14.342,1.222,21.461,2.4,7.7,1.277,15.672,2.6,23.09,2.348a39.928,39.928,0,0,0,10.742-1.716,30.762,30.762,0,0,0,9.853-5.159c13.62-10.607,27.7-21.575,42.3-30.74a184.972,184.972,0,0,1,22.035-12,119.082,119.082,0,0,1,22.951-7.872,87.545,87.545,0,0,1,48.218,2.546c15.578,5.292,30.52,14.891,44.413,28.53l-.525.535c-13.811-13.559-28.658-23.1-44.128-28.355a86.806,86.806,0,0,0-47.811-2.525,118.343,118.343,0,0,0-22.808,7.824,184.226,184.226,0,0,0-21.946,11.956c-14.567,9.145-28.636,20.1-42.241,30.7a31.5,31.5,0,0,1-10.089,5.283,40.666,40.666,0,0,1-10.942,1.75c-7.492.252-15.5-1.075-23.238-2.358-7.088-1.175-14.418-2.39-21.338-2.392h-.016a45.254,45.254,0,0,0-10.081,1.035,32.415,32.415,0,0,0-9.434,3.7c-10.214,6.012-19.029,20.607-27.553,34.721-4.783,7.92-9.3,15.4-14.009,21.369a47.173,47.173,0,0,1-7.194,7.548,18.411,18.411,0,0,1-7.576,3.936,12.311,12.311,0,0,1-5.3.008,15.927,15.927,0,0,1-5.5-2.461A198.658,198.658,0,0,1,397.475,216.2c-8.983-9.428-16.354-18.759-23.483-27.783-8.788-11.125-17.089-21.632-27-30.342-12.843-11.29-28.827-25.341-45.193-36.3a141.949,141.949,0,0,0-24.666-13.591,79.308,79.308,0,0,0-12.194-3.977,53.782,53.782,0,0,0-11.848-1.468,78.69,78.69,0,0,0-20.1,2.516,88.813,88.813,0,0,0-18.75,7.3,118.5,118.5,0,0,0-17.6,11.407,173.464,173.464,0,0,0-16.634,14.833c-5.2,5.229-10.383,10.977-15.857,17.572-4.878,5.876-9.872,12.295-15.268,19.622-10.027,13.613-19.942,28.363-29.531,42.627-2.263,3.367-4.6,6.848-6.908,10.259a137.9,137.9,0,0,1-14.512,18.05,124.409,124.409,0,0,1-16.422,14.441A110.519,110.519,0,0,1,63.735,272a96.836,96.836,0,0,1-18.567,6.636,85.638,85.638,0,0,1-14.628,2.3Q28.294,281.072,26.114,281.072Z" fill="#84d4ff"/><path d="M26.637,286.918a56.273,56.273,0,0,1-11.381-1.1c-12.094-2.5-21.186-9.176-27.022-19.839l.658-.36c5.726,10.462,14.647,17.011,26.516,19.465a58.885,58.885,0,0,0,15.808.932,85.029,85.029,0,0,0,14.833-2.391,98.2,98.2,0,0,0,18.514-6.674A114.058,114.058,0,0,0,82.421,266.3,130.729,130.729,0,0,0,99.1,251.85a147.211,147.211,0,0,0,14.979-18.05c6.3-8.962,12.51-18.254,18.512-27.239,7.417-11.1,15.085-22.585,22.76-33.153a286.025,286.025,0,0,1,23.794-29.165,184.1,184.1,0,0,1,17.339-16.173,124.871,124.871,0,0,1,18.5-12.568,89.985,89.985,0,0,1,19.724-8.05,75.314,75.314,0,0,1,21.013-2.615,53.518,53.518,0,0,1,11.87,1.638,77.412,77.412,0,0,1,12.072,4.162,136.154,136.154,0,0,1,24.125,13.983C319.2,135.506,333.852,149.054,347.537,162c9.181,8.715,16.921,18.9,25.114,29.675,7.105,9.347,14.452,19.011,23.4,28.632a182.913,182.913,0,0,0,32.688,27.978,16.066,16.066,0,0,0,5.316,2.36,12.707,12.707,0,0,0,5.116.1c3.2-.587,6.457-2.354,9.967-5.4,6.6-5.73,12.955-14.992,19.68-24.8,8.984-13.1,18.273-26.644,28.911-32.576,6.477-3.612,14.025-5.2,23.754-4.994,5.361.12,10.876.727,16.209,1.314,7.756.853,15.776,1.736,23.216,1.08a41.465,41.465,0,0,0,10.773-2.3,33.263,33.263,0,0,0,9.9-5.687c7.693-6.385,15.9-13.135,24.25-19.294A256.924,256.924,0,0,1,636.4,138.243a129.711,129.711,0,0,1,32.341-12.7,87.739,87.739,0,0,1,48.377,2.284c15.757,5.275,30.85,14.973,44.86,28.823l-.527.533c-13.928-13.769-28.924-23.406-44.571-28.645a87,87,0,0,0-47.969-2.265A128.973,128.973,0,0,0,636.754,138.9a256.214,256.214,0,0,0-30.489,19.779c-8.331,6.147-16.532,12.889-24.217,19.268a34.007,34.007,0,0,1-10.116,5.814,42.207,42.207,0,0,1-10.966,2.344c-7.513.662-15.571-.224-23.363-1.082-5.317-.585-10.815-1.19-16.144-1.31-9.589-.2-17.016,1.355-23.372,4.9-10.484,5.846-19.723,19.317-28.657,32.345C462.677,230.8,456.3,240.1,449.623,245.9c-3.614,3.136-6.991,4.959-10.323,5.571a13.452,13.452,0,0,1-5.416-.1,16.812,16.812,0,0,1-5.567-2.467,183.654,183.654,0,0,1-32.822-28.091c-8.971-9.647-16.33-19.327-23.446-28.688-8.175-10.754-15.9-20.911-25.033-29.585-13.664-12.924-28.292-26.452-43.665-37.309a137.337,137.337,0,0,0-23.991-13.908A76.647,76.647,0,0,0,267.4,107.2a52.773,52.773,0,0,0-11.7-1.617,74.566,74.566,0,0,0-20.8,2.59,89.235,89.235,0,0,0-19.558,7.984,124.119,124.119,0,0,0-18.383,12.492,183.371,183.371,0,0,0-17.268,16.107,285.324,285.324,0,0,0-23.731,29.089c-7.666,10.556-15.331,22.031-22.743,33.129-6,8.989-12.213,18.284-18.522,27.254a147.956,147.956,0,0,1-15.056,18.147A131.465,131.465,0,0,1,82.861,266.9a114.8,114.8,0,0,1-17.976,10.722,98.953,98.953,0,0,1-18.656,6.724,85.774,85.774,0,0,1-14.964,2.411Q28.911,286.918,26.637,286.918Z" fill="#84d4ff"/><path d="M27.162,292.765a57.338,57.338,0,0,1-11.388-1.087c-12.147-2.465-21.417-9.041-27.553-19.545l.648-.378C-5.107,282.067,4,288.523,15.924,290.943c11.478,2.329,23.288.417,31.174-1.6a100.368,100.368,0,0,0,18.6-6.763A118.52,118.52,0,0,0,83.76,271.841,138.2,138.2,0,0,0,100.8,257.3a158.057,158.057,0,0,0,15.525-18.156c8.569-11.721,16.63-24.1,24.425-36.08,6.719-10.322,13.066-20.072,19.7-29.42a240.013,240.013,0,0,1,20.639-25.763,184.852,184.852,0,0,1,17.494-16.538,126.792,126.792,0,0,1,18.756-12.911,89.427,89.427,0,0,1,19.942-8.237,71.547,71.547,0,0,1,21.043-2.508,52.491,52.491,0,0,1,11.725,1.79,74.807,74.807,0,0,1,11.834,4.31A131.841,131.841,0,0,1,305.337,128.1,267.882,267.882,0,0,1,327.6,146.9c7.231,6.726,14.15,13.68,19.965,19.6,8.427,8.631,15.588,18.464,23.17,28.875,7.079,9.72,14.4,19.772,23.323,29.622a175.523,175.523,0,0,0,14.721,14.51,163.458,163.458,0,0,0,18.043,13.669,17.049,17.049,0,0,0,5.374,2.383,13.973,13.973,0,0,0,5.234.226c3.285-.475,6.666-2.068,10.336-4.873,6.9-5.274,13.657-13.93,20.81-23.094,9.362-11.994,19.044-24.4,29.9-30.133,6.55-3.461,14.13-5.132,23.853-5.26,4.787-.05,9.658.211,14.368.463,8.234.441,16.011.858,23.527-.22a43.662,43.662,0,0,0,10.882-2.921,36.339,36.339,0,0,0,10.006-6.279c7.1-6.266,15.382-13.489,23.919-19.9A256.825,256.825,0,0,1,635.647,143.4a152.688,152.688,0,0,1,15.993-7.64,116,116,0,0,1,16.522-5.329A87.933,87.933,0,0,1,716.7,132.45c15.934,5.257,31.178,15.052,45.308,29.114l-.529.532c-14.047-13.979-29.192-23.714-45.014-28.933a87.192,87.192,0,0,0-48.128-2,115.24,115.24,0,0,0-16.414,5.294,151.914,151.914,0,0,0-15.914,7.6,256.1,256.1,0,0,0-30.527,20.108c-8.515,6.392-16.788,13.6-23.874,19.861a37.082,37.082,0,0,1-10.21,6.407,44.4,44.4,0,0,1-11.067,2.973c-7.589,1.089-15.766.651-23.674.227-4.7-.252-9.557-.512-14.319-.462-9.6.127-17.071,1.77-23.512,5.174-10.716,5.66-20.347,18-29.661,29.931-7.184,9.2-13.969,17.9-20.946,23.228-3.773,2.884-7.268,4.526-10.684,5.019a14.721,14.721,0,0,1-5.514-.238,17.8,17.8,0,0,1-5.612-2.485,164.225,164.225,0,0,1-18.126-13.732A176.259,176.259,0,0,1,393.5,225.489c-8.951-9.88-16.283-19.948-23.374-29.684-7.565-10.388-14.711-20.2-23.1-28.792-5.808-5.908-12.719-12.854-19.94-19.57a267.152,267.152,0,0,0-22.2-18.745,131.09,131.09,0,0,0-23.316-14.225,74.05,74.05,0,0,0-11.714-4.268A51.747,51.747,0,0,0,258.3,108.44a70.8,70.8,0,0,0-20.823,2.482,88.671,88.671,0,0,0-19.773,8.169,126.043,126.043,0,0,0-18.644,12.835A184.123,184.123,0,0,0,181.638,148.4a239.332,239.332,0,0,0-20.574,25.685c-6.628,9.336-12.971,19.079-19.686,29.4-7.8,11.984-15.868,24.376-24.449,36.114a158.817,158.817,0,0,1-15.6,18.243A138.956,138.956,0,0,1,84.2,272.451a119.267,119.267,0,0,1-18.177,10.807,101.11,101.11,0,0,1-18.743,6.813,86.067,86.067,0,0,1-15.3,2.524Q29.53,292.765,27.162,292.765Z" fill="#84d4ff"/><path d="M27.684,298.592a58.56,58.56,0,0,1-11.4-1.068C4.084,295.1-5.36,288.631-11.8,278.291l.637-.4a40.571,40.571,0,0,0,27.59,18.893,61.239,61.239,0,0,0,16.2.876,86.624,86.624,0,0,0,15.507-2.6,103.559,103.559,0,0,0,18.688-6.875A123.738,123.738,0,0,0,85.1,277.368,156.7,156.7,0,0,0,118.568,244.5c10.164-13.4,19.265-27.85,28.066-41.826,11.987-19.036,23.31-37.017,36.4-51.143,12.1-13.134,24.437-23.281,36.667-30.16a88.95,88.95,0,0,1,20.159-8.424,68.113,68.113,0,0,1,21.072-2.4,51.568,51.568,0,0,1,11.583,1.94,72.383,72.383,0,0,1,11.6,4.453,125.871,125.871,0,0,1,22.795,14.615c14.864,11.68,28.906,26.485,40.682,39.427,7.782,8.553,14.441,18.1,21.49,28.208,7.029,10.079,14.3,20.5,23.161,30.559a162.984,162.984,0,0,0,14.644,14.708,146.983,146.983,0,0,0,18.02,13.593,18.179,18.179,0,0,0,5.451,2.4,15.486,15.486,0,0,0,5.374.35,24.174,24.174,0,0,0,10.747-4.365c7.227-4.833,14.415-12.9,22.025-21.435,9.685-10.865,19.7-22.1,30.723-27.615a48.584,48.584,0,0,1,11.708-4.034,75.2,75.2,0,0,1,12.246-1.492c4.054-.177,8.144-.185,12.1-.193,8.451-.017,16.434-.033,24.1-1.558a46.416,46.416,0,0,0,11.087-3.6,39.906,39.906,0,0,0,10.187-6.971c7.384-6.9,15.287-14.164,23.588-20.5a253.278,253.278,0,0,1,30.656-20.5,153.175,153.175,0,0,1,16.071-7.787,116.7,116.7,0,0,1,16.617-5.456,88.122,88.122,0,0,1,48.7,1.76c16.109,5.236,31.5,15.13,45.756,29.4l-.531.53c-14.168-14.191-29.462-24.022-45.457-29.222a87.384,87.384,0,0,0-48.286-1.745,115.972,115.972,0,0,0-16.51,5.421,152.426,152.426,0,0,0-15.992,7.749A252.55,252.55,0,0,0,604.7,169.638c-8.274,6.318-16.162,13.569-23.532,20.455a40.653,40.653,0,0,1-10.375,7.1,47.152,47.152,0,0,1-11.264,3.654c-7.736,1.539-15.754,1.555-24.243,1.572-3.948.008-8.031.016-12.068.192a74.463,74.463,0,0,0-12.123,1.476,47.841,47.841,0,0,0-11.53,3.971c-10.895,5.451-20.86,16.631-30.5,27.443-7.643,8.575-14.862,16.674-22.168,21.559a24.894,24.894,0,0,1-11.083,4.487,16.231,16.231,0,0,1-5.633-.368,18.925,18.925,0,0,1-5.677-2.5,147.734,147.734,0,0,1-18.1-13.659,163.718,163.718,0,0,1-14.711-14.775c-8.892-10.091-16.173-20.531-23.214-30.626S354.79,180,347.041,171.486c-11.755-12.919-25.77-27.7-40.59-39.342A125.127,125.127,0,0,0,283.8,117.615a71.625,71.625,0,0,0-11.481-4.407A50.817,50.817,0,0,0,260.9,111.3a67.366,67.366,0,0,0-20.841,2.375,88.2,88.2,0,0,0-19.988,8.354c-12.161,6.84-24.436,16.938-36.484,30.015-13.045,14.076-24.349,32.028-36.318,51.034-8.809,13.99-17.919,28.456-28.1,41.881a157.45,157.45,0,0,1-33.631,33.024,124.475,124.475,0,0,1-18.379,10.89A104.32,104.32,0,0,1,48.335,295.8a87.381,87.381,0,0,1-15.642,2.619Q30.145,298.592,27.684,298.592Z" fill="#84d4ff"/><path d="M28.208,304.435A59.7,59.7,0,0,1,16.8,303.383a42.943,42.943,0,0,1-28.61-18.934l.625-.414a42.218,42.218,0,0,0,28.128,18.612,62.386,62.386,0,0,0,16.4.848,87.337,87.337,0,0,0,15.843-2.7,116.289,116.289,0,0,0,37.248-17.88,167.025,167.025,0,0,0,34.374-33.057c11.43-14.54,21.157-30.565,30.563-46.062,11.013-18.146,21.416-35.285,33.6-48.614,12.162-13.4,24.639-23.783,37.083-30.869,14.15-8.058,28.106-11.728,41.479-10.906a50.534,50.534,0,0,1,11.44,2.091,69.907,69.907,0,0,1,11.365,4.6,120.334,120.334,0,0,1,22.126,14.936,237.938,237.938,0,0,1,20.686,19.635c7.315,7.724,14.043,15.576,18.467,20.81,7.121,8.425,13.267,17.642,19.775,27.4,6.985,10.473,14.207,21.3,23.017,31.6a152.222,152.222,0,0,0,14.577,14.938A134.485,134.485,0,0,0,423,262.936a19.467,19.467,0,0,0,5.549,2.429,17.265,17.265,0,0,0,5.535.475,26.29,26.29,0,0,0,11.211-3.871c7.589-4.406,15.25-11.9,23.36-19.831,9.937-9.719,20.213-19.769,31.33-25.035,6.712-3.179,14.355-5.02,24.055-5.793,3.137-.25,6.288-.43,9.335-.6,17.255-.989,33.554-1.923,46.828-15.075,7.2-7.135,14.914-14.635,23.257-21.112a249.92,249.92,0,0,1,30.7-20.827,153.723,153.723,0,0,1,16.149-7.934,117.444,117.444,0,0,1,16.713-5.583,91.4,91.4,0,0,1,22.009-2.737c25.876,0,50.786,11.494,73.049,33.932l-.532.528c-22.113-22.287-46.852-33.708-72.53-33.708a90.558,90.558,0,0,0-21.815,2.713,116.692,116.692,0,0,0-16.6,5.548,152.976,152.976,0,0,0-16.07,7.9,249.206,249.206,0,0,0-30.6,20.766c-8.31,6.456-16.012,13.938-23.188,21.049-13.476,13.352-29.912,14.294-47.313,15.291-3.043.174-6.19.355-9.318.6-9.606.766-17.166,2.584-23.793,5.723C489.321,223,479.088,233,469.2,242.678c-8.145,7.966-15.838,15.49-23.508,19.943a27.013,27.013,0,0,1-11.533,3.971,18.018,18.018,0,0,1-5.775-.5,20.218,20.218,0,0,1-5.763-2.521,135.237,135.237,0,0,1-18.1-13.6,152.966,152.966,0,0,1-14.648-15.01c-8.839-10.328-16.074-21.177-23.071-31.669-6.5-9.74-12.63-18.939-19.723-27.331-4.418-5.227-11.136-13.068-18.438-20.779a237.218,237.218,0,0,0-20.621-19.573,119.6,119.6,0,0,0-21.985-14.844,69.15,69.15,0,0,0-11.242-4.551,49.788,49.788,0,0,0-11.27-2.061c-13.227-.813-27.042,2.824-41.063,10.809-12.375,7.048-24.79,17.384-36.9,30.723-12.14,13.276-22.524,30.384-33.518,48.5-9.418,15.516-19.156,31.56-30.615,46.137a167.775,167.775,0,0,1-34.53,33.2A117.032,117.032,0,0,1,49.4,301.52a88.071,88.071,0,0,1-16,2.723Q30.763,304.435,28.208,304.435Z" fill="#84d4ff"/><path d="M28.733,310.278a60.845,60.845,0,0,1-11.415-1.036,44.721,44.721,0,0,1-29.139-18.637l.613-.432A43.994,43.994,0,0,0,17.46,308.506a63.515,63.515,0,0,0,16.6.821,88.044,88.044,0,0,0,16.178-2.814c12.626-3.383,25.257-9.459,37.542-18.059a178.019,178.019,0,0,0,35.278-33.248c12.541-15.416,22.683-32.771,32.492-49.554,10.239-17.52,19.911-34.069,31.375-46.827a188.988,188.988,0,0,1,17.985-17.616,133.319,133.319,0,0,1,19.534-13.946c14.4-8.31,28.433-12.011,41.708-11a49.488,49.488,0,0,1,11.3,2.243,67.488,67.488,0,0,1,11.129,4.748,115.156,115.156,0,0,1,21.456,15.257c14.452,12.681,27.7,28.819,37.623,41.461,6.486,8.261,12.137,17.137,18.12,26.533,6.935,10.891,14.105,22.154,22.853,32.695a142.717,142.717,0,0,0,14.494,15.176,123.118,123.118,0,0,0,17.968,13.449,19.572,19.572,0,0,0,11.4,3.064,29.077,29.077,0,0,0,11.747-3.392c8-4,16.191-10.938,24.86-18.288,10.094-8.557,20.531-17.406,31.642-22.388,6.747-3.025,14.423-4.951,24.156-6.059,1.79-.2,3.591-.4,5.332-.585,9.362-1.007,18.2-1.958,26.528-4.5a55.068,55.068,0,0,0,12-5.189,50.045,50.045,0,0,0,10.992-8.769c6.706-7.041,14.562-15.106,22.924-21.713a246.655,246.655,0,0,1,30.735-21.158,154.262,154.262,0,0,1,16.227-8.081,118.173,118.173,0,0,1,16.808-5.711,88.506,88.506,0,0,1,49.014,1.237c16.451,5.192,32.147,15.282,46.651,29.989l-.534.527c-14.418-14.619-30.01-24.646-46.343-29.8a87.766,87.766,0,0,0-48.6-1.225,117.428,117.428,0,0,0-16.7,5.675A153.519,153.519,0,0,0,633.78,159.5a245.924,245.924,0,0,0-30.641,21.095c-8.324,6.577-16.158,14.619-22.846,21.642a50.783,50.783,0,0,1-11.155,8.9,55.8,55.8,0,0,1-12.162,5.26c-8.392,2.562-17.268,3.517-26.666,4.528-1.74.187-3.539.381-5.328.584-9.654,1.1-17.259,3.006-23.934,6-11.014,4.938-21.41,13.752-31.463,22.276-8.7,7.38-16.926,14.35-25.01,18.387a29.8,29.8,0,0,1-12.051,3.47,20.14,20.14,0,0,1-5.949-.625,21.712,21.712,0,0,1-5.877-2.549,123.857,123.857,0,0,1-18.076-13.53,143.437,143.437,0,0,1-14.57-15.255c-8.778-10.577-15.961-21.86-22.908-32.771-5.973-9.381-11.614-18.241-18.077-26.473-9.9-12.617-23.123-28.72-37.528-41.36a114.407,114.407,0,0,0-21.314-15.159,66.736,66.736,0,0,0-11-4.7,48.742,48.742,0,0,0-11.125-2.209c-13.123-1-27.01,2.671-41.277,10.9A132.563,132.563,0,0,0,205.4,141.779a188.251,188.251,0,0,0-17.913,17.546c-11.413,12.7-21.066,29.217-31.285,46.7-9.823,16.808-19.98,34.189-32.559,49.65a178.77,178.77,0,0,1-35.428,33.388c-12.357,8.651-25.068,14.764-37.778,18.169a88.8,88.8,0,0,1-16.316,2.838Q31.381,310.278,28.733,310.278Z" fill="#84d4ff"/><path d="M29.258,316.123a62.013,62.013,0,0,1-11.423-1.02,46.637,46.637,0,0,1-29.669-18.34l.6-.449a45.908,45.908,0,0,0,29.206,18.052,64.667,64.667,0,0,0,16.8.793,88.85,88.85,0,0,0,16.513-2.924C63.921,308.794,76.651,302.658,89.12,294A189.791,189.791,0,0,0,125.3,260.56c13.511-16.069,23.89-34.555,33.927-52.433,9.62-17.135,18.707-33.32,29.641-45.655a189.653,189.653,0,0,1,18.143-17.98,135.343,135.343,0,0,1,19.794-14.29c14.648-8.551,28.763-12.28,41.953-11.083a48.428,48.428,0,0,1,11.152,2.394,65.118,65.118,0,0,1,10.892,4.9,110.31,110.31,0,0,1,20.786,15.58A217.333,217.333,0,0,1,330.7,162.462c5.254,6.32,10.653,13.311,16.989,22,5.876,8.058,11.045,16.576,16.518,25.6,13.89,22.89,28.253,46.559,54.976,62.65a21.717,21.717,0,0,0,11.8,3.237,32.75,32.75,0,0,0,12.385-2.927c8.49-3.6,17.284-10.023,26.6-16.818,10.114-7.382,20.573-15.016,31.539-19.667a80.069,80.069,0,0,1,11.978-3.952c3.668-.916,7.684-1.693,12.278-2.373,9.733-1.443,19.8-2.935,28.923-6.15a61.108,61.108,0,0,0,12.879-6.21A57.119,57.119,0,0,0,579.3,207.8c6.53-7.263,14.2-15.576,22.591-22.319A243.54,243.54,0,0,1,632.661,164a154.837,154.837,0,0,1,16.305-8.228,118.952,118.952,0,0,1,16.9-5.838,88.689,88.689,0,0,1,49.173.975c16.619,5.168,32.465,15.356,47.1,30.28l-.535.525c-14.546-14.835-30.287-24.959-46.786-30.089a87.949,87.949,0,0,0-48.763-.965,118.181,118.181,0,0,0-16.8,5.8,154.07,154.07,0,0,0-16.226,8.188,242.8,242.8,0,0,0-30.679,21.423c-8.348,6.708-15.993,14.995-22.5,22.236a57.859,57.859,0,0,1-11.9,10.175,61.847,61.847,0,0,1-13.035,6.286c-9.194,3.239-19.294,4.736-29.062,6.184-4.57.677-8.562,1.449-12.206,2.359a79.348,79.348,0,0,0-11.867,3.914c-10.887,4.617-21.31,12.225-31.39,19.582-9.347,6.822-18.175,13.265-26.744,16.9a33.477,33.477,0,0,1-12.668,2.987,22.705,22.705,0,0,1-6.166-.755,23.47,23.47,0,0,1-6.028-2.589,113.51,113.51,0,0,1-18.027-13.45,135.04,135.04,0,0,1-14.477-15.513c-8.709-10.842-15.834-22.584-22.725-33.94-5.464-9-10.625-17.51-16.483-25.542-6.327-8.676-11.716-15.655-16.96-21.963a216.58,216.58,0,0,0-19.04-20.4,109.568,109.568,0,0,0-20.641-15.475,64.373,64.373,0,0,0-10.765-4.84,47.678,47.678,0,0,0-10.98-2.358c-13.033-1.182-27,2.513-41.508,10.984A134.584,134.584,0,0,0,207.5,145.059a188.9,188.9,0,0,0-18.071,17.909c-10.88,12.275-19.948,28.426-29.548,45.525-10.054,17.908-20.451,36.426-34.008,52.55a190.538,190.538,0,0,1-36.326,33.572C77.008,303.323,64.2,309.5,51.482,312.96a89.58,89.58,0,0,1-16.653,2.948Q32,316.124,29.258,316.123Z" fill="#84d4ff"/><path d="M29.783,321.969a63.2,63.2,0,0,1-11.431-1,48.706,48.706,0,0,1-30.2-18.044l.588-.466a47.975,47.975,0,0,0,29.746,17.772,65.82,65.82,0,0,0,17,.766,89.642,89.642,0,0,0,16.847-3.035c12.646-3.5,25.475-9.694,38.13-18.414a202.416,202.416,0,0,0,37.084-33.632,198.444,198.444,0,0,0,19.167-26.7c5.716-9.339,10.9-18.958,15.912-28.261,9.1-16.879,17.687-32.823,28.188-44.833a190.2,190.2,0,0,1,18.3-18.345,137.367,137.367,0,0,1,20.055-14.634,87.824,87.824,0,0,1,21.017-9.185,56.936,56.936,0,0,1,21.183-1.979,47.36,47.36,0,0,1,11.008,2.546,62.828,62.828,0,0,1,10.654,5.045,105.8,105.8,0,0,1,20.115,15.9,209.344,209.344,0,0,1,18.317,20.9c5.054,6.5,10.218,13.68,16.252,22.593,5.287,7.81,10.2,16.327,14.96,24.563,13.735,23.79,27.937,48.389,54.594,64.073a24.322,24.322,0,0,0,12.309,3.432,37.652,37.652,0,0,0,13.17-2.48c9.082-3.234,18.6-9.164,28.672-15.443,9.936-6.193,20.211-12.6,30.83-16.854a126.88,126.88,0,0,1,24.357-6.591c9.31-1.7,19.19-3.837,28.363-7.893a65.587,65.587,0,0,0,12.474-7.178,66.48,66.48,0,0,0,11.4-10.7c6.365-7.492,13.859-16.06,22.258-22.924a240.531,240.531,0,0,1,30.813-21.818,155.39,155.39,0,0,1,16.383-8.375,119.691,119.691,0,0,1,17-5.966,88.873,88.873,0,0,1,49.332.713c16.786,5.143,32.782,15.429,47.546,30.572l-.537.524c-14.675-15.052-30.565-25.273-47.229-30.378a88.133,88.133,0,0,0-48.921-.7,118.93,118.93,0,0,0-16.889,5.92,154.64,154.64,0,0,0-16.3,8.334,239.8,239.8,0,0,0-30.717,21.752c-8.351,6.824-15.818,15.362-22.162,22.829A67.222,67.222,0,0,1,567.9,225.19a66.332,66.332,0,0,1-12.615,7.26c-9.245,4.088-19.176,6.235-28.532,7.945a126.175,126.175,0,0,0-24.213,6.549c-10.557,4.233-20.8,10.618-30.712,16.794-10.11,6.3-19.658,12.252-28.817,15.513a38.363,38.363,0,0,1-13.432,2.524,25.9,25.9,0,0,1-6.445-.89,25.568,25.568,0,0,1-6.233-2.645c-26.827-15.784-41.08-40.47-54.863-64.344-4.967-8.6-9.659-16.73-14.931-24.518-6.025-8.9-11.18-16.066-16.224-22.553A208.61,208.61,0,0,0,312.621,146a105.058,105.058,0,0,0-19.969-15.792,62.067,62.067,0,0,0-10.526-4.985,46.614,46.614,0,0,0-10.834-2.507,56.193,56.193,0,0,0-20.9,1.956,87.072,87.072,0,0,0-20.835,9.108,136.621,136.621,0,0,0-19.944,14.554,189.474,189.474,0,0,0-18.228,18.272c-10.445,11.946-19.017,27.854-28.092,44.695-5.018,9.312-10.206,18.941-15.933,28.3a199.177,199.177,0,0,1-19.242,26.8,203.169,203.169,0,0,1-37.224,33.757c-12.724,8.768-25.629,15-38.356,18.52a90.387,90.387,0,0,1-16.989,3.06Q32.619,321.969,29.783,321.969Z" fill="#84d4ff"/><path d="M30.31,327.816a64.4,64.4,0,0,1-11.441-.989,50.943,50.943,0,0,1-30.728-17.749l.574-.482A50.212,50.212,0,0,0,19,326.089a66.964,66.964,0,0,0,17.194.739,90.483,90.483,0,0,0,17.183-3.146c25.546-7.174,51.968-25.3,76.411-52.416a179.535,179.535,0,0,0,19.95-27.694c5.846-9.752,11.05-19.82,16.083-29.556,8.639-16.714,16.8-32.5,26.937-44.254,12.274-14.228,25.681-25.877,38.772-33.688a87.673,87.673,0,0,1,21.233-9.372,54.7,54.7,0,0,1,21.213-1.871,46.276,46.276,0,0,1,10.865,2.7,60.574,60.574,0,0,1,10.417,5.194A101.6,101.6,0,0,1,314.7,148.95a202.776,202.776,0,0,1,17.526,21.316c4.833,6.658,9.764,14.026,15.517,23.185,4.719,7.512,9.153,15.6,13.441,23.421,6.752,12.316,13.734,25.051,22.257,36.439A120.432,120.432,0,0,0,397.616,269.3a94.716,94.716,0,0,0,17.742,13.174,27.541,27.541,0,0,0,13,3.659,44.274,44.274,0,0,0,14.182-2.057c9.84-2.895,20.253-8.388,31.278-14.2,9.453-4.986,19.228-10.142,29.189-13.915a173.394,173.394,0,0,1,24.458-6.856c11.335-2.466,20.17-5.528,27.8-9.635a74.615,74.615,0,0,0,23.124-19.5c7.691-9.58,14.363-17.247,21.925-23.529A237.637,237.637,0,0,1,631.167,174.3a155.916,155.916,0,0,1,16.461-8.522,120.437,120.437,0,0,1,17.095-6.093,89.058,89.058,0,0,1,49.491.451A98.466,98.466,0,0,1,738.6,171.473,132.051,132.051,0,0,1,762.207,191l-.538.522A131.3,131.3,0,0,0,738.2,172.1,97.714,97.714,0,0,0,714,160.852a88.318,88.318,0,0,0-49.08-.445,119.7,119.7,0,0,0-16.987,6.055,155.2,155.2,0,0,0-16.381,8.481,236.88,236.88,0,0,0-30.755,22.08c-7.514,6.242-14.157,13.877-21.82,23.422a75.351,75.351,0,0,1-23.353,19.687c-7.7,4.141-16.594,7.226-28,9.707a172.725,172.725,0,0,0-24.352,6.824c-9.918,3.756-19.672,8.9-29.105,13.877-11.059,5.833-21.5,11.343-31.416,14.259a45,45,0,0,1-14.422,2.087,29.919,29.919,0,0,1-6.822-1.032,28.124,28.124,0,0,1-6.52-2.727A95.465,95.465,0,0,1,397.1,269.852a121.175,121.175,0,0,1-14.262-16.092c-8.554-11.43-15.549-24.189-22.314-36.528-4.283-7.811-8.711-15.889-13.418-23.382-5.745-9.145-10.666-16.5-15.489-23.143a202.022,202.022,0,0,0-17.461-21.237,100.858,100.858,0,0,0-19.3-16.109,59.828,59.828,0,0,0-10.287-5.13,45.533,45.533,0,0,0-10.689-2.655,53.953,53.953,0,0,0-20.923,1.849,86.926,86.926,0,0,0-21.05,9.294c-13.023,7.771-26.367,19.367-38.589,33.534-10.081,11.686-18.221,27.435-26.839,44.108-5.038,9.747-10.247,19.826-16.106,29.6a180.263,180.263,0,0,1-20.035,27.809c-24.538,27.224-51.083,45.425-76.766,52.637a91.219,91.219,0,0,1-17.326,3.172Q33.24,327.816,30.31,327.816Z" fill="#84d4ff"/><path d="M30.834,333.664a65.6,65.6,0,0,1-11.448-.974,53.356,53.356,0,0,1-31.257-17.455l.56-.5A52.622,52.622,0,0,0,19.516,331.95a68.106,68.106,0,0,0,17.392.712A91.329,91.329,0,0,0,54.425,329.4c12.662-3.607,25.689-9.921,38.719-18.766a230.394,230.394,0,0,0,38.889-34.019A164.744,164.744,0,0,0,152.7,248.026c5.951-10.136,11.148-20.624,16.174-30.767,8.232-16.613,16.007-32.306,25.835-43.851,12.323-14.477,25.875-26.371,39.189-34.4a87.589,87.589,0,0,1,21.451-9.559,52.63,52.63,0,0,1,21.243-1.763,45.2,45.2,0,0,1,10.721,2.851,58.4,58.4,0,0,1,10.178,5.343,82,82,0,0,1,9.644,7.431,117.9,117.9,0,0,1,9.124,9.121c12.546,13.913,23.434,31.63,31.517,45.51,4.167,7.155,8.124,14.772,11.951,22.137,6.683,12.861,13.593,26.161,22.032,37.881a114.834,114.834,0,0,0,14.052,16.32,86.861,86.861,0,0,0,17.639,13.082,31.658,31.658,0,0,0,13.976,3.941A53.615,53.615,0,0,0,443,289.631c10.873-2.607,22.474-7.746,34.756-13.187,8.46-3.748,17.207-7.623,26-10.766,8.093-2.891,16.235-5.018,24.56-7.122a91.086,91.086,0,0,0,27.245-11.375,86.619,86.619,0,0,0,22.374-21.12c2.78-3.663,6.467-8.435,10.328-12.864a104.324,104.324,0,0,1,11.264-11.269c23.081-19.534,44.218-31.758,64.62-37.369a89.242,89.242,0,0,1,49.651.189,97.829,97.829,0,0,1,24.578,11.362,131.912,131.912,0,0,1,23.865,19.79l-.54.521a131.167,131.167,0,0,0-23.727-19.68,97.079,97.079,0,0,0-24.389-11.276,88.5,88.5,0,0,0-49.239-.185c-20.294,5.582-41.338,17.756-64.334,37.219A103.584,103.584,0,0,0,588.83,213.69c-3.846,4.412-7.523,9.171-10.3,12.825a87.352,87.352,0,0,1-22.567,21.3A91.822,91.822,0,0,1,528.5,259.284c-8.307,2.1-16.43,4.22-24.492,7.1-8.768,3.134-17.5,7-25.951,10.745-12.314,5.455-23.946,10.608-34.885,13.231a54.341,54.341,0,0,1-15.794,1.694,35.181,35.181,0,0,1-7.359-1.186,31.33,31.33,0,0,1-6.94-2.85,87.6,87.6,0,0,1-17.79-13.193A115.566,115.566,0,0,1,381.147,258.4c-8.471-11.764-15.394-25.088-22.089-37.973-3.823-7.358-7.776-14.966-11.934-22.106C339.059,184.473,328.2,166.8,315.7,152.936a117.125,117.125,0,0,0-9.065-9.063,81.262,81.262,0,0,0-9.555-7.363,57.648,57.648,0,0,0-10.047-5.275,44.441,44.441,0,0,0-10.543-2.8,51.887,51.887,0,0,0-20.942,1.742,86.841,86.841,0,0,0-21.266,9.479c-13.246,7.985-26.734,19.826-39.005,34.242-9.768,11.475-17.523,27.127-25.734,43.7-5.031,10.155-10.234,20.655-16.2,30.814a165.479,165.479,0,0,1-20.758,28.723,231.145,231.145,0,0,1-39.019,34.13c-13.1,8.89-26.2,15.237-38.934,18.866a92.07,92.07,0,0,1-17.661,3.285Q33.86,333.665,30.834,333.664Z" fill="#84d4ff"/><path d="M31.361,339.514a66.831,66.831,0,0,1-11.458-.96,55.969,55.969,0,0,1-31.786-17.162l.546-.514a55.235,55.235,0,0,0,31.368,16.937,69.267,69.267,0,0,0,17.59.685,92.209,92.209,0,0,0,17.851-3.372c12.668-3.659,25.794-10.031,39.013-18.94a245.908,245.908,0,0,0,39.791-34.214c7.518-7.921,14.493-17.546,21.324-29.426,6.037-10.5,11.206-21.387,16.2-31.917,7.862-16.56,15.289-32.2,24.843-43.576a191.224,191.224,0,0,1,18.769-19.443,143.33,143.33,0,0,1,20.836-15.666,87.538,87.538,0,0,1,21.669-9.746,50.712,50.712,0,0,1,21.273-1.655,44.115,44.115,0,0,1,10.577,3,56.291,56.291,0,0,1,9.94,5.493,78.853,78.853,0,0,1,9.333,7.586,113.807,113.807,0,0,1,8.761,9.291,193.236,193.236,0,0,1,15.944,22.156c4.347,6.909,8.811,14.651,14.05,24.364,3.63,6.73,7.115,13.823,10.485,20.683,6.609,13.452,13.442,27.362,21.8,39.448a110.037,110.037,0,0,0,13.926,16.684,79.671,79.671,0,0,0,17.528,13,39.261,39.261,0,0,0,19.1,4.439c15.961,0,34.568-6.917,53.928-14.113,6.518-2.423,13.257-4.928,19.946-7.181,6.728-2.266,13.623-4.233,20.291-6.136,1.434-.409,2.917-.832,4.371-1.25a81.024,81.024,0,0,0,26.687-13.115c7.712-5.779,14.785-13.218,21.622-22.745,2.7-3.768,6.3-8.677,10.114-13.244a96.765,96.765,0,0,1,11.144-11.5c5.086-4.375,10.152-8.44,15.056-12.083,5.342-3.968,10.683-7.577,15.874-10.727a157.055,157.055,0,0,1,16.617-8.815,121.989,121.989,0,0,1,17.286-6.348c17.033-4.741,33.791-4.766,49.81-.073a97.218,97.218,0,0,1,24.768,11.385A131.8,131.8,0,0,1,762.269,200.8l-.541.519a131.06,131.06,0,0,0-23.982-19.947,96.469,96.469,0,0,0-24.577-11.3,85.7,85.7,0,0,0-24.185-3.471,93.793,93.793,0,0,0-25.212,3.546,121.227,121.227,0,0,0-17.178,6.309,156.268,156.268,0,0,0-16.537,8.773c-5.171,3.137-10.492,6.733-15.816,10.688-4.89,3.633-9.942,7.687-15.015,12.05a96.021,96.021,0,0,0-11.058,11.407c-3.8,4.547-7.383,9.443-10.08,13.2-6.883,9.589-14.008,17.082-21.782,22.907a81.763,81.763,0,0,1-26.929,13.235c-1.454.418-2.938.842-4.372,1.251-6.66,1.9-13.546,3.864-20.258,6.125-6.678,2.25-13.412,4.753-19.924,7.173-19.424,7.22-38.1,14.161-54.191,14.163a39.963,39.963,0,0,1-19.459-4.532,80.411,80.411,0,0,1-17.692-13.116A110.765,110.765,0,0,1,379.464,263c-8.385-12.132-15.232-26.067-21.852-39.543-3.367-6.853-6.849-13.94-10.472-20.658-5.231-9.7-9.687-17.427-14.025-24.321a192.5,192.5,0,0,0-15.881-22.07,113.058,113.058,0,0,0-8.7-9.23,78.09,78.09,0,0,0-9.243-7.514,55.539,55.539,0,0,0-9.806-5.42,43.359,43.359,0,0,0-10.4-2.953,49.967,49.967,0,0,0-20.96,1.636,86.792,86.792,0,0,0-21.481,9.664,142.586,142.586,0,0,0-20.725,15.584,190.5,190.5,0,0,0-18.695,19.367c-9.493,11.3-16.9,26.9-24.74,43.415C167.479,231.5,162.3,242.4,156.252,252.926c-6.86,11.932-13.87,21.6-21.431,29.57A246.661,246.661,0,0,1,94.905,316.81c-13.284,8.953-26.481,15.358-39.224,19.039a92.954,92.954,0,0,1-18,3.4Q34.481,339.514,31.361,339.514Z" fill="#84d4ff"/><path d="M31.891,345.369a67.992,67.992,0,0,1-11.471-.95,58.8,58.8,0,0,1-32.315-16.871l.531-.529a58.06,58.06,0,0,0,31.91,16.661c11.017,1.884,23.121.932,35.973-2.829,12.673-3.709,25.9-10.139,39.308-19.114a262.567,262.567,0,0,0,40.693-34.409c7.839-8.032,15-17.9,21.907-30.163,6.1-10.833,11.212-22.091,16.159-32.979,7.536-16.584,14.654-32.249,24.007-43.486a189.346,189.346,0,0,1,18.9-19.829,144.642,144.642,0,0,1,21.1-16.007,87.516,87.516,0,0,1,21.9-9.921A49.009,49.009,0,0,1,281.8,133.4a43.025,43.025,0,0,1,10.432,3.156,54.26,54.26,0,0,1,9.7,5.643,75.9,75.9,0,0,1,9.021,7.742,110.15,110.15,0,0,1,8.4,9.461,190.151,190.151,0,0,1,15.152,22.576c4.086,7,8.318,14.928,13.319,24.953,3.1,6.224,6.118,12.727,9.032,19.017,6.531,14.1,13.284,28.671,21.551,41.165a106.026,106.026,0,0,0,13.8,17.1,78.661,78.661,0,0,0,8.18,7.069,70.571,70.571,0,0,0,9.235,5.853,40.565,40.565,0,0,0,8.679,3.341,52.981,52.981,0,0,0,9.594,1.537,91.251,91.251,0,0,0,21.452-1.338c15.154-2.518,32.082-7.939,48.453-13.182,2.447-.784,4.977-1.594,7.465-2.383,3.784-1.2,7.64-2.37,11.369-3.5,4.409-1.337,8.968-2.72,13.4-4.151a74,74,0,0,0,26.13-14.853,100.253,100.253,0,0,0,10.854-11.068,154.925,154.925,0,0,0,10.017-13.3c6.129-9.03,12.906-18.35,20.924-25.344,5.062-4.425,10.126-8.547,15.051-12.253,5.344-4.021,10.7-7.684,15.918-10.888a157.606,157.606,0,0,1,16.7-8.962A122.754,122.754,0,0,1,663,174.312c17.115-4.852,33.927-4.965,49.969-.335a96.632,96.632,0,0,1,24.959,11.409,131.752,131.752,0,0,1,24.378,20.329l-.542.518a131.007,131.007,0,0,0-24.237-20.214A95.882,95.882,0,0,0,712.762,174.7c-15.905-4.59-32.579-4.477-49.556.335a122.01,122.01,0,0,0-17.273,6.436,156.9,156.9,0,0,0-16.615,8.92c-5.2,3.191-10.535,6.841-15.86,10.848-4.91,3.7-9.959,7.806-15.008,12.219-7.954,6.938-14.7,16.212-20.8,25.2a155.628,155.628,0,0,1-10.065,13.367,100.986,100.986,0,0,1-10.935,11.15,74.739,74.739,0,0,1-26.391,15c-4.435,1.433-9,2.817-13.409,4.155-3.727,1.13-7.58,2.3-11.36,3.5-2.487.789-5.017,1.6-7.463,2.382-16.4,5.251-33.351,10.681-48.559,13.207a91.99,91.99,0,0,1-21.628,1.346,53.731,53.731,0,0,1-9.73-1.559,41.316,41.316,0,0,1-8.839-3.4,71.325,71.325,0,0,1-9.333-5.915,79.422,79.422,0,0,1-8.258-7.136,106.758,106.758,0,0,1-13.9-17.218c-8.3-12.541-15.064-27.143-21.607-41.263-2.912-6.284-5.923-12.783-9.022-19-4.993-10.01-9.218-17.925-13.3-24.909a189.426,189.426,0,0,0-15.081-22.5,109.4,109.4,0,0,0-8.34-9.4A75.152,75.152,0,0,0,301.5,142.8a53.508,53.508,0,0,0-9.566-5.565,42.276,42.276,0,0,0-10.251-3.1,48.269,48.269,0,0,0-20.986,1.522,86.769,86.769,0,0,0-21.71,9.838A143.877,143.877,0,0,0,218,161.427a188.589,188.589,0,0,0-18.827,19.751c-9.289,11.161-16.387,26.78-23.9,43.317-4.954,10.9-10.076,22.175-16.188,33.036-6.934,12.322-14.138,22.24-22.025,30.32A263.309,263.309,0,0,1,96.245,322.36c-13.473,9.017-26.768,15.48-39.515,19.21a88.591,88.591,0,0,1-24.839,3.8Z" fill="#84d4ff"/><path d="M32.4,351.218a69.143,69.143,0,0,1-11.464-.934A61.869,61.869,0,0,1-11.906,333.7l.517-.544A61.13,61.13,0,0,0,21.063,349.54c11.216,1.884,23.5.884,36.5-2.97,12.677-3.757,26-10.246,39.6-19.287,13.527-8.991,27.521-20.633,41.6-34.6,8.168-8.145,15.529-18.256,22.5-30.912,6.156-11.171,11.216-22.8,16.11-34.051,7.217-16.588,14.034-32.257,23.161-43.373a189.727,189.727,0,0,1,19.071-20.2A146.676,146.676,0,0,1,240.96,147.8a87.555,87.555,0,0,1,22.118-10.108,47.332,47.332,0,0,1,21.341-1.433,41.946,41.946,0,0,1,10.288,3.309,52.307,52.307,0,0,1,9.461,5.793,73.139,73.139,0,0,1,8.708,7.9,106.9,106.9,0,0,1,8.034,9.631c10.613,14.258,19.578,32.536,26.948,48.536,2.589,5.621,5.13,11.452,7.586,17.09,6.449,14.8,13.118,30.108,21.3,43.061a102.81,102.81,0,0,0,13.673,17.575,73.143,73.143,0,0,0,8.12,7.118,64.092,64.092,0,0,0,9.179,5.75,48.316,48.316,0,0,0,9.426,3.588,66.618,66.618,0,0,0,10.611,1.9,114.5,114.5,0,0,0,24.049-.451,230.681,230.681,0,0,0,26.582-4.776c8.151-1.9,17.192-4.345,27.64-7.46,8.168-2.436,16.613-4.955,24.867-7.917a69.056,69.056,0,0,0,25.576-16.59c6.521-6.468,12.725-14.486,20.117-26,5.958-9.279,12.576-18.844,20.591-25.949a230.111,230.111,0,0,1,31-23.468,158.163,158.163,0,0,1,16.773-9.109,123.556,123.556,0,0,1,17.476-6.6c17.2-4.963,34.063-5.164,50.128-.6A96.07,96.07,0,0,1,737.7,190.024a131.76,131.76,0,0,1,24.635,20.6l-.544.517a131.007,131.007,0,0,0-24.493-20.48,95.323,95.323,0,0,0-24.953-11.343,85.563,85.563,0,0,0-25.018-3.243,95.681,95.681,0,0,0-24.7,3.839,122.8,122.8,0,0,0-17.369,6.562,157.419,157.419,0,0,0-16.693,9.066,229.366,229.366,0,0,0-30.9,23.4c-7.947,7.044-14.529,16.56-20.457,25.793-7.422,11.56-13.658,19.618-20.22,26.125a69.789,69.789,0,0,1-25.85,16.764c-8.273,2.968-16.729,5.49-24.906,7.929-10.462,3.119-19.518,5.563-27.684,7.471a231.417,231.417,0,0,1-26.669,4.791,115.25,115.25,0,0,1-24.208.452,67.389,67.389,0,0,1-10.731-1.926,49.075,49.075,0,0,1-9.572-3.645,64.833,64.833,0,0,1-9.287-5.817,73.9,73.9,0,0,1-8.2-7.191,103.542,103.542,0,0,1-13.773-17.7c-8.212-13-14.892-28.334-21.353-43.162-2.455-5.635-4.994-11.462-7.58-17.076-7.354-15.965-16.3-34.2-26.868-48.4a106.1,106.1,0,0,0-7.977-9.563,72.393,72.393,0,0,0-8.617-7.817,51.565,51.565,0,0,0-9.325-5.71,41.2,41.2,0,0,0-10.1-3.25,46.594,46.594,0,0,0-21,1.417,86.81,86.81,0,0,0-21.926,10.024,145.924,145.924,0,0,0-21.262,16.26,188.949,188.949,0,0,0-18.983,20.115c-9.062,11.036-15.858,26.658-23.054,43.2-4.9,11.265-9.969,22.913-16.141,34.114a162.941,162.941,0,0,1-10.181,16.3,117.127,117.127,0,0,1-12.449,14.778c-14.109,14.006-28.141,25.68-41.709,34.7-13.664,9.082-27.056,15.6-39.806,19.381A89.447,89.447,0,0,1,32.4,351.218Z" fill="#84d4ff"/><path d="M32.919,357.086a70.153,70.153,0,0,1-11.459-.921,64.068,64.068,0,0,1-17.378-5.481,68.5,68.5,0,0,1-16-10.824l.5-.558A67.748,67.748,0,0,0,4.408,350.009a63.317,63.317,0,0,0,17.174,5.416c11.429,1.89,23.888.837,37.031-3.129a129.248,129.248,0,0,0,19.593-7.744,181.634,181.634,0,0,0,20.31-11.7c13.632-9.007,27.929-20.72,42.492-34.816a110.654,110.654,0,0,0,12.77-14.962,154.158,154.158,0,0,0,10.3-16.667c6.205-11.5,11.2-23.5,16.031-35.1,6.918-16.614,13.452-32.306,22.372-43.319a190.094,190.094,0,0,1,19.214-20.56,148.708,148.708,0,0,1,21.62-16.7,87.614,87.614,0,0,1,22.335-10.3c7.688-2.169,14.879-2.614,21.372-1.324,12.834,2.531,24.415,11.451,35.4,27.27,9.829,14.15,18.042,32.169,25.452,49.532,2.01,4.76,4.006,9.662,5.936,14.4,6.38,15.67,12.977,31.874,21.105,45.433A100.842,100.842,0,0,0,388.53,294a68.391,68.391,0,0,0,8.1,7.229,58.27,58.27,0,0,0,9.169,5.681,69.192,69.192,0,0,0,20.3,6.011,131.115,131.115,0,0,0,24.741,1.132c16.8-.682,36.141-3.97,55.928-9.508a246.677,246.677,0,0,0,24.971-8.181,57.205,57.205,0,0,0,13.57-7.624,76.818,76.818,0,0,0,11.443-10.7c6.717-7.584,12.6-16.531,19.373-27.631,3.638-6.016,6.555-10.453,9.461-14.386a80.774,80.774,0,0,1,10.8-12.168,227.7,227.7,0,0,1,31.046-23.8,158.774,158.774,0,0,1,16.851-9.256,124.363,124.363,0,0,1,17.572-6.73,97.1,97.1,0,0,1,24.932-4.014,86.1,86.1,0,0,1,25.356,3.156,95.541,95.541,0,0,1,25.34,11.455,131.791,131.791,0,0,1,24.891,20.865l-.545.515A131.045,131.045,0,0,0,737.079,195.3a94.8,94.8,0,0,0-25.141-11.366A85.35,85.35,0,0,0,686.8,180.8a96.342,96.342,0,0,0-24.738,3.984,123.6,123.6,0,0,0-17.465,6.689,158.008,158.008,0,0,0-16.771,9.212,226.952,226.952,0,0,0-30.943,23.723,80.041,80.041,0,0,0-10.694,12.056c-2.891,3.913-5.8,8.332-9.423,14.329-6.792,11.136-12.7,20.114-19.452,27.739a77.557,77.557,0,0,1-11.554,10.8,57.951,57.951,0,0,1-13.745,7.721,247.4,247.4,0,0,1-25.044,8.206c-19.842,5.553-39.241,8.85-56.1,9.535a131.854,131.854,0,0,1-24.884-1.14,69.933,69.933,0,0,1-20.524-6.081,59.018,59.018,0,0,1-9.288-5.754,69.134,69.134,0,0,1-8.19-7.309,101.577,101.577,0,0,1-13.711-18.373c-8.158-13.608-14.766-29.839-21.157-45.536-1.929-4.739-3.924-9.64-5.932-14.394-7.394-17.326-15.587-35.3-25.378-49.4-10.872-15.652-22.3-24.471-34.933-26.962-6.376-1.267-13.449-.826-21.022,1.31a86.876,86.876,0,0,0-22.141,10.209c-13.99,8.749-28.425,21.921-40.648,37.091-8.853,10.93-15.367,26.573-22.264,43.136-4.838,11.618-9.84,23.632-16.063,35.164A154.883,154.883,0,0,1,154.384,283.5a111.4,111.4,0,0,1-12.858,15.064c-14.6,14.128-28.93,25.871-42.6,34.9a182.406,182.406,0,0,1-20.394,11.747A129.992,129.992,0,0,1,58.826,353a89.8,89.8,0,0,1-25.907,4.084Z" fill="#84d4ff"/><path d="M33.472,362.935a71.75,71.75,0,0,1-11.5-.907A66.691,66.691,0,0,1,4.4,356.612a73.1,73.1,0,0,1-16.334-10.6l.486-.571a72.349,72.349,0,0,0,16.17,10.492A65.945,65.945,0,0,0,22.1,361.287a73.7,73.7,0,0,0,18.383.58,95.416,95.416,0,0,0,19.181-3.848,132.452,132.452,0,0,0,19.683-7.834A189.019,189.019,0,0,0,99.858,338.4c6.911-4.535,14.082-9.8,21.313-15.634,7.168-5.788,14.6-12.306,22.08-19.374a105.8,105.8,0,0,0,13.164-15.229,147.265,147.265,0,0,0,10.458-17.094c6.246-11.821,11.167-24.174,15.925-36.12,6.634-16.656,12.9-32.387,21.629-43.311,12.315-15.47,26.965-28.953,41.251-37.965a87.721,87.721,0,0,1,22.553-10.482c7.749-2.193,14.949-2.6,21.4-1.216a39.759,39.759,0,0,1,10,3.616,48.585,48.585,0,0,1,8.977,6.1,81.51,81.51,0,0,1,15.373,18.185c9.622,14.86,17.4,33.88,23.925,50.542,1.525,3.92,3.052,7.939,4.529,11.825,6.282,16.53,12.779,33.623,20.818,47.773a99.188,99.188,0,0,0,13.481,18.875,63.886,63.886,0,0,0,8.041,7.319,52.758,52.758,0,0,0,9.113,5.585,87.835,87.835,0,0,0,20.572,6.525,151.946,151.946,0,0,0,25.433,2.714,200.81,200.81,0,0,0,28.339-1.292,211.132,211.132,0,0,0,29.3-5.482,174.248,174.248,0,0,0,25.073-8.445,52.757,52.757,0,0,0,13.2-8.217,77.5,77.5,0,0,0,10.97-11.478c6.752-8.528,12.408-18.349,18.4-28.747l.505-.877c3.542-6.186,6.393-10.74,9.247-14.765a76.783,76.783,0,0,1,10.673-12.4c22.291-20.421,44.389-34.011,65.682-40.392a97.751,97.751,0,0,1,24.972-4.161,85.9,85.9,0,0,1,25.474,3.041A95.031,95.031,0,0,1,737.257,199.3a131.875,131.875,0,0,1,25.148,21.133l-.546.514a131.13,131.13,0,0,0-25-21.014,94.284,94.284,0,0,0-25.329-11.389,85.151,85.151,0,0,0-25.252-3.014,97,97,0,0,0-24.78,4.13c-21.183,6.348-43.183,19.882-65.39,40.226a76.06,76.06,0,0,0-10.569,12.275c-2.839,4-5.679,8.54-9.208,14.7l-.506.878c-6,10.422-11.673,20.267-18.459,28.838a78.242,78.242,0,0,1-11.076,11.587A53.491,53.491,0,0,1,532.9,306.5a174.952,174.952,0,0,1-25.18,8.482,211.876,211.876,0,0,1-29.4,5.5,201.533,201.533,0,0,1-28.445,1.3,152.684,152.684,0,0,1-25.56-2.729,88.577,88.577,0,0,1-20.748-6.584,53.508,53.508,0,0,1-9.243-5.664,64.628,64.628,0,0,1-8.136-7.4A99.93,99.93,0,0,1,372.6,280.382c-8.068-14.2-14.574-31.321-20.867-47.877-1.477-3.885-3-7.9-4.527-11.819-6.516-16.627-14.272-35.606-23.856-50.407a80.778,80.778,0,0,0-15.229-18.021,47.832,47.832,0,0,0-8.837-6,39.014,39.014,0,0,0-9.809-3.548c-6.332-1.361-13.41-.955-21.04,1.2a86.981,86.981,0,0,0-22.357,10.4c-14.216,8.968-28.8,22.392-41.065,37.8-8.66,10.837-14.906,26.519-21.519,43.121-4.766,11.964-9.694,24.336-15.959,36.193a148.023,148.023,0,0,1-10.511,17.18,106.542,106.542,0,0,1-13.259,15.337c-7.5,7.081-14.941,13.613-22.125,19.413-7.251,5.854-14.442,11.129-21.373,15.677a189.759,189.759,0,0,1-20.6,11.833,133.189,133.189,0,0,1-19.794,7.878,96.152,96.152,0,0,1-19.332,3.877Q36.976,362.935,33.472,362.935Z" fill="#84d4ff"/><path d="M34,368.783a73.1,73.1,0,0,1-11.5-.893,69.45,69.45,0,0,1-17.768-5.349,78.263,78.263,0,0,1-16.667-10.37l.47-.584a77.511,77.511,0,0,0,16.5,10.271,68.7,68.7,0,0,0,17.576,5.292,74.9,74.9,0,0,0,18.581.552,96.558,96.558,0,0,0,19.516-3.96,135.717,135.717,0,0,0,19.772-7.922A196.676,196.676,0,0,0,101.2,343.946c6.991-4.557,14.281-9.848,21.67-15.725,7.3-5.807,14.914-12.36,22.627-19.475a101.606,101.606,0,0,0,13.55-15.484,141.339,141.339,0,0,0,10.6-17.512c6.28-12.136,11.119-24.839,15.8-37.124,6.365-16.711,12.376-32.5,20.927-43.343a190.8,190.8,0,0,1,19.526-21.29,152.823,152.823,0,0,1,22.141-17.383,87.851,87.851,0,0,1,22.77-10.669c7.809-2.218,15.02-2.591,21.432-1.108A38.732,38.732,0,0,1,302.1,148.6a46.893,46.893,0,0,1,8.738,6.245c5.19,4.646,10,10.7,14.7,18.509,8.909,14.8,15.95,33.582,22.4,51.552,1.041,2.915,2.093,5.893,3.11,8.772,6.178,17.5,12.566,35.586,20.519,50.424a98.484,98.484,0,0,0,13.362,19.63,59.907,59.907,0,0,0,7.989,7.443,47.715,47.715,0,0,0,9.064,5.5,117.007,117.007,0,0,0,20.84,7.033,177.972,177.972,0,0,0,26.125,4.3,182.686,182.686,0,0,0,59.339-4.03,136.08,136.08,0,0,0,25.178-8.71,48.929,48.929,0,0,0,12.133-8.134A74.4,74.4,0,0,0,555.62,295.9c6.149-8.3,11.448-18.164,16.572-27.7.992-1.846,2.018-3.755,3.034-5.624a172.869,172.869,0,0,1,9.032-15.143,73.347,73.347,0,0,1,10.554-12.62,223.113,223.113,0,0,1,31.125-24.463,141.077,141.077,0,0,1,34.769-16.534,98.413,98.413,0,0,1,25.013-4.308,85.7,85.7,0,0,1,25.593,2.925,94.541,94.541,0,0,1,25.721,11.5,131.982,131.982,0,0,1,25.4,21.4l-.547.513a131.227,131.227,0,0,0-25.259-21.281,93.79,93.79,0,0,0-25.517-11.411,84.96,84.96,0,0,0-25.369-2.9,97.661,97.661,0,0,0-24.822,4.276,140.327,140.327,0,0,0-34.582,16.448,222.367,222.367,0,0,0-31.019,24.381,72.608,72.608,0,0,0-10.444,12.493,172.151,172.151,0,0,0-8.993,15.079c-1.016,1.868-2.041,3.776-3.033,5.621-5.137,9.559-10.449,19.445-16.63,27.792a75.128,75.128,0,0,1-10.131,11.339,49.664,49.664,0,0,1-12.317,8.255,136.814,136.814,0,0,1-25.317,8.758,183.438,183.438,0,0,1-59.586,4.048,178.727,178.727,0,0,1-26.235-4.314,117.74,117.74,0,0,1-20.975-7.08,48.457,48.457,0,0,1-9.207-5.585,60.64,60.64,0,0,1-8.09-7.536,99.22,99.22,0,0,1-13.46-19.772c-7.98-14.888-14.378-33.007-20.565-50.528-1.017-2.879-2.068-5.856-3.109-8.769-6.436-17.934-13.462-36.677-22.335-51.418C320.229,166,315.468,160,310.335,155.4a46.146,46.146,0,0,0-8.6-6.145,37.979,37.979,0,0,0-9.663-3.7c-6.287-1.454-13.372-1.084-21.058,1.1a87.106,87.106,0,0,0-22.572,10.58,152.074,152.074,0,0,0-22.031,17.3,190.052,190.052,0,0,0-19.45,21.208c-8.48,10.757-14.471,26.49-20.815,43.146-4.686,12.3-9.532,25.028-15.832,37.2a142.1,142.1,0,0,1-10.66,17.6A102.369,102.369,0,0,1,146,309.3c-7.727,7.128-15.354,13.692-22.669,19.511-7.407,5.892-14.717,11.2-21.727,15.766a197.44,197.44,0,0,1-20.8,11.918,136.441,136.441,0,0,1-19.881,7.966,97.3,97.3,0,0,1-19.668,3.99Q37.6,368.783,34,368.783Z" fill="#84d4ff"/><path d="M34.528,374.632A74.321,74.321,0,0,1,22.051,373.6a72.479,72.479,0,0,1-17.458-5.329,84.343,84.343,0,0,1-16.545-9.941l.455-.6a83.594,83.594,0,0,0,16.4,9.853,71.728,71.728,0,0,0,17.277,5.274,75.341,75.341,0,0,0,18.224.806A94.959,94.959,0,0,0,59.637,370.1a134.228,134.228,0,0,0,20.3-7.836,199.262,199.262,0,0,0,21.421-12.013c7.242-4.632,14.84-10.045,22.583-16.089,7.623-5.95,15.628-12.7,23.793-20.061a97.98,97.98,0,0,0,13.931-15.73,136.212,136.212,0,0,0,10.741-17.922c6.309-12.447,11.058-25.5,15.651-38.116,3.111-8.547,6.05-16.621,9.291-24,3.653-8.315,7.137-14.48,10.965-19.4A191.156,191.156,0,0,1,228,177.272a154.9,154.9,0,0,1,22.4-17.727,88.012,88.012,0,0,1,22.987-10.856c7.869-2.242,15.09-2.579,21.462-1a37.8,37.8,0,0,1,10.115,4.156,46.191,46.191,0,0,1,8.8,6.838c5.147,5.048,9.861,11.641,14.412,20.157a212.072,212.072,0,0,1,11.449,26.275c3.491,9.443,6.8,19.587,10,29.4,6.064,18.591,12.333,37.816,20.2,53.464a98.858,98.858,0,0,0,13.256,20.54,56.441,56.441,0,0,0,7.947,7.613,43.107,43.107,0,0,0,9.027,5.43,178.225,178.225,0,0,0,26.438,8.994,207.474,207.474,0,0,0,34.074,5.92,165.834,165.834,0,0,0,37.38-.753,116.869,116.869,0,0,0,36.363-11.007,45.974,45.974,0,0,0,11.356-8.194,72.441,72.441,0,0,0,9.318-11.225c5.685-8.275,10.5-18,15.163-27.41,3.448-6.96,7.012-14.158,10.862-20.608a78.237,78.237,0,0,1,13.01-16.982c15.074-14.239,30.4-25.391,45.558-33.148a124.933,124.933,0,0,1,25.455-9.848,94.282,94.282,0,0,1,26.575-3.094,85.09,85.09,0,0,1,17.7,2.436,89.763,89.763,0,0,1,17.807,6.509A107.209,107.209,0,0,1,744.886,214.2a141.254,141.254,0,0,1,17.584,16.046l-.548.512a140.5,140.5,0,0,0-17.49-15.961,106.451,106.451,0,0,0-17.642-10.969,89.009,89.009,0,0,0-17.658-6.455,84.331,84.331,0,0,0-17.543-2.415,93.538,93.538,0,0,0-26.364,3.071,124.179,124.179,0,0,0-25.3,9.789c-15.093,7.724-30.362,18.836-45.385,33.025a77.516,77.516,0,0,0-12.881,16.821c-3.835,6.426-7.393,13.609-10.834,20.557-4.671,9.431-9.5,19.182-15.217,27.5a73.182,73.182,0,0,1-9.415,11.34,46.71,46.71,0,0,1-11.54,8.324,117.613,117.613,0,0,1-36.6,11.08,166.579,166.579,0,0,1-37.549.757,208.233,208.233,0,0,1-34.2-5.942,178.991,178.991,0,0,1-26.551-9.034,43.85,43.85,0,0,1-9.185-5.524,57.185,57.185,0,0,1-8.053-7.714,99.591,99.591,0,0,1-13.359-20.694c-7.9-15.7-14.176-34.95-20.248-53.568-3.2-9.8-6.5-19.942-9.989-29.371a211.342,211.342,0,0,0-11.4-26.175c-4.515-8.448-9.185-14.982-14.276-19.975a45.446,45.446,0,0,0-8.657-6.728,37.053,37.053,0,0,0-9.914-4.074c-6.243-1.547-13.334-1.213-21.076.993a87.272,87.272,0,0,0-22.788,10.766,154.146,154.146,0,0,0-22.291,17.641A190.4,190.4,0,0,0,208.91,199.39c-3.789,4.873-7.244,10.989-10.871,19.245-3.231,7.355-6.166,15.418-9.273,23.953-4.6,12.64-9.358,25.711-15.687,38.2a136.958,136.958,0,0,1-10.8,18.02,98.726,98.726,0,0,1-14.038,15.851c-8.178,7.373-16.2,14.134-23.834,20.1-7.762,6.058-15.379,11.485-22.641,16.129a200.033,200.033,0,0,1-21.5,12.059,134.963,134.963,0,0,1-20.419,7.88,95.7,95.7,0,0,1-19.389,3.59Q37.475,374.632,34.528,374.632Z" fill="#84d4ff"/><path d="M38.927,360.514a70.6,70.6,0,0,1-16.611-1.939,69.393,69.393,0,0,1-17.662-7,85.788,85.788,0,0,1-16.617-12.369l.514-.546A85.041,85.041,0,0,0,5.022,350.926a68.643,68.643,0,0,0,17.471,6.92,70.417,70.417,0,0,0,18.514,1.888,90.088,90.088,0,0,0,19.6-2.849,131.659,131.659,0,0,0,20.721-7.3,202.577,202.577,0,0,0,21.86-11.463c7.308-4.38,15.053-9.538,23.018-15.33,7.661-5.571,15.8-11.929,24.2-18.9,21.3-17.685,32.224-42.383,41.861-64.174,3.339-7.55,6.493-14.681,9.875-21.065,3.8-7.177,7.359-12.4,11.2-16.441,11.4-12.01,26.548-27.216,42.549-38.292a118.156,118.156,0,0,1,11.89-7.293,75.574,75.574,0,0,1,11.928-5.134,48.249,48.249,0,0,1,11.741-2.343,34.418,34.418,0,0,1,11.315,1.093,37.5,37.5,0,0,1,9.971,4.406,46.287,46.287,0,0,1,8.616,7.069c5.018,5.185,9.578,11.909,13.941,20.557a214.728,214.728,0,0,1,10.872,26.589c3.285,9.532,6.369,19.743,9.352,29.618,5.729,18.966,11.653,38.578,19.277,54.339a91.9,91.9,0,0,0,12.976,20.506,51.263,51.263,0,0,0,7.891,7.42,39.354,39.354,0,0,0,9.043,5.1,188.048,188.048,0,0,0,27.289,8.275,208.1,208.1,0,0,0,34.188,4.845,161.814,161.814,0,0,0,36.747-1.912A111.466,111.466,0,0,0,537.9,325.08a47.389,47.389,0,0,0,12.022-9.493,62.746,62.746,0,0,0,8.708-12.29c4.954-8.936,8.482-19.29,11.9-29.3a243.718,243.718,0,0,1,8.629-22.814,86.4,86.4,0,0,1,5.57-10.378,58.048,58.048,0,0,1,7.08-9.131,193.824,193.824,0,0,1,20.743-18.81,160.82,160.82,0,0,1,23.3-15.221,125.3,125.3,0,0,1,25.228-10.192,99.407,99.407,0,0,1,26.491-3.713h.033a89.831,89.831,0,0,1,18.774,1.986A92.812,92.812,0,0,1,725.268,192a107.737,107.737,0,0,1,18.754,11.025,138.158,138.158,0,0,1,18.412,16.25l-.542.518a137.425,137.425,0,0,0-18.311-16.162,106.989,106.989,0,0,0-18.623-10.948,92.052,92.052,0,0,0-18.728-6.22,89.106,89.106,0,0,0-18.631-1.972h-.033a98.659,98.659,0,0,0-26.291,3.686A124.561,124.561,0,0,0,636.2,198.3a160.061,160.061,0,0,0-23.19,15.15,193.085,193.085,0,0,0-20.663,18.737,57.3,57.3,0,0,0-6.989,9.014,85.653,85.653,0,0,0-5.522,10.288,243.026,243.026,0,0,0-8.6,22.743c-3.423,10.044-6.963,20.431-11.949,29.425a63.49,63.49,0,0,1-8.813,12.435,48.13,48.13,0,0,1-12.21,9.64,112.213,112.213,0,0,1-35.21,12.06,162.566,162.566,0,0,1-36.918,1.922,208.846,208.846,0,0,1-34.312-4.862,188.794,188.794,0,0,1-27.4-8.309,40.1,40.1,0,0,1-9.216-5.2,52,52,0,0,1-8.008-7.528,92.631,92.631,0,0,1-13.086-20.671c-7.65-15.814-13.583-35.455-19.32-54.449-2.981-9.868-6.063-20.072-9.343-29.591a213.968,213.968,0,0,0-10.832-26.5c-4.328-8.58-8.845-15.244-13.81-20.373a45.537,45.537,0,0,0-8.476-6.955,36.749,36.749,0,0,0-9.771-4.318,33.669,33.669,0,0,0-11.069-1.067,47.5,47.5,0,0,0-11.557,2.308c-7.244,2.346-15.191,6.494-23.622,12.33-15.944,11.036-31.052,26.207-42.432,38.191-3.788,3.989-7.307,9.16-11.076,16.275-3.369,6.361-6.518,13.48-9.852,21.018-9.671,21.866-20.632,46.65-42.068,64.447-8.407,6.979-16.561,13.348-24.235,18.928-7.983,5.8-15.746,10.975-23.074,15.366A203.351,203.351,0,0,1,81.635,350.26,132.4,132.4,0,0,1,60.8,357.6a90.845,90.845,0,0,1-19.767,2.872Q39.975,360.514,38.927,360.514Z" fill="#84d4ff"/><path d="M42.875,346.569q-.64,0-1.275-.011a67.807,67.807,0,0,1-19.017-3A68.461,68.461,0,0,1,4.72,334.892,90.339,90.339,0,0,1-11.967,320.1l.559-.5A89.6,89.6,0,0,0,5.139,334.271a67.706,67.706,0,0,0,17.667,8.567,67.054,67.054,0,0,0,18.807,2.97,86.2,86.2,0,0,0,19.969-2.137A129.571,129.571,0,0,0,82.72,336.9a206.756,206.756,0,0,0,22.3-10.914c14.3-8.016,30.019-18.583,48.053-32.306a121.388,121.388,0,0,0,25.674-27.15c6.843-9.69,12.17-19.446,17.321-28.882,7.367-13.493,13.729-25.146,22.3-32.16,4.616-3.779,9.752-8.471,15.189-13.44,11.3-10.328,24.111-22.033,37.314-30.219,15.321-9.5,28.339-12.454,39.8-9.034a37.163,37.163,0,0,1,9.855,4.632,46.328,46.328,0,0,1,8.456,7.292c4.9,5.322,9.323,12.185,13.51,20.981a217.612,217.612,0,0,1,10.33,26.961c3.09,9.645,5.962,19.947,8.739,29.911,2.693,9.662,5.478,19.653,8.45,29a223.2,223.2,0,0,0,9.85,26.121c3.95,8.512,8.089,15.2,12.653,20.442a46.7,46.7,0,0,0,7.8,7.223,36.065,36.065,0,0,0,9.021,4.777,193.32,193.32,0,0,0,28.134,7.478,208.363,208.363,0,0,0,34.256,3.663,160.229,160.229,0,0,0,36.1-3.086,108.681,108.681,0,0,0,33.662-12.751,48.962,48.962,0,0,0,12.729-10.826,56.272,56.272,0,0,0,8.165-13.378c4.27-9.609,6.551-20.589,8.756-31.208,1.73-8.331,3.52-16.945,6.264-24.944a76.719,76.719,0,0,1,4.984-11.583,55.682,55.682,0,0,1,7.2-10.458,169.123,169.123,0,0,1,19.9-19.283,151.085,151.085,0,0,1,22.834-15.524,125.725,125.725,0,0,1,25.031-10.524,104.182,104.182,0,0,1,26.489-4.279,94.531,94.531,0,0,1,39.7,7.539,108.522,108.522,0,0,1,19.68,10.95A135.366,135.366,0,0,1,762.4,208.293l-.536.525a134.6,134.6,0,0,0-19.064-16.28,107.776,107.776,0,0,0-19.544-10.875,93.788,93.788,0,0,0-39.391-7.48,103.432,103.432,0,0,0-26.3,4.249,124.981,124.981,0,0,0-24.88,10.462,150.323,150.323,0,0,0-22.72,15.447,168.365,168.365,0,0,0-19.814,19.2,54.946,54.946,0,0,0-7.105,10.319,75.982,75.982,0,0,0-4.935,11.471c-2.729,7.955-4.514,16.546-6.239,24.854-2.214,10.658-4.5,21.678-8.8,31.36a57.007,57.007,0,0,1-8.274,13.554,49.7,49.7,0,0,1-12.921,10.989,109.43,109.43,0,0,1-33.894,12.841,160.962,160.962,0,0,1-36.266,3.1,209.125,209.125,0,0,1-34.38-3.676,194.066,194.066,0,0,1-28.245-7.508,36.815,36.815,0,0,1-9.209-4.876,47.464,47.464,0,0,1-7.931-7.339c-4.611-5.3-8.788-12.042-12.768-20.619a223.925,223.925,0,0,1-9.885-26.209c-2.976-9.357-5.763-19.355-8.458-29.024-2.775-9.957-5.645-20.253-8.731-29.884a216.884,216.884,0,0,0-10.293-26.868c-4.154-8.727-8.532-15.529-13.384-20.8a45.581,45.581,0,0,0-8.318-7.175,36.413,36.413,0,0,0-9.656-4.539c-11.241-3.355-24.06-.427-39.188,8.952-13.145,8.15-25.926,19.83-37.2,30.136-5.445,4.975-10.587,9.675-15.22,13.467-8.456,6.921-14.785,18.515-22.115,31.939-4.921,9.014-10.5,19.23-17.367,28.955a122.123,122.123,0,0,1-25.833,27.314c-18.063,13.744-33.81,24.331-48.141,32.364A207.51,207.51,0,0,1,83,337.6a130.321,130.321,0,0,1-21.256,6.8,87.977,87.977,0,0,1-18.869,2.169Z" fill="#84d4ff"/><path d="M474.41,344.228a210.123,210.123,0,0,1-31.576-2.439,195.553,195.553,0,0,1-29.087-6.648,33.927,33.927,0,0,1-9.172-4.561,43.447,43.447,0,0,1-7.831-7.148c-4.531-5.214-8.592-11.933-12.417-20.544a217.877,217.877,0,0,1-9.4-26.452c-2.8-9.48-5.408-19.647-7.926-29.48-5.161-20.148-10.5-40.982-17.921-57.517-3.99-8.887-8.239-15.834-12.989-21.238a45.582,45.582,0,0,0-8.179-7.391,36.063,36.063,0,0,0-9.562-4.745,32.5,32.5,0,0,0-9.031-1.525,37.84,37.84,0,0,0-9.09.909A61.978,61.978,0,0,0,282.1,163.01c-11.994,7.079-23.785,17.654-34.189,26.984-8.784,7.877-17.081,15.318-24.115,19.422-8.9,5.193-15.915,15.382-24.036,27.179a281.989,281.989,0,0,1-17.863,23.973,134.36,134.36,0,0,1-25.721,23.522c-19.248,13.352-34.81,23.023-48.973,30.434-16.66,8.717-31.217,14.17-44.5,16.669a83.867,83.867,0,0,1-20.52,1.437,65.6,65.6,0,0,1-19.32-4.1A69.063,69.063,0,0,1,4.79,318.206a97.175,97.175,0,0,1-16.755-17.218l.594-.458A96.428,96.428,0,0,0,5.253,317.615,68.309,68.309,0,0,0,23.118,327.83a64.847,64.847,0,0,0,19.1,4.052,83.12,83.12,0,0,0,20.336-1.425c13.212-2.485,27.7-7.914,44.294-16.6,14.135-7.4,29.671-17.051,48.893-30.386a133.631,133.631,0,0,0,25.578-23.393,281.408,281.408,0,0,0,17.815-23.911c8.172-11.872,15.23-22.125,24.276-27.4,6.968-4.065,15.237-11.481,23.992-19.332,10.43-9.353,22.251-19.954,34.309-27.072,13.9-8.206,25.96-10.5,36.864-7.013a36.813,36.813,0,0,1,9.761,4.843,46.336,46.336,0,0,1,8.315,7.512c4.8,5.46,9.089,12.469,13.11,21.426,7.45,16.593,12.8,37.459,17.964,57.638,2.517,9.826,5.12,19.987,7.919,29.453a217.146,217.146,0,0,0,9.37,26.36c3.794,8.541,7.816,15.2,12.3,20.356A42.7,42.7,0,0,0,405,329.965a33.176,33.176,0,0,0,8.969,4.461,194.8,194.8,0,0,0,28.973,6.622,208.148,208.148,0,0,0,34.287,2.41,160.272,160.272,0,0,0,35.429-4.266A107.654,107.654,0,0,0,545.07,325.8a54.977,54.977,0,0,0,7.578-5.767,48.559,48.559,0,0,0,5.882-6.424,52.017,52.017,0,0,0,7.667-14.487,88.493,88.493,0,0,0,3.819-16.107c.846-5.565,1.38-11.385,1.9-17.014.824-8.978,1.676-18.261,3.815-27.012a70.653,70.653,0,0,1,4.353-12.777,54.433,54.433,0,0,1,7.286-11.8,152.636,152.636,0,0,1,19.169-19.7A143.721,143.721,0,0,1,628.96,178.9a126.2,126.2,0,0,1,24.851-10.845,108.688,108.688,0,0,1,26.458-4.8,98.59,98.59,0,0,1,41.643,6.792c14.4,5.683,28.014,14.854,40.455,27.259l-.53.531c-12.367-12.332-25.893-21.447-40.2-27.092a97.847,97.847,0,0,0-41.329-6.741,107.94,107.94,0,0,0-26.275,4.77,125.45,125.45,0,0,0-24.7,10.781,142.962,142.962,0,0,0-22.3,15.725,151.892,151.892,0,0,0-19.074,19.6,53.684,53.684,0,0,0-7.186,11.64,69.92,69.92,0,0,0-4.307,12.643c-2.126,8.7-2.975,17.952-3.8,26.9-.518,5.64-1.053,11.472-1.9,17.058a89.217,89.217,0,0,1-3.853,16.243,52.752,52.752,0,0,1-7.777,14.692,49.32,49.32,0,0,1-5.973,6.524,55.723,55.723,0,0,1-7.682,5.846,108.4,108.4,0,0,1-32.632,13.484,161.026,161.026,0,0,1-35.6,4.287Q475.832,344.228,474.41,344.228Z" fill="#84d4ff"/><path d="M472.345,346.559a211.893,211.893,0,0,1-24.007-1.381,194.225,194.225,0,0,1-29.929-5.738,31.379,31.379,0,0,1-9.111-4.257,39.886,39.886,0,0,1-7.712-6.958c-4.439-5.127-8.377-11.816-12.039-20.449a212.9,212.9,0,0,1-8.907-26.657c-2.626-9.588-5.044-19.91-7.383-29.893-4.782-20.412-9.727-41.518-16.856-58.364-3.834-9.059-7.961-16.156-12.618-21.7a45.572,45.572,0,0,0-8.055-7.606,35.722,35.722,0,0,0-9.487-4.941,32.9,32.9,0,0,0-8.994-1.708,36.629,36.629,0,0,0-8.967.718,57.7,57.7,0,0,0-17.7,7.172,132.244,132.244,0,0,0-17.055,12.217c-5.534,4.564-10.856,9.407-16,14.092-5.445,4.956-10.588,9.637-15.4,13.451-5.417,4.293-9.675,6.9-13.4,8.2-4.513,1.577-8.863,4.344-13.69,8.709a191.022,191.022,0,0,0-13.567,14.271c-5.137,5.766-10.959,12.3-17.859,18.833a158.2,158.2,0,0,1-24.8,19.33c-9.812,6.166-17.893,11.068-25.433,15.426-8.912,5.151-16.884,9.429-24.371,13.078-17.229,8.4-32.068,13.492-45.363,15.579a81.445,81.445,0,0,1-20.9.719,64.292,64.292,0,0,1-19.623-5.2A70.827,70.827,0,0,1,4.86,301.518a105.806,105.806,0,0,1-16.823-19.639l.621-.421a105.062,105.062,0,0,0,16.7,19.5,70.087,70.087,0,0,0,18.065,11.863,63.544,63.544,0,0,0,19.394,5.134,80.7,80.7,0,0,0,20.7-.713c13.22-2.074,27.989-7.148,45.15-15.512,17.522-8.539,35.782-19.7,49.733-28.464a157.447,157.447,0,0,0,24.675-19.241c6.877-6.51,12.688-13.033,17.815-18.787a191.492,191.492,0,0,1,13.624-14.328c4.9-4.434,9.335-7.25,13.945-8.861,3.643-1.273,7.832-3.84,13.181-8.079,4.794-3.8,9.927-8.471,15.363-13.418,10.062-9.158,21.467-19.539,33.183-26.4a58.433,58.433,0,0,1,17.933-7.26,37.376,37.376,0,0,1,9.151-.732,33.644,33.644,0,0,1,9.2,1.747,36.47,36.47,0,0,1,9.687,5.044,46.325,46.325,0,0,1,8.189,7.73c4.706,5.6,8.872,12.76,12.735,21.889,7.154,16.9,12.106,38.043,16.9,58.485,2.337,9.976,4.754,20.292,7.376,29.866a212.2,212.2,0,0,0,8.874,26.563c3.631,8.56,7.529,15.184,11.916,20.251a39.14,39.14,0,0,0,7.566,6.828,30.629,30.629,0,0,0,8.893,4.156,193.488,193.488,0,0,0,29.812,5.715,207.427,207.427,0,0,0,34.29,1.107,161.532,161.532,0,0,0,34.749-5.446,107.942,107.942,0,0,0,31.2-13.927,58.849,58.849,0,0,0,8.125-6.506,48.073,48.073,0,0,0,13.276-22.7,82.3,82.3,0,0,0,2.545-17.085c.33-5.879.267-12.017.207-17.954-.1-9.6-.2-19.534,1.315-29.023a67.047,67.047,0,0,1,3.689-13.96,54,54,0,0,1,7.336-13.153,140.907,140.907,0,0,1,18.518-20.063,137.959,137.959,0,0,1,22.045-16.077A126.671,126.671,0,0,1,650.4,158.492a112.94,112.94,0,0,1,26.426-5.293,102.74,102.74,0,0,1,43.515,6.022c15.055,5.535,29.183,14.658,41.992,27.118l-.523.538c-12.733-12.386-26.772-21.454-41.728-26.952a102,102,0,0,0-43.2-5.979,112.188,112.188,0,0,0-26.25,5.258A125.909,125.909,0,0,0,626.1,170.293a137.212,137.212,0,0,0-21.925,15.99,140.17,140.17,0,0,0-18.419,19.956,53.267,53.267,0,0,0-7.235,12.973,66.3,66.3,0,0,0-3.647,13.805c-1.5,9.427-1.4,19.325-1.305,28.9.06,5.949.123,12.1-.208,18a83.029,83.029,0,0,1-2.57,17.241A48.82,48.82,0,0,1,557.3,320.2a59.6,59.6,0,0,1-8.229,6.59,108.687,108.687,0,0,1-31.413,14.026,162.28,162.28,0,0,1-34.911,5.472Q477.6,346.559,472.345,346.559Z" fill="#84d4ff"/><path d="M469.786,349.126c-5.288,0-10.613-.2-15.944-.6a191.068,191.068,0,0,1-30.772-4.786,29.107,29.107,0,0,1-9.03-3.963,36.7,36.7,0,0,1-7.578-6.77c-4.34-5.039-8.148-11.692-11.643-20.338a208.849,208.849,0,0,1-8.4-26.829c-2.446-9.683-4.676-20.147-6.832-30.266-4.411-20.7-8.972-42.1-15.816-59.278-3.682-9.239-7.694-16.493-12.266-22.176a45.567,45.567,0,0,0-7.944-7.821,35.389,35.389,0,0,0-9.428-5.129,36.8,36.8,0,0,0-10.249-2.087,40.735,40.735,0,0,0-10.2.741,54.13,54.13,0,0,0-10.082,3.093,78.513,78.513,0,0,0-9.887,4.97c-13.032,7.673-25.208,18.979-35.951,28.954-9.463,8.786-17.635,16.374-24.026,19.22-9.416,4.192-17.526,10.274-27.794,17.974-10.93,8.2-24.532,18.4-44.5,29.681-16.447,9.293-33.9,19-50.634,26.574a222.107,222.107,0,0,1-23.7,9.3,124.744,124.744,0,0,1-22.523,5.193,79.571,79.571,0,0,1-21.272,0,64.847,64.847,0,0,1-10.138-2.291,63.226,63.226,0,0,1-9.786-4,68.006,68.006,0,0,1-9.419-5.84,80.028,80.028,0,0,1-9.037-7.811,115.944,115.944,0,0,1-16.89-22.059l.642-.388A115.2,115.2,0,0,0,5.471,284.3a79.276,79.276,0,0,0,8.952,7.738,67.25,67.25,0,0,0,9.314,5.775,62.483,62.483,0,0,0,9.67,3.951,64.1,64.1,0,0,0,10.02,2.264,78.836,78.836,0,0,0,21.071,0,124.014,124.014,0,0,0,22.388-5.163,221.385,221.385,0,0,0,23.619-9.264c16.7-7.562,34.143-17.259,50.575-26.543C181,251.8,194.58,241.613,205.5,233.43c10.306-7.728,18.446-13.833,27.939-18.059,6.277-2.795,14.407-10.344,23.82-19.084,10.771-10,22.979-21.336,36.081-29.05a79.271,79.271,0,0,1,9.983-5.017,54.885,54.885,0,0,1,10.222-3.136,41.485,41.485,0,0,1,10.385-.754,37.548,37.548,0,0,1,10.457,2.13,36.136,36.136,0,0,1,9.628,5.237,46.314,46.314,0,0,1,8.076,7.949c4.619,5.742,8.668,13.059,12.378,22.368,6.868,17.234,11.436,38.669,15.853,59.4,2.155,10.113,4.383,20.569,6.826,30.239a208.122,208.122,0,0,0,8.368,26.731c3.463,8.569,7.23,15.153,11.515,20.13a35.959,35.959,0,0,0,7.422,6.633,28.358,28.358,0,0,0,8.8,3.861,190.3,190.3,0,0,0,30.649,4.767,206.145,206.145,0,0,0,34.27-.23,163.709,163.709,0,0,0,34.059-6.622,109.308,109.308,0,0,0,30.02-14.394,62.812,62.812,0,0,0,8.67-7.265,49.742,49.742,0,0,0,6.274-7.755,47.65,47.65,0,0,0,6.754-16.761,78.868,78.868,0,0,0,1.3-18.069c-.176-6.193-.824-12.648-1.452-18.89-1.026-10.211-2.087-20.769-1.215-30.984a65.066,65.066,0,0,1,3-15.131,54.186,54.186,0,0,1,7.355-14.514,133.132,133.132,0,0,1,39.628-36.73,127.09,127.09,0,0,1,24.515-11.455,116.951,116.951,0,0,1,26.385-5.756,106.986,106.986,0,0,1,45.34,5.232c15.693,5.372,30.324,14.427,43.488,26.914l-.516.544C748.688,163.5,734.148,154.5,718.558,149.16a105.677,105.677,0,0,0-34.363-5.717q-5.305,0-10.662.522a116.2,116.2,0,0,0-26.216,5.719,126.337,126.337,0,0,0-24.37,11.387,132.384,132.384,0,0,0-39.4,36.522,53.446,53.446,0,0,0-7.255,14.316,64.328,64.328,0,0,0-2.966,14.959c-.867,10.146.191,20.669,1.214,30.845.629,6.255,1.279,12.723,1.455,18.944A79.6,79.6,0,0,1,574.68,294.9a48.386,48.386,0,0,1-6.861,17.02,50.49,50.49,0,0,1-6.368,7.872,63.559,63.559,0,0,1-8.774,7.352,110.053,110.053,0,0,1-30.226,14.5,164.465,164.465,0,0,1-34.215,6.653C482.172,348.847,476,349.126,469.786,349.126Z" fill="#84d4ff"/><path d="M467.03,351.967q-3.838,0-7.684-.141a184.2,184.2,0,0,1-31.615-3.793,27.084,27.084,0,0,1-8.934-3.68,33.85,33.85,0,0,1-7.433-6.586c-4.234-4.952-7.908-11.564-11.232-20.214a205.5,205.5,0,0,1-7.886-26.97c-2.265-9.767-4.3-20.359-6.276-30.6-8.142-42.294-16.562-86.028-43.942-96.262-12.31-4.6-25.473-2.639-40.241,6-12.826,7.5-24.8,18.791-35.363,28.75-10.984,10.355-20.47,19.3-27.758,20.926a115.261,115.261,0,0,0-22.488,7.56c-7.486,3.329-15.526,7.561-25.7,12.919-7.5,3.951-16.01,8.428-26.383,13.652l-3.945,1.987c-17.577,8.857-34.18,17.223-50.257,23.79a214.715,214.715,0,0,1-23.576,8.231,118.579,118.579,0,0,1-22.417,4.18,83.693,83.693,0,0,1-10.744.191,70.322,70.322,0,0,1-10.416-1.28,63.257,63.257,0,0,1-19.782-7.579,70.937,70.937,0,0,1-9.329-6.6A85.783,85.783,0,0,1,4.7,267.785,128.075,128.075,0,0,1-11.939,243.67l.658-.359a127.331,127.331,0,0,0,16.529,23.97,85.013,85.013,0,0,0,8.854,8.587,70.166,70.166,0,0,0,9.23,6.527,62.506,62.506,0,0,0,19.549,7.49,69.579,69.579,0,0,0,10.3,1.266,82.953,82.953,0,0,0,10.647-.189A117.845,117.845,0,0,0,86.1,286.807a214,214,0,0,0,23.494-8.2c16.05-6.555,32.64-14.915,50.2-23.765l3.945-1.987c10.367-5.221,18.87-9.7,26.371-13.646,10.191-5.365,18.24-9.6,25.749-12.941a115.986,115.986,0,0,1,22.63-7.607c7.087-1.583,16.5-10.46,27.407-20.739,10.593-9.987,22.6-21.306,35.5-28.852a74.465,74.465,0,0,1,9.848-4.875,52.362,52.362,0,0,1,10.136-2.965,40.835,40.835,0,0,1,10.368-.558,38.6,38.6,0,0,1,10.53,2.344c27.775,10.382,36.235,54.326,44.416,96.823,1.971,10.237,4.009,20.823,6.27,30.576a204.808,204.808,0,0,0,7.856,26.871c3.293,8.569,6.924,15.11,11.1,20a33.1,33.1,0,0,0,7.267,6.441,26.335,26.335,0,0,0,8.688,3.579,183.444,183.444,0,0,0,31.486,3.777,204.325,204.325,0,0,0,34.232-1.591c25.014-3.311,46.533-11.125,62.23-22.6a66.853,66.853,0,0,0,9.208-8.042,50.85,50.85,0,0,0,6.471-8.442,46.8,46.8,0,0,0,6.323-17.924,77.331,77.331,0,0,0,.083-19.058c-.672-6.507-1.9-13.275-3.084-19.82-3.945-21.775-8.024-44.291,5.885-65.074a125.543,125.543,0,0,1,17.4-20.7,129.479,129.479,0,0,1,21.368-16.579A127.472,127.472,0,0,1,643.833,139.5a120.728,120.728,0,0,1,26.335-6.2,113.894,113.894,0,0,1,23.518-.342,110.723,110.723,0,0,1,23.615,4.763,119.547,119.547,0,0,1,44.957,26.66l-.509.551a118.8,118.8,0,0,0-44.676-26.5,109.969,109.969,0,0,0-23.455-4.731,113.141,113.141,0,0,0-23.362.34,119.962,119.962,0,0,0-26.171,6.157,126.72,126.72,0,0,0-24.2,11.675,128.727,128.727,0,0,0-21.244,16.483,124.8,124.8,0,0,0-17.291,20.579A54.116,54.116,0,0,0,574.1,204.6a63.537,63.537,0,0,0-2.267,16.1c-.222,10.855,1.795,21.987,3.745,32.752,1.188,6.559,2.417,13.341,3.092,19.876a78.064,78.064,0,0,1-.087,19.243,47.531,47.531,0,0,1-6.424,18.206,51.6,51.6,0,0,1-6.567,8.567,67.594,67.594,0,0,1-9.312,8.133c-15.8,11.545-37.437,19.406-62.575,22.734a203.62,203.62,0,0,1-26.677,1.754Z" fill="#84d4ff"/><path d="M464.449,355.1a179.752,179.752,0,0,1-32.057-2.769,25.271,25.271,0,0,1-8.827-3.408,31.266,31.266,0,0,1-7.28-6.4c-4.124-4.864-7.661-11.431-10.811-20.079a202.767,202.767,0,0,1-7.368-27.085c-2.082-9.84-3.93-20.55-5.716-30.907-3.68-21.33-7.485-43.386-13.777-61.259-3.388-9.623-7.181-17.2-11.6-23.174a45.582,45.582,0,0,0-7.749-8.253,34.772,34.772,0,0,0-9.345-5.493c-26.987-10.512-52.55,14.548-73.09,34.684-6.7,6.569-13.03,12.774-18.593,16.886-6.254,4.623-10.951,6.166-14.781,4.856a45.955,45.955,0,0,0-13.256-2.6,44.776,44.776,0,0,0-12.672,1.43c-8.667,2.164-18.336,6.721-30.577,12.491-5.917,2.789-12.624,5.95-20.225,9.323-4.519,2-9.06,4.048-13.45,6.023-16.85,7.583-32.766,14.745-48.21,20.151a187.2,187.2,0,0,1-22.66,6.526,105.819,105.819,0,0,1-21.56,2.541A71.694,71.694,0,0,1,40.5,275.9a63.566,63.566,0,0,1-9.68-3.67A66.305,66.305,0,0,1,21.5,266.8a76.022,76.022,0,0,1-8.951-7.334,94.092,94.092,0,0,1-8.562-9.386,142.687,142.687,0,0,1-15.906-25.519l.672-.334a141.949,141.949,0,0,0,15.82,25.384,93.365,93.365,0,0,0,8.493,9.311,75.262,75.262,0,0,0,8.862,7.261,65.563,65.563,0,0,0,9.218,5.367,62.811,62.811,0,0,0,9.565,3.627,70.94,70.94,0,0,0,20.138,2.639A105.088,105.088,0,0,0,82.25,275.3a186.433,186.433,0,0,0,22.569-6.5c15.413-5.4,31.315-12.551,48.15-20.127,4.392-1.976,8.933-4.02,13.454-6.025,7.593-3.369,14.3-6.528,20.209-9.316,12.278-5.787,21.976-10.358,30.715-12.54a45.509,45.509,0,0,1,12.882-1.452,46.689,46.689,0,0,1,13.471,2.643c3.576,1.224,8.055-.285,14.093-4.749,5.521-4.081,11.832-10.268,18.513-16.818,10.26-10.058,21.889-21.458,34.325-28.976,14.407-8.709,27.348-10.63,39.563-5.872a35.524,35.524,0,0,1,9.546,5.61,46.335,46.335,0,0,1,7.878,8.389c4.46,6.031,8.288,13.676,11.7,23.371,6.313,17.932,10.124,40.02,13.809,61.38,1.786,10.35,3.632,21.053,5.711,30.879a202.042,202.042,0,0,0,7.339,26.983c3.12,8.563,6.613,15.056,10.679,19.851a30.523,30.523,0,0,0,7.1,6.252,24.525,24.525,0,0,0,8.566,3.307c20.543,3.75,44.16,3.672,66.5-.218a170.163,170.163,0,0,0,32.653-8.949,114.976,114.976,0,0,0,27.747-15.172,70.989,70.989,0,0,0,9.737-8.84,52.227,52.227,0,0,0,6.666-9.144,46.538,46.538,0,0,0,5.9-19.105,77.12,77.12,0,0,0-1.116-20.05c-1.161-6.82-2.956-13.9-4.692-20.742-5.821-22.951-11.84-46.682,2.589-69.47,19.236-30.381,52.281-51.48,88.394-56.44a118.688,118.688,0,0,1,24.4-.831,114.837,114.837,0,0,1,24.51,4.422,119.893,119.893,0,0,1,46.412,26.363l-.5.557a119.151,119.151,0,0,0-46.123-26.2,114.086,114.086,0,0,0-24.35-4.393,117.929,117.929,0,0,0-24.241.826A123.5,123.5,0,0,0,640.9,130.78a127.028,127.028,0,0,0-24.033,11.954,125.511,125.511,0,0,0-20.926,16.714A119.592,119.592,0,0,0,579.143,180.3a57.359,57.359,0,0,0-4.437,8.479,55.028,55.028,0,0,0-2.782,8.545,63.6,63.6,0,0,0-1.556,17.24c.428,11.555,3.4,23.281,6.278,34.62,1.74,6.859,3.539,13.951,4.7,20.8a77.852,77.852,0,0,1,1.123,20.245,47.273,47.273,0,0,1-5.994,19.407,52.994,52.994,0,0,1-6.761,9.276,71.736,71.736,0,0,1-9.84,8.934,115.722,115.722,0,0,1-27.927,15.274,170.9,170.9,0,0,1-32.8,8.989A203.592,203.592,0,0,1,464.449,355.1Z" fill="#84d4ff"/><path d="M462.534,358.48a169.582,169.582,0,0,1-25.483-1.858,23.644,23.644,0,0,1-8.711-3.146,28.935,28.935,0,0,1-7.121-6.227c-4.011-4.776-7.408-11.3-10.385-19.934a197.75,197.75,0,0,1-6.848-27.174c-1.9-9.9-3.48-20.238-5.155-31.18-3.315-21.666-6.743-44.07-12.764-62.309-3.243-9.825-6.93-17.575-11.272-23.692a45.613,45.613,0,0,0-7.662-8.472,34.5,34.5,0,0,0-9.317-5.671c-12.549-5.075-25.78-3.185-40.449,5.779-12.75,7.791-24.562,19.641-34.983,30.1-6.941,6.964-13.5,13.542-19.159,17.661a25.866,25.866,0,0,1-7.973,4.244,8.562,8.562,0,0,1-6.867-.626,59.252,59.252,0,0,0-16.893-6.9,46.561,46.561,0,0,0-16.642-.5c-11.914,1.619-26,7.046-45.485,14.558-7.1,2.737-14.2,5.6-21.063,8.359-32.195,12.968-62.6,25.216-89.729,23.58a73.188,73.188,0,0,1-10.038-1.292,65.682,65.682,0,0,1-9.724-2.749,64.435,64.435,0,0,1-9.391-4.361,69.59,69.59,0,0,1-9.038-6.122A91.953,91.953,0,0,1,3.436,232.43a158.5,158.5,0,0,1-15.349-26.963l.682-.312A157.764,157.764,0,0,0,4.043,231.99,91.211,91.211,0,0,0,20.85,249.968a68.838,68.838,0,0,0,8.94,6.056,63.69,63.69,0,0,0,9.281,4.31,68.257,68.257,0,0,0,19.547,4c26.956,1.626,57.289-10.592,89.4-23.527,6.866-2.765,13.965-5.625,21.074-8.363,19.537-7.53,33.653-12.971,45.653-14.6a47.288,47.288,0,0,1,16.9.506,59.987,59.987,0,0,1,17.108,6.978c3.469,2,7.926.862,14.025-3.575,5.613-4.083,12.149-10.641,19.069-17.584,10.451-10.485,22.3-22.37,35.123-30.207a70.213,70.213,0,0,1,9.816-5.042,49.2,49.2,0,0,1,10.158-3,38.954,38.954,0,0,1,10.455-.439,38.327,38.327,0,0,1,10.7,2.639,35.241,35.241,0,0,1,9.52,5.793,46.366,46.366,0,0,1,7.789,8.611c4.386,6.179,8.106,13.994,11.373,23.891,6.04,18.3,9.473,40.734,12.793,62.431,1.673,10.935,3.254,21.263,5.15,31.152a197.03,197.03,0,0,0,6.82,27.071c2.946,8.549,6.3,14.992,10.25,19.7a28.184,28.184,0,0,0,6.934,6.068,22.9,22.9,0,0,0,8.437,3.047,174.084,174.084,0,0,0,33.155,1.69,199.423,199.423,0,0,0,34.114-4.361,174.153,174.153,0,0,0,31.941-10.1,119.276,119.276,0,0,0,26.641-15.5,75.236,75.236,0,0,0,10.252-9.659,53.87,53.87,0,0,0,6.854-9.863,46.752,46.752,0,0,0,5.479-20.3,77.886,77.886,0,0,0-2.3-21.045c-1.643-7.132-4-14.516-6.277-21.657-7.688-24.094-15.637-49.009-.73-73.816a116.222,116.222,0,0,1,16.435-21.25,123.517,123.517,0,0,1,20.743-17.039,127.939,127.939,0,0,1,50.182-19.314,123.457,123.457,0,0,1,25.264-1.329A118.086,118.086,0,0,1,739.026,126.3a124.924,124.924,0,0,1,23.159,16.137l-.495.564a124.168,124.168,0,0,0-23.02-16.04,117.332,117.332,0,0,0-49.788-13.875,122.7,122.7,0,0,0-25.111,1.321,127.191,127.191,0,0,0-49.887,19.2,122.76,122.76,0,0,0-20.617,16.935,115.473,115.473,0,0,0-16.329,21.112,59.2,59.2,0,0,0-4.508,9.194,55.981,55.981,0,0,0-2.657,9.192,64.268,64.268,0,0,0-.836,18.367c1.081,12.245,5.007,24.55,8.8,36.449,2.283,7.156,4.644,14.555,6.293,21.717a78.617,78.617,0,0,1,2.316,21.248,47.485,47.485,0,0,1-5.567,20.623,54.617,54.617,0,0,1-6.949,10,76,76,0,0,1-10.35,9.756,120.026,120.026,0,0,1-26.808,15.6,174.9,174.9,0,0,1-32.079,10.14,200.176,200.176,0,0,1-34.242,4.377Q466.41,358.48,462.534,358.48Z" fill="#84d4ff"/><path d="M461.418,362.092a161.553,161.553,0,0,1-19.706-1.175c-25.129-3.092-30.615-44.042-36.424-87.4-2.949-22.014-6-44.777-11.748-63.393-3.1-10.032-6.68-17.955-10.952-24.222a45.659,45.659,0,0,0-7.58-8.693,34.236,34.236,0,0,0-9.3-5.848c-13.113-5.49-26.836-3.619-41.954,5.719-13.12,8.1-25.139,20.446-35.743,31.335-7.485,7.686-13.95,14.324-19.72,18.454a21.762,21.762,0,0,1-8.1,3.984,8.732,8.732,0,0,1-3.614,0,7.857,7.857,0,0,1-3.252-1.613,80.587,80.587,0,0,0-17.365-11.268,48.04,48.04,0,0,0-17.3-4.338,75.855,75.855,0,0,0-20.314,1.875A249.144,249.144,0,0,0,172,222.946c-9.251,3.04-18.461,6.36-27.367,9.571-31.5,11.357-61.251,22.085-87.794,18.835a70.709,70.709,0,0,1-9.82-1.9,65.362,65.362,0,0,1-9.507-3.374,66.224,66.224,0,0,1-9.174-5,73.625,73.625,0,0,1-8.82-6.778A100.276,100.276,0,0,1,3.01,214.8,175.413,175.413,0,0,1-11.9,186.367l.691-.292A174.655,174.655,0,0,0,3.635,214.389,99.529,99.529,0,0,0,20.02,233.74a72.866,72.866,0,0,0,8.73,6.708,65.453,65.453,0,0,0,9.069,4.943,64.6,64.6,0,0,0,9.4,3.335,69.93,69.93,0,0,0,9.715,1.883c26.365,3.227,56.036-7.47,87.448-18.8,8.911-3.213,18.125-6.535,27.387-9.578A249.835,249.835,0,0,1,198.2,214.78a76.574,76.574,0,0,1,20.513-1.889,48.775,48.775,0,0,1,17.564,4.4A81.3,81.3,0,0,1,253.8,228.666c3.414,2.779,7.879,2.016,14.054-2.4,5.716-4.091,12.159-10.706,19.62-18.367,10.635-10.92,22.688-23.3,35.887-31.449a70.45,70.45,0,0,1,10.12-5.232,49.548,49.548,0,0,1,10.511-3.079A38.94,38.94,0,0,1,366,170.674a34.982,34.982,0,0,1,9.5,5.975,46.406,46.406,0,0,1,7.706,8.836c4.314,6.329,7.928,14.318,11.049,24.423,5.767,18.675,8.821,41.47,11.775,63.514,5.769,43.059,11.218,83.73,35.772,86.752a169.633,169.633,0,0,0,33.985.592,196.562,196.562,0,0,0,34.037-5.76,178.5,178.5,0,0,0,31.227-11.229,124.654,124.654,0,0,0,25.554-15.8,79.607,79.607,0,0,0,10.75-10.5,55.731,55.731,0,0,0,7.033-10.6,47.347,47.347,0,0,0,5.058-21.522,64.763,64.763,0,0,0-.925-10.953,99.618,99.618,0,0,0-2.539-11.087c-2.118-7.441-5.027-15.128-7.84-22.561-9.54-25.207-19.406-51.272-4.059-78.112a112.909,112.909,0,0,1,16-21.5,121.142,121.142,0,0,1,20.44-17.255,128.121,128.121,0,0,1,23.8-12.558,130.555,130.555,0,0,1,26.092-7.4,128.171,128.171,0,0,1,26.128-1.837,123.609,123.609,0,0,1,26.3,3.709,120.849,120.849,0,0,1,25.519,9.658,124.172,124.172,0,0,1,23.792,16.009l-.487.57a123.426,123.426,0,0,0-23.648-15.912,120.086,120.086,0,0,0-25.36-9.6,122.857,122.857,0,0,0-26.137-3.687,127.416,127.416,0,0,0-25.975,1.826,129.806,129.806,0,0,0-25.942,7.362,127.374,127.374,0,0,0-23.664,12.484,120.381,120.381,0,0,0-20.313,17.148,112.167,112.167,0,0,0-15.891,21.353,61.212,61.212,0,0,0-4.568,9.912,57.231,57.231,0,0,0-2.525,9.839,65.411,65.411,0,0,0-.11,19.484c1.733,12.925,6.6,25.794,11.314,38.24,2.819,7.448,5.734,15.15,7.86,22.622a100.379,100.379,0,0,1,2.558,11.171,65.514,65.514,0,0,1,.935,11.079,48.079,48.079,0,0,1-5.138,21.855,56.479,56.479,0,0,1-7.127,10.742,80.34,80.34,0,0,1-10.852,10.6,125.4,125.4,0,0,1-25.707,15.9,179.249,179.249,0,0,1-31.358,11.277,197.293,197.293,0,0,1-34.168,5.782Q468.535,362.092,461.418,362.092Z" fill="#84d4ff"/><path d="M460.972,365.887q-7.439,0-14.6-.676a20.87,20.87,0,0,1-8.465-2.653,24.869,24.869,0,0,1-6.794-5.884c-3.78-4.6-6.9-11.021-9.525-19.622-4.884-15.981-7.291-36.844-9.839-58.931-2.581-22.37-5.249-45.5-10.725-64.5-2.952-10.244-6.43-18.344-10.632-24.762a45.728,45.728,0,0,0-7.5-8.916,34,34,0,0,0-9.284-6.024,40.637,40.637,0,0,0-11.384-3.1,39.616,39.616,0,0,0-11.042.284,49.074,49.074,0,0,0-10.685,3.1,69.858,69.858,0,0,0-10.3,5.363c-13.471,8.416-25.689,21.258-36.469,32.589-5.872,6.172-11.419,12-16.34,16.188-5.506,4.685-9.709,6.867-13.223,6.867h-.012a7.9,7.9,0,0,1-5.867-2.682,109.271,109.271,0,0,0-17.711-15.644,54.532,54.532,0,0,0-17.981-8.187,64.113,64.113,0,0,0-21.049-1.233,156.323,156.323,0,0,0-26.91,5.291c-11.078,3.029-22.081,6.575-32.72,10-31.008,9.992-60.3,19.43-86.412,14.715a69.321,69.321,0,0,1-9.659-2.463,65.9,65.9,0,0,1-9.345-3.954,68.715,68.715,0,0,1-9.009-5.6,78.314,78.314,0,0,1-8.653-7.406A109.29,109.29,0,0,1,2.669,197.2a193.307,193.307,0,0,1-14.551-29.931l.7-.274A192.554,192.554,0,0,0,3.309,196.809a108.546,108.546,0,0,0,16.056,20.7,77.55,77.55,0,0,0,8.57,7.335,67.948,67.948,0,0,0,8.911,5.541,65.137,65.137,0,0,0,9.238,3.909,68.56,68.56,0,0,0,9.555,2.436,81.361,81.361,0,0,0,14.478,1.238c22.144,0,46.282-7.779,71.571-15.928,10.648-3.431,21.658-6.979,32.753-10.013a157.04,157.04,0,0,1,27.041-5.315,64.841,64.841,0,0,1,21.293,1.251,55.267,55.267,0,0,1,18.226,8.3,109.982,109.982,0,0,1,17.834,15.749,7.088,7.088,0,0,0,5.323,2.447h.011c3.326,0,7.373-2.126,12.736-6.689,4.89-4.161,10.424-9.977,16.282-16.134C304,200.272,316.252,187.393,329.8,178.927a70.61,70.61,0,0,1,10.408-5.42,49.817,49.817,0,0,1,10.849-3.151,40.365,40.365,0,0,1,11.251-.289,41.385,41.385,0,0,1,11.594,3.161,34.743,34.743,0,0,1,9.489,6.156,46.471,46.471,0,0,1,7.626,9.062c4.244,6.481,7.753,14.647,10.726,24.965,5.493,19.061,8.165,42.224,10.749,64.625,2.544,22.053,4.947,42.882,9.812,58.8,2.6,8.505,5.67,14.84,9.387,19.365a24.128,24.128,0,0,0,6.587,5.709,20.127,20.127,0,0,0,8.163,2.558,165.6,165.6,0,0,0,34.811-.539,193.5,193.5,0,0,0,33.952-7.164c21.641-6.624,41.171-16.72,54.99-28.429a84.076,84.076,0,0,0,11.229-11.37,57.8,57.8,0,0,0,7.2-11.353,48.267,48.267,0,0,0,4.632-22.76,66.2,66.2,0,0,0-1.433-11.473,102.629,102.629,0,0,0-3.186-11.565c-2.586-7.749-6.04-15.733-9.38-23.455-11.373-26.288-23.132-53.471-7.385-82.353a110.263,110.263,0,0,1,15.581-21.727,119.052,119.052,0,0,1,20.138-17.463A128.166,128.166,0,0,1,631.192,102a133.231,133.231,0,0,1,52.964-10.13,128.243,128.243,0,0,1,27.193,3.339,122.909,122.909,0,0,1,50.765,25.275l-.479.577a122.159,122.159,0,0,0-50.456-25.122,127.492,127.492,0,0,0-27.034-3.319,132.479,132.479,0,0,0-52.665,10.074,127.4,127.4,0,0,0-23.463,12.737,118.31,118.31,0,0,0-20.011,17.353,109.505,109.505,0,0,0-15.475,21.579,63.445,63.445,0,0,0-4.616,10.632,58.712,58.712,0,0,0-2.387,10.483,66.909,66.909,0,0,0,.617,20.59c2.382,13.6,8.187,27.014,13.8,39.991,3.347,7.736,6.807,15.735,9.4,23.515a103.351,103.351,0,0,1,3.209,11.649,66.937,66.937,0,0,1,1.448,11.6,51.738,51.738,0,0,1-.893,11.569,48.828,48.828,0,0,1-3.811,11.536,58.548,58.548,0,0,1-7.292,11.5A84.817,84.817,0,0,1,570.681,328.9c-13.9,11.773-33.519,21.921-55.256,28.574a194.263,194.263,0,0,1-34.084,7.192,174.7,174.7,0,0,1-20.369,1.221Z" fill="#84d4ff"/><path d="M461.027,369.834q-5.052,0-9.995-.329a19.685,19.685,0,0,1-8.337-2.42,23.1,23.1,0,0,1-6.629-5.718c-3.665-4.516-6.64-10.88-9.1-19.455-4.564-15.937-6.6-36.929-8.762-59.153-2.208-22.735-4.491-46.243-9.692-65.638-2.8-10.461-6.178-18.741-10.312-25.312a45.8,45.8,0,0,0-7.425-9.143,33.776,33.776,0,0,0-9.277-6.2,42.144,42.144,0,0,0-11.823-3.363,40.264,40.264,0,0,0-11.422.208,49.3,49.3,0,0,0-11.012,3.177,70.016,70.016,0,0,0-10.576,5.553c-13.812,8.734-26.228,22.091-37.182,33.876-5.957,6.409-11.584,12.463-16.557,16.755-5.57,4.807-9.815,6.969-13.362,6.8a7.383,7.383,0,0,1-3.355-.979,10.173,10.173,0,0,1-2.953-2.686,144.359,144.359,0,0,0-17.978-19.986,65.394,65.394,0,0,0-18.678-12.05,60.179,60.179,0,0,0-21.835-4.357c-8-.192-17,.837-27.494,3.146-12.665,2.783-25.225,6.389-37.372,9.876-30.666,8.8-59.631,17.118-85.437,11.043a68.833,68.833,0,0,1-9.541-2.986,67.124,67.124,0,0,1-9.224-4.5,71.768,71.768,0,0,1-8.884-6.18,83.58,83.58,0,0,1-8.524-8.016,118.954,118.954,0,0,1-15.9-22.178A212.158,212.158,0,0,1-11.87,148.176l.7-.258A211.422,211.422,0,0,0,3.046,179.244a118.211,118.211,0,0,0,15.8,22.038,76.5,76.5,0,0,0,17.238,14.06,66.387,66.387,0,0,0,9.12,4.452,68.068,68.068,0,0,0,9.437,2.953,81.854,81.854,0,0,0,18.815,2.059c20.637,0,42.945-6.4,66.243-13.093,12.158-3.49,24.73-7.1,37.418-9.887,10.558-2.322,19.61-3.356,27.673-3.163a60.913,60.913,0,0,1,22.1,4.414,66.129,66.129,0,0,1,18.89,12.183,145.088,145.088,0,0,1,18.074,20.09,7.567,7.567,0,0,0,5.749,3.372c3.343.158,7.421-1.945,12.837-6.619,4.941-4.265,10.555-10.3,16.5-16.7,10.985-11.818,23.436-25.214,37.331-34a70.754,70.754,0,0,1,10.69-5.612,50.059,50.059,0,0,1,11.181-3.225,41.016,41.016,0,0,1,11.635-.211,42.9,42.9,0,0,1,12.034,3.422,34.523,34.523,0,0,1,9.483,6.337,46.55,46.55,0,0,1,7.548,9.292c4.175,6.636,7.577,14.983,10.4,25.518,5.216,19.454,7.5,42.994,9.714,65.759,2.155,22.189,4.191,43.148,8.737,59.019,2.428,8.476,5.357,14.753,8.957,19.189a22.35,22.35,0,0,0,6.412,5.535,18.938,18.938,0,0,0,8.022,2.327c22.169,1.48,46.2-2.074,69.49-10.277a187.59,187.59,0,0,0,29.79-13.452,139.1,139.1,0,0,0,23.425-16.335,88.677,88.677,0,0,0,11.683-12.266,60.078,60.078,0,0,0,7.35-12.127,49.482,49.482,0,0,0,4.2-24.019,68.054,68.054,0,0,0-1.936-12,106.159,106.159,0,0,0-3.826-12.04c-3.048-8.055-7.039-16.331-10.9-24.336-6.525-13.535-13.273-27.53-16.318-41.871a69.423,69.423,0,0,1-1.355-21.918,61.182,61.182,0,0,1,2.271-11.265,66.573,66.573,0,0,1,4.707-11.484,108.125,108.125,0,0,1,15.183-21.943,117.233,117.233,0,0,1,19.836-17.662A128.1,128.1,0,0,1,628.073,92.7a135.8,135.8,0,0,1,25.843-8.133,137.342,137.342,0,0,1,27.845-2.886h.1a133.04,133.04,0,0,1,27.993,2.96A126.664,126.664,0,0,1,737.021,93.8a123.463,123.463,0,0,1,25.061,15.7l-.471.583a122.712,122.712,0,0,0-24.911-15.6,125.912,125.912,0,0,0-27.006-9.1,132.3,132.3,0,0,0-27.836-2.944h-.1a136.588,136.588,0,0,0-27.693,2.87,135.054,135.054,0,0,0-25.7,8.088,127.344,127.344,0,0,0-23.251,12.982A116.491,116.491,0,0,0,585.4,123.927a107.373,107.373,0,0,0-15.077,21.79,65.81,65.81,0,0,0-4.654,11.354,60.438,60.438,0,0,0-2.243,11.127,68.688,68.688,0,0,0,1.343,21.684c3.026,14.253,9.754,28.207,16.26,41.7,3.866,8.019,7.864,16.311,10.924,24.4a106.907,106.907,0,0,1,3.852,12.125,68.787,68.787,0,0,1,1.957,12.127A52.966,52.966,0,0,1,597.2,292.4a50.154,50.154,0,0,1-3.7,12.213,60.828,60.828,0,0,1-7.442,12.279,89.426,89.426,0,0,1-11.781,12.371,139.846,139.846,0,0,1-23.551,16.425,188.327,188.327,0,0,1-29.909,13.506,181.591,181.591,0,0,1-59.791,10.645Z" fill="#84d4ff"/><path d="M461.485,373.913q-2.913,0-5.793-.114a18.62,18.62,0,0,1-8.21-2.2,21.468,21.468,0,0,1-6.465-5.556c-3.549-4.431-6.385-10.739-8.67-19.283-4.247-15.885-5.92-36.991-7.69-59.337-1.831-23.105-3.724-47-8.645-66.792-2.656-10.682-5.923-19.145-9.99-25.872a45.9,45.9,0,0,0-7.35-9.371,33.569,33.569,0,0,0-9.273-6.377,43.643,43.643,0,0,0-12.261-3.626,40.9,40.9,0,0,0-11.8.131A49.559,49.559,0,0,0,354,178.774a70.225,70.225,0,0,0-10.854,5.749c-14.154,9.061-26.77,22.95-37.9,35.2-6.029,6.637-11.723,12.906-16.742,17.307-5.62,4.929-9.9,7.087-13.483,6.79a7.413,7.413,0,0,1-3.633-1.318,11.909,11.909,0,0,1-3.15-3.415,180.212,180.212,0,0,0-18.2-24.287,79.92,79.92,0,0,0-19.376-15.923,61.123,61.123,0,0,0-22.662-7.5c-8.376-1.1-17.566-.775-28.093.989-14.066,2.355-28.006,5.9-41.487,9.333-21.546,5.483-42.25,10.752-61.581,10.752A83.452,83.452,0,0,1,53.652,209.4a68.192,68.192,0,0,1-18.588-8.5A81.845,81.845,0,0,1,17.85,185.549a129.2,129.2,0,0,1-15.683-23.5A231.916,231.916,0,0,1-11.85,129.075l.709-.244A231.143,231.143,0,0,0,2.83,161.693a128.455,128.455,0,0,0,15.59,23.364,81.1,81.1,0,0,0,17.054,15.211,67.442,67.442,0,0,0,18.385,8.415A82.733,82.733,0,0,0,76.84,211.7c19.247,0,39.9-5.256,61.4-10.727,13.5-3.435,27.452-6.986,41.548-9.346,10.6-1.777,19.864-2.1,28.315-.993a61.859,61.859,0,0,1,22.924,7.6A80.654,80.654,0,0,1,250.585,214.3a180.926,180.926,0,0,1,18.282,24.388c1.774,2.755,3.806,4.191,6.214,4.391,3.362.279,7.47-1.821,12.927-6.607,4.987-4.374,10.667-10.627,16.681-17.248,11.162-12.288,23.814-26.216,38.051-35.331a70.982,70.982,0,0,1,10.971-5.81,50.313,50.313,0,0,1,11.511-3.3,41.644,41.644,0,0,1,12.018-.133,44.389,44.389,0,0,1,12.472,3.687,34.315,34.315,0,0,1,9.481,6.518,46.645,46.645,0,0,1,7.472,9.523c4.106,6.792,7.4,15.322,10.076,26.079,4.936,19.855,6.831,43.778,8.664,66.914,1.768,22.311,3.437,43.384,7.667,59.2,2.257,8.442,5.048,14.66,8.531,19.008a20.727,20.727,0,0,0,6.237,5.365,17.874,17.874,0,0,0,7.882,2.106,159.131,159.131,0,0,0,36.444-2.907,187.373,187.373,0,0,0,33.757-9.98,192.027,192.027,0,0,0,29.071-14.538,148.516,148.516,0,0,0,22.383-16.571,93.417,93.417,0,0,0,12.107-13.192,62.585,62.585,0,0,0,7.483-12.923,50.977,50.977,0,0,0,3.524-12.716,53.724,53.724,0,0,0,.223-12.584,70.218,70.218,0,0,0-2.437-12.521A110.064,110.064,0,0,0,593.82,252.6c-3.5-8.357-8.022-16.921-12.391-25.2-7.406-14.037-15.063-28.553-18.749-43.541a71.407,71.407,0,0,1-2.085-23,63.084,63.084,0,0,1,2.12-11.91,69.138,69.138,0,0,1,4.734-12.211,106.431,106.431,0,0,1,14.8-22.145,115.631,115.631,0,0,1,19.535-17.853,127.933,127.933,0,0,1,23.164-13.3,138.017,138.017,0,0,1,25.693-8.476,141.765,141.765,0,0,1,28.7-3.426,138.033,138.033,0,0,1,29,2.574,129.983,129.983,0,0,1,28,8.892,123.489,123.489,0,0,1,25.7,15.527l-.463.59A122.748,122.748,0,0,0,736.035,83.69a129.229,129.229,0,0,0-27.84-8.84,137.26,137.26,0,0,0-28.843-2.56A141,141,0,0,0,650.8,75.7a137.257,137.257,0,0,0-25.553,8.43,127.185,127.185,0,0,0-23.028,13.218,114.886,114.886,0,0,0-19.408,17.737,105.68,105.68,0,0,0-14.7,21.989,68.381,68.381,0,0,0-4.683,12.078,62.321,62.321,0,0,0-2.1,11.768,70.667,70.667,0,0,0,2.066,22.764c3.663,14.9,11.3,29.373,18.684,43.37,4.377,8.3,8.9,16.874,12.419,25.262a110.79,110.79,0,0,1,4.487,12.6,70.965,70.965,0,0,1,2.462,12.654,54.472,54.472,0,0,1-.226,12.76,51.736,51.736,0,0,1-3.576,12.9,63.34,63.34,0,0,1-7.572,13.079,94.177,94.177,0,0,1-12.2,13.3,149.27,149.27,0,0,1-22.5,16.656A192.769,192.769,0,0,1,526.2,360.86a188.123,188.123,0,0,1-33.893,10.02,162.407,162.407,0,0,1-30.822,3.033Z" fill="#84d4ff"/><path d="M459.575,378.109a16.8,16.8,0,0,1-7.292-1.581,18.539,18.539,0,0,1-6.311-5.1c-3.437-4.191-6.135-10.336-8.249-18.787-3.931-15.717-5.239-37.046-6.624-59.626-1.451-23.663-2.952-48.131-7.593-68.521-2.507-11.012-5.668-19.739-9.666-26.68a46.168,46.168,0,0,0-7.276-9.673,33.1,33.1,0,0,0-9.269-6.578,45.118,45.118,0,0,0-12.7-3.893,41.514,41.514,0,0,0-12.182.055,49.833,49.833,0,0,0-11.666,3.334,70.537,70.537,0,0,0-11.134,5.952A130.585,130.585,0,0,0,329.057,204.1c-6.454,6.4-12.364,13.054-18.079,19.489-6.09,6.857-11.842,13.334-16.9,17.849-5.664,5.054-9.984,7.222-13.594,6.822a7.535,7.535,0,0,1-3.916-1.67,14.024,14.024,0,0,1-3.349-4.208,216.732,216.732,0,0,0-18.411-28.55,97.6,97.6,0,0,0-20.075-19.8,68.372,68.372,0,0,0-11.2-6.5,65.081,65.081,0,0,0-12.279-4.178,73.712,73.712,0,0,0-13.584-1.8,96.473,96.473,0,0,0-15.117.626c-15.318,1.784-30.5,5.186-45.179,8.475-19.885,4.456-39.052,8.751-57.064,8.751a84.676,84.676,0,0,1-27.285-4.124,69.681,69.681,0,0,1-9.4-3.954,71.109,71.109,0,0,1-9.068-5.534A86.877,86.877,0,0,1,17.491,169.3a139.992,139.992,0,0,1-15.51-24.816,252.491,252.491,0,0,1-13.814-34.507l.713-.231a251.729,251.729,0,0,0,13.771,34.4,139.25,139.25,0,0,0,15.425,24.682,86.126,86.126,0,0,0,16.917,16.339,70.362,70.362,0,0,0,8.972,5.476,68.93,68.93,0,0,0,9.293,3.911A83.972,83.972,0,0,0,80.3,198.642c17.94,0,37.056-4.284,56.9-8.731,14.7-3.294,29.9-6.7,45.256-8.489a97.213,97.213,0,0,1,15.235-.63,74.457,74.457,0,0,1,13.723,1.822,65.838,65.838,0,0,1,12.421,4.226,69.13,69.13,0,0,1,11.327,6.575A98.338,98.338,0,0,1,255.4,213.37a217.478,217.478,0,0,1,18.476,28.649c1.887,3.408,4.076,5.206,6.691,5.5,3.383.375,7.518-1.734,13.012-6.637,5.027-4.485,10.765-10.947,16.84-17.787,5.723-6.444,11.641-13.108,18.112-19.524A131.314,131.314,0,0,1,349.2,186.385a71.278,71.278,0,0,1,11.254-6.015,50.582,50.582,0,0,1,11.843-3.383,42.268,42.268,0,0,1,12.4-.056,45.868,45.868,0,0,1,12.911,3.956,33.844,33.844,0,0,1,9.48,6.725,46.908,46.908,0,0,1,7.4,9.829c4.036,7.006,7.225,15.8,9.748,26.888,4.655,20.45,6.157,44.949,7.61,68.642,1.383,22.545,2.689,43.841,6.6,59.49,2.086,8.341,4.736,14.39,8.1,18.493a17.8,17.8,0,0,0,6.053,4.9,16.3,16.3,0,0,0,7.736,1.493,191.035,191.035,0,0,0,37.247-5.277,209.883,209.883,0,0,0,33.667-11.27,199.459,199.459,0,0,0,28.363-14.977,143.682,143.682,0,0,0,21.355-16.409,98.316,98.316,0,0,0,12.5-14.15,65.313,65.313,0,0,0,7.593-13.743,52.81,52.81,0,0,0,3.392-13.418,55.515,55.515,0,0,0-.112-13.189,72.7,72.7,0,0,0-2.936-13.049,114.317,114.317,0,0,0-5.081-12.985c-3.954-8.656-8.989-17.5-13.858-26.053-8.27-14.524-16.82-29.543-21.137-45.165a73.541,73.541,0,0,1-2.807-24.071,65.126,65.126,0,0,1,1.966-12.55,71.833,71.833,0,0,1,4.752-12.938,105.088,105.088,0,0,1,14.43-22.335A114.2,114.2,0,0,1,598.9,87.733a127.685,127.685,0,0,1,22.928-13.527A139.949,139.949,0,0,1,647.353,65.4a146.027,146.027,0,0,1,29.554-3.979A143.133,143.133,0,0,1,706.82,63.6a133.576,133.576,0,0,1,28.844,8.618A123.771,123.771,0,0,1,762,87.557l-.455.6a123.021,123.021,0,0,0-26.181-15.245,132.83,132.83,0,0,0-28.682-8.57A142.394,142.394,0,0,0,676.93,62.17a145.277,145.277,0,0,0-29.4,3.958,139.193,139.193,0,0,0-25.387,8.76A126.947,126.947,0,0,0,599.35,88.335a113.454,113.454,0,0,0-19.1,17.918,104.344,104.344,0,0,0-14.327,22.176,71.092,71.092,0,0,0-4.7,12.8,64.378,64.378,0,0,0-1.943,12.4,72.8,72.8,0,0,0,2.781,23.829c4.291,15.532,12.819,30.509,21.065,44.994,4.878,8.567,9.921,17.425,13.889,26.112a115.072,115.072,0,0,1,5.114,13.07,73.434,73.434,0,0,1,2.965,13.183,56.263,56.263,0,0,1,.113,13.367,53.566,53.566,0,0,1-3.44,13.609,66.056,66.056,0,0,1-7.679,13.9,99.065,99.065,0,0,1-12.594,14.26,144.424,144.424,0,0,1-21.467,16.5,200.2,200.2,0,0,1-28.47,15.034,210.637,210.637,0,0,1-33.78,11.3,191.791,191.791,0,0,1-37.394,5.3Q459.971,378.109,459.575,378.109Z" fill="#84d4ff"/><path d="M464.041,382.411a16.49,16.49,0,0,1-5.564-.922,15.9,15.9,0,0,1-5.356-3.261c-3.036-2.762-5.5-6.824-7.528-12.419a97.9,97.9,0,0,1-4.381-18.761c-2.12-14.221-2.88-31.374-3.684-49.534-1.063-24-2.161-48.808-6.515-69.563a128.9,128.9,0,0,0-3.917-14.662,76.224,76.224,0,0,0-5.42-12.533,46.269,46.269,0,0,0-7.206-9.889,33.021,33.021,0,0,0-9.278-6.751,46.59,46.59,0,0,0-13.14-4.165,42.139,42.139,0,0,0-12.565-.021,50.147,50.147,0,0,0-12,3.418,70.935,70.935,0,0,0-11.42,6.162,131.806,131.806,0,0,0-21,17.746c-6.577,6.65-12.58,13.558-18.385,20.239-6.145,7.072-11.949,13.751-17.045,18.38-5.7,5.181-10.055,7.369-13.694,6.887-3.092-.41-5.624-2.729-7.74-7.089-12.991-26.773-25.5-44.718-39.384-56.473a78.426,78.426,0,0,0-11.628-8.209,68.8,68.8,0,0,0-12.692-5.667,70.749,70.749,0,0,0-13.94-3.038,84.941,84.941,0,0,0-15.375-.314c-16.454,1.1-32.764,4.289-48.538,7.373-30.23,5.911-58.783,11.494-84.116,1.746a70.824,70.824,0,0,1-9.354-4.41,73.718,73.718,0,0,1-9.022-6.026A92.287,92.287,0,0,1,17.2,153.063,151.3,151.3,0,0,1,1.827,126.938,273.838,273.838,0,0,1-11.814,90.884l.717-.22A273.1,273.1,0,0,0,2.5,126.618a150.553,150.553,0,0,0,15.3,26,91.537,91.537,0,0,0,16.816,17.448,72.952,72.952,0,0,0,8.93,5.965A70.067,70.067,0,0,0,52.8,180.39c25.133,9.671,53.583,4.107,83.7-1.782,15.8-3.089,32.131-6.283,48.632-7.386a85.7,85.7,0,0,1,15.511.318,71.512,71.512,0,0,1,14.088,3.071,69.552,69.552,0,0,1,12.831,5.729,79.171,79.171,0,0,1,11.74,8.287c13.96,11.826,26.536,29.849,39.574,56.721,2,4.116,4.34,6.3,7.163,6.672,3.4.452,7.564-1.677,13.092-6.7,5.063-4.6,10.853-11.262,16.983-18.317,5.542-6.378,11.824-13.607,18.418-20.274a132.546,132.546,0,0,1,21.123-17.846,71.684,71.684,0,0,1,11.542-6.227,50.893,50.893,0,0,1,12.178-3.468,42.888,42.888,0,0,1,12.788.021,47.336,47.336,0,0,1,13.352,4.23,33.769,33.769,0,0,1,9.489,6.9,47.019,47.019,0,0,1,7.325,10.048c3.968,7.152,7.048,16.117,9.416,27.4,4.366,20.815,5.466,45.659,6.53,69.684.8,18.14,1.562,35.275,3.677,49.457a97.189,97.189,0,0,0,4.345,18.616,40.732,40.732,0,0,0,3.235,6.984,22.569,22.569,0,0,0,4.092,5.136,15.157,15.157,0,0,0,5.1,3.109,16.117,16.117,0,0,0,6.258.854,176.294,176.294,0,0,0,38.024-6.232,198.368,198.368,0,0,0,33.544-12.7,202.266,202.266,0,0,0,27.654-16.2,160.9,160.9,0,0,0,20.348-16.722A103.383,103.383,0,0,0,597.4,314.629a68.272,68.272,0,0,0,7.676-14.589,54.918,54.918,0,0,0,3.245-14.137,57.58,57.58,0,0,0-.453-13.8,75.446,75.446,0,0,0-3.433-13.58,118.858,118.858,0,0,0-5.7-13.453c-4.4-8.952-9.938-18.069-15.3-26.886-9.115-14.995-18.54-30.5-23.474-46.741a75.807,75.807,0,0,1-3.518-25.123,67.333,67.333,0,0,1,1.811-13.186,74.737,74.737,0,0,1,4.762-13.664A104.055,104.055,0,0,1,577.1,96.959a112.941,112.941,0,0,1,18.927-18.213A127.368,127.368,0,0,1,618.709,65a141.6,141.6,0,0,1,25.34-9.125,150.132,150.132,0,0,1,30.406-4.542,148.384,148.384,0,0,1,30.833,1.779,137.452,137.452,0,0,1,29.694,8.337,124.3,124.3,0,0,1,26.986,15.136l-.447.6A123.558,123.558,0,0,0,734.7,62.139a136.7,136.7,0,0,0-29.532-8.292,149.377,149.377,0,0,0-60.93,2.75,140.852,140.852,0,0,0-25.206,9.077,126.616,126.616,0,0,0-22.548,13.668,112.178,112.178,0,0,0-18.8,18.091,103.313,103.313,0,0,0-13.971,22.351A73.98,73.98,0,0,0,559,133.311a66.576,66.576,0,0,0-1.79,13.039,75.071,75.071,0,0,0,3.486,24.877C565.6,187.378,575,202.842,584.1,217.8c5.368,8.831,10.919,17.962,15.329,26.945a119.573,119.573,0,0,1,5.732,13.538,76.192,76.192,0,0,1,3.466,13.714,58.332,58.332,0,0,1,.458,13.983,55.672,55.672,0,0,1-3.289,14.33,69.019,69.019,0,0,1-7.759,14.75,104.121,104.121,0,0,1-12.942,15.255,161.653,161.653,0,0,1-20.445,16.8,203.02,203.02,0,0,1-27.756,16.263,199.112,199.112,0,0,1-33.671,12.751,177.043,177.043,0,0,1-38.186,6.258Q464.529,382.412,464.041,382.411Z" fill="#84d4ff"/><path d="M468.9,386.7a16.2,16.2,0,0,1-5.652-.967,15.538,15.538,0,0,1-5.217-3.269c-2.969-2.776-5.346-6.849-7.267-12.452a97.75,97.75,0,0,1-4.036-18.784c-1.868-14.237-2.337-31.423-2.834-49.617-.662-24.247-1.346-49.32-5.4-70.355a129.512,129.512,0,0,0-3.717-14.87A76.428,76.428,0,0,0,429.5,203.65a46.27,46.27,0,0,0-7.132-10.071,33.039,33.039,0,0,0-9.286-6.912,48.055,48.055,0,0,0-13.582-4.441,42.766,42.766,0,0,0-12.951-.1,50.5,50.5,0,0,0-12.333,3.506,71.429,71.429,0,0,0-11.709,6.379,133.282,133.282,0,0,0-21.457,18.425c-6.7,6.907-13.078,14.4-18.7,21.007-6.2,7.281-12.048,14.159-17.177,18.9-5.74,5.309-10.121,7.525-13.787,6.976-3.306-.5-5.988-3.229-8.2-8.354a288.648,288.648,0,0,0-18.812-36.992,169.684,169.684,0,0,0-10.338-15.037,120.968,120.968,0,0,0-11.131-12.547,90.693,90.693,0,0,0-12.053-9.922,74.6,74.6,0,0,0-13.106-7.165,70.355,70.355,0,0,0-14.3-4.278,77.583,77.583,0,0,0-15.634-1.257c-17.494.322-34.846,3.248-51.628,6.077-30.216,5.1-58.757,9.907-84.038-.976a72.335,72.335,0,0,1-9.33-4.854,76.633,76.633,0,0,1-8.991-6.507A98.043,98.043,0,0,1,16.95,136.822,163.079,163.079,0,0,1,1.7,109.4,295.939,295.939,0,0,1-11.8,71.789l.72-.209A295.209,295.209,0,0,0,2.382,109.092a162.339,162.339,0,0,0,15.189,27.3,97.3,97.3,0,0,0,16.744,18.543,75.883,75.883,0,0,0,8.9,6.444,71.588,71.588,0,0,0,9.233,4.8c25.077,10.8,53.512,6,83.617.925,16.808-2.834,34.189-5.765,51.738-6.087a78.342,78.342,0,0,1,15.785,1.269,71.109,71.109,0,0,1,14.451,4.324,75.349,75.349,0,0,1,13.239,7.237,91.435,91.435,0,0,1,12.153,10,121.7,121.7,0,0,1,11.2,12.625,170.443,170.443,0,0,1,10.384,15.1,289.369,289.369,0,0,1,18.861,37.088c2.1,4.868,4.593,7.456,7.621,7.91,3.423.513,7.607-1.642,13.166-6.785,5.1-4.714,10.934-11.575,17.115-18.839,5.631-6.618,12.013-14.118,18.734-21.043a134.008,134.008,0,0,1,21.58-18.527,72.167,72.167,0,0,1,11.833-6.446,51.247,51.247,0,0,1,12.517-3.557,43.517,43.517,0,0,1,13.178.1,48.8,48.8,0,0,1,13.794,4.509,33.787,33.787,0,0,1,9.5,7.067,47.021,47.021,0,0,1,7.25,10.234,77.172,77.172,0,0,1,5.33,12.856,130.3,130.3,0,0,1,3.739,14.956c4.065,21.1,4.75,46.2,5.413,70.477.5,18.175.965,35.341,2.828,49.54a97.023,97.023,0,0,0,4,18.638,40.308,40.308,0,0,0,3.095,7,22.137,22.137,0,0,0,3.975,5.151,14.793,14.793,0,0,0,4.965,3.113,15.749,15.749,0,0,0,6.128.906,153.673,153.673,0,0,0,38.819-6.711,179.2,179.2,0,0,0,33.415-14.193,199.769,199.769,0,0,0,46.272-34.886A108.633,108.633,0,0,0,601.3,313.964a71.5,71.5,0,0,0,7.726-15.462,57.308,57.308,0,0,0,3.078-14.875,59.933,59.933,0,0,0-.8-14.427,78.47,78.47,0,0,0-3.929-14.113,123.639,123.639,0,0,0-6.3-13.918c-4.83-9.244-10.866-18.626-16.7-27.7-20.062-31.183-40.808-63.427-23.548-102.632a103.294,103.294,0,0,1,13.726-22.68,111.816,111.816,0,0,1,18.622-18.382A126.953,126.953,0,0,1,615.59,55.812a143,143,0,0,1,25.141-9.432,154.809,154.809,0,0,1,63.013-3.746,141.613,141.613,0,0,1,30.556,8.05A125.1,125.1,0,0,1,761.932,65.6l-.438.609a124.35,124.35,0,0,0-27.47-14.831,140.863,140.863,0,0,0-30.391-8.006,154.053,154.053,0,0,0-62.7,3.727,142.241,142.241,0,0,0-25.009,9.382,126.216,126.216,0,0,0-22.293,13.882,111.062,111.062,0,0,0-18.5,18.258A102.542,102.542,0,0,0,561.5,111.14a77.026,77.026,0,0,0-4.72,14.251,68.919,68.919,0,0,0-1.637,13.669,77.416,77.416,0,0,0,4.177,25.908c5.508,16.755,15.759,32.688,25.673,48.1,5.846,9.087,11.892,18.483,16.738,27.758a124.363,124.363,0,0,1,6.342,14,79.212,79.212,0,0,1,3.965,14.247,60.689,60.689,0,0,1,.811,14.608,58.056,58.056,0,0,1-3.118,15.069,72.246,72.246,0,0,1-7.806,15.626,109.38,109.38,0,0,1-13.244,16.29,200.542,200.542,0,0,1-46.45,35.021,179.948,179.948,0,0,1-33.556,14.253,154.421,154.421,0,0,1-39.009,6.743Q469.285,386.7,468.9,386.7Z" fill="#84d4ff"/><path d="M473.11,391.014a15.369,15.369,0,0,1-5.073-.818,14.475,14.475,0,0,1-5.086-3.1c-2.9-2.688-5.193-6.694-7.005-12.247a95.92,95.92,0,0,1-3.691-18.7c-1.616-14.218-1.8-31.488-1.989-49.771-.259-24.635-.526-50.109-4.278-71.57a131.781,131.781,0,0,0-3.516-15.18,77.324,77.324,0,0,0-5.133-13.013,46.425,46.425,0,0,0-7.059-10.309,32.888,32.888,0,0,0-9.3-7.092,49.511,49.511,0,0,0-14.025-4.723,43.4,43.4,0,0,0-13.34-.174,50.881,50.881,0,0,0-12.673,3.6,71.993,71.993,0,0,0-12,6.6,134.95,134.95,0,0,0-21.922,19.12c-6.835,7.17-13.312,14.937-19.026,21.79-6.244,7.488-12.142,14.561-17.3,19.421-5.774,5.438-10.183,7.689-13.874,7.084-3.512-.576-6.338-3.737-8.638-9.665-2.983-7.688-6.063-14.993-9.156-21.714-3.2-6.948-6.514-13.5-9.857-19.471a199.019,199.019,0,0,0-10.644-17.044,142.731,142.731,0,0,0-11.517-14.433,104.967,104.967,0,0,0-12.476-11.641A82.134,82.134,0,0,0,221.01,159.3a71.8,71.8,0,0,0-14.658-5.523,72.92,72.92,0,0,0-15.894-2.2q-2.443-.07-4.885-.069c-16.8,0-33.454,2.383-49.609,4.7-15.363,2.2-30.3,4.336-44.58,4.336-13.841,0-27.073-2.005-39.506-7.9a74.162,74.162,0,0,1-9.32-5.286,79.86,79.86,0,0,1-8.975-6.98A104.12,104.12,0,0,1,16.763,120.6,175.311,175.311,0,0,1,1.589,91.865,318.718,318.718,0,0,1-11.78,52.7l.723-.2A317.984,317.984,0,0,0,2.28,91.572,174.562,174.562,0,0,0,17.387,120.18a103.374,103.374,0,0,0,16.7,19.626,79.125,79.125,0,0,0,8.89,6.914,73.409,73.409,0,0,0,9.225,5.232c25.06,11.89,53.524,7.817,83.659,3.5,16.179-2.315,32.862-4.7,49.712-4.7q2.454,0,4.91.07a73.667,73.667,0,0,1,16.058,2.223,72.547,72.547,0,0,1,14.811,5.581A82.882,82.882,0,0,1,235,167.375,105.707,105.707,0,0,1,247.559,179.1a143.484,143.484,0,0,1,11.578,14.509,199.788,199.788,0,0,1,10.684,17.109c3.352,5.989,6.677,12.558,9.884,19.524,3.1,6.734,6.186,14.054,9.174,21.756,2.2,5.659,4.832,8.667,8.06,9.2,3.442.564,7.649-1.625,13.239-6.89,5.128-4.83,11.012-11.886,17.241-19.356,5.722-6.862,12.208-14.64,19.06-21.828A135.675,135.675,0,0,1,368.526,193.9a72.747,72.747,0,0,1,12.129-6.67,51.629,51.629,0,0,1,12.86-3.648,44.152,44.152,0,0,1,13.57.177,50.264,50.264,0,0,1,14.238,4.793,33.637,33.637,0,0,1,9.508,7.252,47.174,47.174,0,0,1,7.175,10.476,78.078,78.078,0,0,1,5.185,13.14,132.526,132.526,0,0,1,3.536,15.267c3.763,21.521,4.03,47.026,4.289,71.691.192,18.264.373,35.514,1.985,49.694a95.2,95.2,0,0,0,3.659,18.55,38.408,38.408,0,0,0,2.951,6.9,20.612,20.612,0,0,0,3.851,5.025,13.731,13.731,0,0,0,4.823,2.941,15.143,15.143,0,0,0,6,.737,152.92,152.92,0,0,0,39.584-8.043,176.945,176.945,0,0,0,33.289-15.59A208.171,208.171,0,0,0,591.736,330.5a114.129,114.129,0,0,0,13.4-17.251,75.04,75.04,0,0,0,7.739-16.366,60.009,60.009,0,0,0,2.888-15.632,62.59,62.59,0,0,0-1.161-15.062,81.774,81.774,0,0,0-4.424-14.649,128.589,128.589,0,0,0-6.9-14.378c-5.256-9.532-11.773-19.17-18.075-28.491-21.668-32.046-44.074-65.184-26.6-106.47A102.763,102.763,0,0,1,572,79.367a110.838,110.838,0,0,1,18.315-18.544,126.5,126.5,0,0,1,22.16-14.173A144.117,144.117,0,0,1,637.4,36.924a159.415,159.415,0,0,1,64.789-4.744,146.065,146.065,0,0,1,31.419,7.755A126.145,126.145,0,0,1,761.9,54.629l-.429.615a125.4,125.4,0,0,0-28.12-14.606,145.308,145.308,0,0,0-31.257-7.715,158.675,158.675,0,0,0-64.482,4.721,143.358,143.358,0,0,0-24.8,9.676,125.742,125.742,0,0,0-22.029,14.088,110.088,110.088,0,0,0-18.192,18.418A102.014,102.014,0,0,0,559.3,102.5a80.265,80.265,0,0,0-4.72,14.976A71.383,71.383,0,0,0,553.1,131.77a79.821,79.821,0,0,0,4.85,26.919c6.092,17.342,17.169,33.725,27.882,49.568,6.312,9.335,12.838,18.987,18.111,28.549a129.349,129.349,0,0,1,6.943,14.462,82.507,82.507,0,0,1,4.464,14.782,63.346,63.346,0,0,1,1.174,15.243A60.756,60.756,0,0,1,613.6,297.12a75.779,75.779,0,0,1-7.816,16.531,114.87,114.87,0,0,1-13.49,17.366,208.919,208.919,0,0,1-44.746,36.221,177.709,177.709,0,0,1-33.431,15.656,153.672,153.672,0,0,1-39.778,8.082Q473.713,391.014,473.11,391.014Z" fill="#84d4ff"/></g></svg>