<svg xmlns="http://www.w3.org/2000/svg" xmlns:xlink="http://www.w3.org/1999/xlink" width="796.128" height="208" viewBox="0 0 796.128 208"><defs><linearGradient id="a" x1="0.138" y1="0.14" x2="0.683" y2="0.945" gradientUnits="objectBoundingBox"><stop offset="0" stop-color="#a6c4fd"/><stop offset="1" stop-color="#a8e1ff"/></linearGradient><linearGradient id="b" x1="0.174" y1="0.145" x2="0.764" y2="0.901" gradientUnits="objectBoundingBox"><stop offset="0" stop-color="#5f97ff"/><stop offset="1" stop-color="#86b0ff"/></linearGradient><linearGradient id="c" x1="0.234" y1="0.132" x2="0.739" y2="0.842" gradientUnits="objectBoundingBox"><stop offset="0" stop-color="#1f6cfc"/><stop offset="1" stop-color="#74a5ff"/></linearGradient><linearGradient id="d" x1="0.072" y1="0.249" x2="0.963" y2="0.715" gradientUnits="objectBoundingBox"><stop offset="0" stop-color="#1b3972"/><stop offset="1" stop-color="#416ec3"/></linearGradient></defs><g transform="translate(-196 -176)"><g transform="translate(20 -7)"><g transform="translate(-315 -74)"><g transform="translate(491 257)"><circle cx="104" cy="104" r="104" transform="translate(0 0)" fill="url(#a)"/><ellipse cx="82.5" cy="80" rx="82.5" ry="80" transform="translate(0 26)" fill="url(#b)"/><ellipse cx="60" cy="59.5" rx="60" ry="59.5" transform="translate(33 65)" fill="url(#c)"/><ellipse cx="39.38" cy="39.38" rx="39.38" ry="39.38" transform="translate(91.336 87.298) rotate(30)" fill="url(#d)"/></g></g></g><g transform="translate(-1007 -121)"><path d="M4.4,50.164l17.343-109.2H44.377L73.037,1.809l9.7-60.847H111.25L93.907,50.164H71.273L42.613-10.684l-9.7,60.847Zm141.977,0,4.7-29.395L131.827-59.038h31.012L170.04-9.8,193.7-59.038H225.89l-46.3,79.807-4.7,29.395Zm84.216,0,17.343-109.2h42.769q15.285,0,23.663,4.85A25.671,25.671,0,0,1,325.98-40.74a56.4,56.4,0,0,1,3.233,19.915q0,4.7-.367,9.847T327.6-.4q-2.2,14.257-6.687,23.957a45.123,45.123,0,0,1-11.317,15.579A41.236,41.236,0,0,1,293.5,47.592a78.631,78.631,0,0,1-21.017,2.572ZM263.222,24.59h12.346a22.143,22.143,0,0,0,8.892-1.69,17.178,17.178,0,0,0,6.687-5.218,30.511,30.511,0,0,0,4.7-9.112,86.015,86.015,0,0,0,3.233-13.522q.735-5.144,1.176-8.892A52.829,52.829,0,0,0,300.7-19.5q0-5.438-1.764-8.451a9.619,9.619,0,0,0-5.512-4.262,31.6,31.6,0,0,0-9.774-1.249H272.334ZM388.738,51.046q-18.519,0-27.852-8.157t-9.333-26.235a67.551,67.551,0,0,1,.588-8.451q.588-4.63,1.323-9.48l9.259-57.761h28.513l-9.847,62.17q-.441,3.086-.882,5.879a33.163,33.163,0,0,0-.441,5.144q0,5.438,2.793,8.378t9.994,2.939a19.775,19.775,0,0,0,6.687-1.029,11.218,11.218,0,0,0,4.924-3.527,21.671,21.671,0,0,0,3.527-6.834,66.849,66.849,0,0,0,2.5-10.95l9.847-62.17H448.85L438.268,7.541q-2.2,13.816-6.32,22.414a34.665,34.665,0,0,1-10.215,13.154,35.534,35.534,0,0,1-14.33,6.246A93.276,93.276,0,0,1,388.738,51.046Zm108.761,0q-8.818,0-15.8-.661t-12.272-1.617q-5.291-.955-9.112-1.984l3.527-22.634q6.908.588,15.653.955t17.269.367a47.339,47.339,0,0,0,8.892-.661,9.331,9.331,0,0,0,4.85-2.2,7.478,7.478,0,0,0,1.984-4.189l.294-1.617a4.319,4.319,0,0,0,.147-1.029V14.89a4.192,4.192,0,0,0-2.425-4.115Q508.081,9.6,502.643,9.6h-5.879q-13.375,0-20.8-7.275t-7.422-18.445a46.75,46.75,0,0,1,.441-6.32l1.323-8.378q1.764-10.582,7.128-16.976a30.226,30.226,0,0,1,14.11-9.259A65.439,65.439,0,0,1,511.9-59.92q3.968,0,8.084.22t8.378.735q4.262.514,8.672,1.323T546-55.658l-3.527,22.634q-5.291-.588-11.39-.808T519.031-34.2q-5.952-.147-10.8-.147a20.156,20.156,0,0,0-5.438.661,9.109,9.109,0,0,0-3.895,2.131,7.1,7.1,0,0,0-1.984,4.115l-.294,1.617a9.443,9.443,0,0,0-.22,1.249,11.334,11.334,0,0,0-.074,1.249,5.637,5.637,0,0,0,1.764,4.483q1.764,1.543,5.732,1.543h6.467q14.844,0,22.634,7.128a23.355,23.355,0,0,1,7.79,18,40.7,40.7,0,0,1-.441,5.732l-1.617,10.288A34.636,34.636,0,0,1,533.14,38.7q-4.189,6.026-12.64,9.186T497.5,51.046Z" transform="translate(1452 417.437)" fill="#5e85d0"/><path d="M497.5,52.046c-5.883,0-11.23-.224-15.894-.666s-8.818-.989-12.356-1.628-6.632-1.313-9.195-2l-.866-.233L463,23.074l.929.079c4.568.389,9.82.709,15.61.953s11.585.367,17.227.367a46.62,46.62,0,0,0,8.7-.642A8.439,8.439,0,0,0,509.8,21.9a6.54,6.54,0,0,0,1.7-3.646l0-.014.308-1.68a3.367,3.367,0,0,0,.117-.786V14.89a3.2,3.2,0,0,0-1.861-3.215c-1.472-.714-3.971-1.076-7.427-1.076h-5.879a37.063,37.063,0,0,1-12.217-1.875,24.831,24.831,0,0,1-9.28-5.686,25.135,25.135,0,0,1-5.794-8.59,28.2,28.2,0,0,1-1.928-10.57,47.966,47.966,0,0,1,.45-6.455l0-.021,1.324-8.386a43.934,43.934,0,0,1,2.728-9.758,30,30,0,0,1,4.62-7.7,29.524,29.524,0,0,1,6.427-5.7A34.267,34.267,0,0,1,491.235-58,66.733,66.733,0,0,1,511.9-60.92c2.65,0,5.388.075,8.137.222s5.594.4,8.444.741,5.786.792,8.732,1.332,5.988,1.213,9.035,2l.878.227-3.814,24.475-.951-.106c-3.486-.387-7.294-.657-11.316-.8-4.044-.146-8.095-.27-12.04-.367s-7.568-.147-10.778-.147a19.261,19.261,0,0,0-5.167.624,8.164,8.164,0,0,0-3.476,1.893,6.167,6.167,0,0,0-1.687,3.556l0,.015-.308,1.68a8.49,8.49,0,0,0-.2,1.117,10.4,10.4,0,0,0-.067,1.139,4.654,4.654,0,0,0,1.422,3.73c.983.86,2.69,1.3,5.073,1.3h6.467a44.79,44.79,0,0,1,13.381,1.828,26.184,26.184,0,0,1,9.928,5.562A24.674,24.674,0,0,1,539.68-2.5a25.876,25.876,0,0,1,2.03,10.336,41.876,41.876,0,0,1-.451,5.873l0,.014L539.64,24.007a35.775,35.775,0,0,1-5.679,15.263,23.37,23.37,0,0,1-5.488,5.548,32.035,32.035,0,0,1-7.623,4,48.06,48.06,0,0,1-10.19,2.424A97.921,97.921,0,0,1,497.5,52.046Zm-36.057-6c2.331.6,5.072,1.18,8.163,1.738,3.483.629,7.584,1.169,12.189,1.605s9.885.657,15.705.657c9.535,0,17.156-1.042,22.651-3.1A30.043,30.043,0,0,0,527.3,43.2a21.375,21.375,0,0,0,5.021-5.071,33.809,33.809,0,0,0,5.344-14.422V23.7l1.616-10.281a39.882,39.882,0,0,0,.43-5.584,23.891,23.891,0,0,0-1.865-9.542,22.691,22.691,0,0,0-5.6-7.725,24.2,24.2,0,0,0-9.179-5.13,42.814,42.814,0,0,0-12.78-1.736h-6.467c-2.923,0-5.013-.586-6.39-1.791a6.613,6.613,0,0,1-2.105-5.235,12.391,12.391,0,0,1,.08-1.36,10.525,10.525,0,0,1,.236-1.349l.287-1.579a8.1,8.1,0,0,1,2.28-4.667,10.136,10.136,0,0,1,4.314-2.37,21.24,21.24,0,0,1,5.709-.7c3.227,0,6.869.05,10.827.147s8.012.221,12.063.368c3.71.134,7.241.373,10.513.712l3.241-20.793c-2.706-.679-5.4-1.265-8.018-1.745-2.906-.533-5.8-.975-8.611-1.314s-5.6-.584-8.311-.729-5.415-.219-8.03-.219A64.758,64.758,0,0,0,491.858-56.1,32.268,32.268,0,0,0,484.2-52.47a27.526,27.526,0,0,0-5.992,5.318,28.005,28.005,0,0,0-4.308,7.185,41.94,41.94,0,0,0-2.6,9.312l-1.32,8.358a45.964,45.964,0,0,0-.43,6.175A26.212,26.212,0,0,0,471.328-6.3a23.149,23.149,0,0,0,5.339,7.908,22.848,22.848,0,0,0,8.541,5.227A35.082,35.082,0,0,0,496.764,8.6h5.879c3.814,0,6.529.417,8.3,1.276a5.2,5.2,0,0,1,2.989,5.015v.882a5.2,5.2,0,0,1-.169,1.239l-.287,1.578a8.482,8.482,0,0,1-2.262,4.725,10.321,10.321,0,0,1-5.361,2.478,48.517,48.517,0,0,1-9.088.681c-5.67,0-11.495-.124-17.311-.368-5.43-.228-10.392-.524-14.766-.881Zm-72.7,6a59.2,59.2,0,0,1-16.5-2.08,31.477,31.477,0,0,1-12.006-6.325,25.966,25.966,0,0,1-7.284-11.055,47.831,47.831,0,0,1-2.391-15.933,68.866,68.866,0,0,1,.6-8.577c.391-3.082.838-6.279,1.326-9.5v-.008l9.394-58.6h30.536L382.378,3.281c-.293,2.052-.59,4.032-.883,5.886a32.334,32.334,0,0,0-.429,4.988c0,3.343.847,5.93,2.518,7.689s4.775,2.628,9.269,2.628a18.881,18.881,0,0,0,6.349-.97,10.282,10.282,0,0,0,4.49-3.222,20.8,20.8,0,0,0,3.352-6.52A66.189,66.189,0,0,0,409.5,2.978l9.981-63.016h30.539L439.256,7.7c-1.478,9.263-3.633,16.9-6.406,22.688A35.8,35.8,0,0,1,422.332,43.91,36.687,36.687,0,0,1,407.6,50.335,94.7,94.7,0,0,1,388.738,52.046ZM354.452-1.125c-.486,3.208-.93,6.389-1.319,9.453a66.871,66.871,0,0,0-.58,8.325,45.864,45.864,0,0,0,2.275,15.263,23.994,23.994,0,0,0,6.716,10.219A29.5,29.5,0,0,0,372.8,48.047a57.221,57.221,0,0,0,15.941,2,92.725,92.725,0,0,0,18.465-1.67,34.707,34.707,0,0,0,13.933-6.068,33.845,33.845,0,0,0,9.911-12.785c2.689-5.618,4.787-13.067,6.234-22.139l10.4-65.422H421.191L411.478,3.288A68.129,68.129,0,0,1,408.938,14.4a22.747,22.747,0,0,1-3.7,7.149,12.254,12.254,0,0,1-5.358,3.833,20.856,20.856,0,0,1-7.025,1.088,22.953,22.953,0,0,1-6.382-.775,9.6,9.6,0,0,1-4.338-2.475c-2.035-2.143-3.068-5.193-3.068-9.066a34.311,34.311,0,0,1,.453-5.3c.292-1.846.587-3.82.88-5.864l0-.015,9.664-61.014h-26.49ZM272.481,51.164H229.422l17.661-111.2h43.623a69.288,69.288,0,0,1,13.759,1.233,34.67,34.67,0,0,1,10.4,3.752,28.522,28.522,0,0,1,7.347,6,26.288,26.288,0,0,1,4.7,7.963,57.653,57.653,0,0,1,3.3,20.267c0,3.144-.124,6.481-.37,9.919s-.67,7.032-1.259,10.67c-1.477,9.55-3.754,17.7-6.767,24.217A46.319,46.319,0,0,1,310.244,39.9a42.418,42.418,0,0,1-16.478,8.656A79.993,79.993,0,0,1,272.481,51.164Zm-40.716-2h40.716a78.007,78.007,0,0,0,20.75-2.536,40.434,40.434,0,0,0,15.709-8.246A44.343,44.343,0,0,0,320,23.142c2.935-6.352,5.158-14.322,6.607-23.69V-.555c.58-3.58,1-7.11,1.239-10.493s.365-6.679.365-9.776a55.676,55.676,0,0,0-3.169-19.563,24.3,24.3,0,0,0-4.34-7.36,26.529,26.529,0,0,0-6.836-5.575,32.693,32.693,0,0,0-9.8-3.523,67.308,67.308,0,0,0-13.358-1.192H248.79Zm-56.022,2H145.2l4.857-30.355-19.5-80.847H163.7l6.853,46.854,22.518-46.854h34.552L180.552,21.11Zm-28.193-2h26.488l4.6-28.736,45.519-78.466H194.332L169.524-6.42l-7.55-51.619H133.1l19,78.767-.032.2Zm-52.789,2H70.639l-.27-.574L43.09-7.324,33.766,51.164H3.229l17.661-111.2H45.011l.27.574L72.56-1.55l9.324-58.488h30.538Zm-22.853-2H93.054l17.025-107.2H83.591L73.514,5.169,43.743-58.038H22.6L5.571,49.164H32.06L42.136-14.043ZM275.568,25.59H262.053l9.426-60.055h12.172a32.714,32.714,0,0,1,10.09,1.3,10.631,10.631,0,0,1,6.058,4.706c1.261,2.155,1.9,5.168,1.9,8.956a53.2,53.2,0,0,1-.448,5.775c-.293,2.492-.69,5.492-1.179,8.916l0,.023A87.4,87.4,0,0,1,296.8,8.894a31.636,31.636,0,0,1-4.865,9.409,18.245,18.245,0,0,1-7.073,5.514A23.234,23.234,0,0,1,275.568,25.59Zm-11.177-2h11.177a21.257,21.257,0,0,0,8.494-1.608,16.268,16.268,0,0,0,6.3-4.921A29.673,29.673,0,0,0,294.9,8.246,85.421,85.421,0,0,0,298.1-5.106c.486-3.4.88-6.382,1.171-8.855A52.2,52.2,0,0,0,299.7-19.5c0-3.429-.547-6.1-1.627-7.946a8.578,8.578,0,0,0-4.965-3.819,30.8,30.8,0,0,0-9.458-1.2H273.189Z" transform="translate(1452 417.437)" fill="#5e85d0"/><path d="M1505.531,356.558,1489.29,458.389l5.276,11.155h25.365l17.95-112.985Z" transform="translate(27.534 0)" fill="#85abf2"/><path d="M1580.707,356.558l-21.534,45.507-21.51,36.162-5.018,31.37h31.732l5.31-31.37,47.683-81.669Z" transform="translate(63.83 0)" fill="#85abf2"/></g></g></svg>