<svg xmlns="http://www.w3.org/2000/svg" width="20.481" height="20.479" viewBox="0 0 20.481 20.479"><path d="M93.961,68.267c-3.408,0-7.978,2.337-11.048,6.356H80.368c-1.838,0-2.892,1.373-3.618,2.823l-.974,1.943h4.592l2.383,2.383,2.383,2.383v4.59l1.943-.972c1.451-.725,2.823-1.78,2.823-3.618V81.61c4.018-3.07,6.356-7.641,6.356-11.048v-2.3ZM89.9,73.033a1.589,1.589,0,1,1-1.589,1.589A1.589,1.589,0,0,1,89.9,73.033ZM79.574,82.567l-.794.794c-1.147,1.147-1.589,3.972-1.589,3.972s2.7-.315,3.972-1.589l.794-.794Z" transform="translate(-75.776 -68.267)" fill="#3e3d39"/></svg>