<svg xmlns="http://www.w3.org/2000/svg" width="19.604" height="19.604" viewBox="0 0 19.604 19.604"><g transform="translate(0 0)"><path d="M421.459,424.69l.845,2.52,2.618-.877-.845-2.511-2.618.882Z" transform="translate(-413.39 -415.709)" fill="#3e3d39"/><path d="M15.38,11.586l-1.27.426.441,1.315a1.018,1.018,0,0,1-1,1.337,1.029,1.029,0,0,1-.943-.693l-.441-1.313-2.622.876.44,1.313a1.02,1.02,0,0,1-1,1.339,1.034,1.034,0,0,1-.944-.694L7.6,14.17,6.324,14.6a1.186,1.186,0,0,1-.355.05,1.037,1.037,0,0,1-.943-.7,1.009,1.009,0,0,1,.637-1.286l1.274-.429L6.131,9.712l-1.267.429a1.032,1.032,0,0,1-.35.052,1.014,1.014,0,0,1-.282-1.978L5.506,7.79,5.065,6.479A1.021,1.021,0,0,1,7,5.832l.44,1.313,2.61-.877L9.61,4.957a1.017,1.017,0,1,1,1.931-.64l.441,1.324,1.27-.417A1.014,1.014,0,1,1,13.9,7.148l-1.272.428.845,2.521,1.267-.421a1.021,1.021,0,0,1,.65,1.935Zm3.407-4.375C16.765.479,13.846-1.1,7.11.927S-1.2,5.865.825,12.6,5.764,20.911,12.5,18.888,20.809,13.95,18.787,7.211Z" transform="translate(-0.004 -0.106)" fill="#3e3d39"/></g></svg>