<svg xmlns="http://www.w3.org/2000/svg" width="17.947" height="16.664" viewBox="0 0 17.947 16.664"><path d="M17.978,48.048c0-2.627-2.508-4.756-5.6-4.756s-5.6,2.129-5.6,4.756,2.508,4.756,5.6,4.756a6.373,6.373,0,0,0,2.684-.583l2.208.956-.256-2.463a4.242,4.242,0,0,0,.964-2.666ZM10.49,46.759a.8.8,0,1,1,.8-.8A.8.8,0,0,1,10.49,46.759Zm3.774,0a.8.8,0,1,1,.8-.8A.8.8,0,0,1,14.264,46.759Zm-1.886-4.1a7.033,7.033,0,0,1,2.44.432c.006-.1.017-.2.017-.3,0-3.471-3.315-6.284-7.4-6.284S.032,39.325.032,42.8A5.614,5.614,0,0,0,1.306,46.32L.968,49.574l2.916-1.263a8.269,8.269,0,0,0,2.364.68,4.649,4.649,0,0,1-.1-.943c0-2.969,2.8-5.385,6.232-5.385Zm-2.45-3.673a1.052,1.052,0,1,1-1.052,1.051A1.051,1.051,0,0,1,9.928,38.989Zm-4.989,2.1A1.052,1.052,0,1,1,5.99,40.041,1.051,1.051,0,0,1,4.938,41.093Z" transform="translate(-0.032 -36.512)" fill="#3e3d39"/></svg>