<?xml version="1.0" standalone="no"?><!DOCTYPE svg PUBLIC "-//W3C//DTD SVG 1.1//EN" "http://www.w3.org/Graphics/SVG/1.1/DTD/svg11.dtd"><svg t="1642141986680" class="icon" viewBox="0 0 1024 1024" version="1.1" xmlns="http://www.w3.org/2000/svg" p-id="21766" xmlns:xlink="http://www.w3.org/1999/xlink" width="200" height="200"><defs><style type="text/css"></style></defs><path d="M899.93971777 124.00754786a114.06435261 114.06435261 0 0 1 33.93371668 81.71596224v612.500987A115.86143958 115.86143958 0 0 1 818.22375553 933.875H205.77467892A115.75597165 115.75597165 0 0 1 90.125 818.22532108V205.77624447A115.7024133 115.7024133 0 0 1 205.77467892 90.12656555h612.44907661a114.48705158 114.48705158 0 0 1 81.71596225 33.88098231zM379.1972865 564.35567132a53.1735065 53.1735065 0 0 0-13.10860053-36.99972289c-8.72093985-9.67345368-21.776806-14.3775206-39.32497759-14.3775206a56.5040094 56.5040094 0 0 0-41.06933103 14.32396224 38.00414712 38.00414712 0 0 0-10.57158435 36.9997229V697.13082371a49.47386379 49.47386379 0 0 0 14.9056875 36.57620076 50.1610578 50.1610578 0 0 0 36.9997229 14.95842188 48.7866698 48.7866698 0 0 0 36.62893515-14.95842188 53.70249819 53.70249819 0 0 0 15.32838647-36.57620076V564.35567132zM558.011155 326.86991787a50.900987 50.900987 0 0 0-51.9581456-51.7463833 48.7866698 48.7866698 0 0 0-36.62975913 14.9056875 54.17793073 54.17793073 0 0 0-15.32838564 36.62893516v370.31281539a54.33613386 54.33613386 0 0 0 15.32838564 36.57702475 48.94487292 48.94487292 0 0 0 36.62975913 14.95842187 50.3200849 50.3200849 0 0 0 36.99972372-14.95842187 49.47386379 49.47386379 0 0 0 14.9056875-36.57620077zM743.008948 506.58274268a48.94487292 48.94487292 0 0 0-18.02442893-36.99972373 59.6746604 59.6746604 0 0 0-39.53673907-14.7466604 47.09505157 47.09505157 0 0 0-36.1535018 14.48298935 41.54476355 41.54476355 0 0 0-9.93712554 36.9997229v190.59999143a49.52659817 49.52659817 0 0 0 14.95842187 36.57620076 50.1610578 50.1610578 0 0 0 36.99972371 14.95924586 48.7866698 48.7866698 0 0 0 36.62893515-14.95842188 53.96616924 53.96616924 0 0 0 15.32838566-36.57620076V506.5819187z" p-id="21767" fill="#4c4c4c"></path></svg>
