<svg id="SvgjsSvg1006" width="1285.9296875" height="438.578125" xmlns="http://www.w3.org/2000/svg" version="1.1" xmlns:xlink="http://www.w3.org/1999/xlink" xmlns:svgjs="http://svgjs.com/svgjs"><defs id="SvgjsDefs1007"><marker id="SvgjsMarker1077" markerWidth="14" markerHeight="10" refX="10" refY="5" viewBox="0 0 14 10" orient="auto" markerUnits="userSpaceOnUse" stroke-dasharray="0,0"><path id="SvgjsPath1078" d="M0,0 L14,5 L0,10 L0,0" fill="#323232" stroke="#323232" stroke-width="1"></path></marker><marker id="SvgjsMarker1081" markerWidth="14" markerHeight="10" refX="10" refY="5" viewBox="0 0 14 10" orient="auto" markerUnits="userSpaceOnUse" stroke-dasharray="0,0"><path id="SvgjsPath1082" d="M0,0 L14,5 L0,10 L0,0" fill="#323232" stroke="#323232" stroke-width="1"></path></marker><marker id="SvgjsMarker1091" markerWidth="14" markerHeight="10" refX="10" refY="5" viewBox="0 0 14 10" orient="auto" markerUnits="userSpaceOnUse" stroke-dasharray="0,0"><path id="SvgjsPath1092" d="M0,0 L14,5 L0,10 L0,0" fill="#323232" stroke="#323232" stroke-width="1"></path></marker><marker id="SvgjsMarker1099" markerWidth="14" markerHeight="10" refX="10" refY="5" viewBox="0 0 14 10" orient="auto" markerUnits="userSpaceOnUse" stroke-dasharray="0,0"><path id="SvgjsPath1100" d="M0,0 L14,5 L0,10 L0,0" fill="#323232" stroke="#323232" stroke-width="1"></path></marker><marker id="SvgjsMarker1124" markerWidth="14" markerHeight="10" refX="10" refY="5" viewBox="0 0 14 10" orient="auto" markerUnits="userSpaceOnUse" stroke-dasharray="0,0"><path id="SvgjsPath1125" d="M0,0 L14,5 L0,10 L0,0" fill="#000000" stroke="#000000" stroke-width="1"></path></marker><marker id="SvgjsMarker1128" markerWidth="14" markerHeight="10" refX="10" refY="5" viewBox="0 0 14 10" orient="auto" markerUnits="userSpaceOnUse" stroke-dasharray="0,0"><path id="SvgjsPath1129" d="M0,0 L14,5 L0,10 L0,0" fill="#000000" stroke="#000000" stroke-width="1"></path></marker><linearGradient id="SvgjsLinearGradient1132" x1="0.5" y1="0" x2="0.5" y2="1"><stop id="SvgjsStop1133" stop-opacity="0.5" stop-color="#d1d1d1" offset="0"></stop><stop id="SvgjsStop1134" stop-opacity="0.5" stop-color="#959595" offset="1"></stop></linearGradient><linearGradient id="SvgjsLinearGradient1139" x1="0.5" y1="0" x2="0.5" y2="1"><stop id="SvgjsStop1140" stop-opacity="0.5" stop-color="#d1d1d1" offset="0"></stop><stop id="SvgjsStop1141" stop-opacity="0.5" stop-color="#959595" offset="1"></stop></linearGradient><linearGradient id="SvgjsLinearGradient1146" x1="0.5" y1="0" x2="0.5" y2="1"><stop id="SvgjsStop1147" stop-opacity="0.5" stop-color="#d1d1d1" offset="0"></stop><stop id="SvgjsStop1148" stop-opacity="0.5" stop-color="#959595" offset="1"></stop></linearGradient><linearGradient id="SvgjsLinearGradient1157" x1="0.5" y1="0" x2="0.5" y2="1"><stop id="SvgjsStop1158" stop-opacity="0.5" stop-color="#d1d1d1" offset="0"></stop><stop id="SvgjsStop1159" stop-opacity="0.5" stop-color="#959595" offset="1"></stop></linearGradient><linearGradient id="SvgjsLinearGradient1164" x1="0.5" y1="0" x2="0.5" y2="1"><stop id="SvgjsStop1165" stop-opacity="0.5" stop-color="#d1d1d1" offset="0"></stop><stop id="SvgjsStop1166" stop-opacity="0.5" stop-color="#959595" offset="1"></stop></linearGradient><linearGradient id="SvgjsLinearGradient1171" x1="0.5" y1="0" x2="0.5" y2="1"><stop id="SvgjsStop1172" stop-opacity="0.5" stop-color="#d1d1d1" offset="0"></stop><stop id="SvgjsStop1173" stop-opacity="0.5" stop-color="#959595" offset="1"></stop></linearGradient></defs><g id="SvgjsG1008" transform="translate(832.4999999999998,144.578125)"><path id="SvgjsPath1009" d="M 0 4Q 0 0 4 0L 127 0Q 131 0 131 4L 131 45Q 131 49 127 49L 4 49Q 0 49 0 45Z" stroke="rgba(50,50,50,1)" stroke-width="2" fill-opacity="1" fill="#ffffff"></path><g id="SvgjsG1010"><text id="SvgjsText1011" font-family="微软雅黑" text-anchor="middle" font-size="13px" width="111px" fill="#323232" font-weight="400" align="middle" lineHeight="125%" anchor="middle" family="微软雅黑" size="13px" weight="400" font-style="" opacity="1" y="13.875" transform="rotate(0)"><tspan id="SvgjsTspan1012" dy="16" x="65.5"><tspan id="SvgjsTspan1013" style="text-decoration:;">prefetch worker 1</tspan></tspan></text></g></g><g id="SvgjsG1014" transform="translate(832.4999999999998,210.078125)"><path id="SvgjsPath1015" d="M 0 4Q 0 0 4 0L 127 0Q 131 0 131 4L 131 45Q 131 49 127 49L 4 49Q 0 49 0 45Z" stroke="rgba(50,50,50,1)" stroke-width="2" fill-opacity="1" fill="#ffffff"></path><g id="SvgjsG1016"><text id="SvgjsText1017" font-family="微软雅黑" text-anchor="middle" font-size="13px" width="111px" fill="#323232" font-weight="400" align="middle" lineHeight="125%" anchor="middle" family="微软雅黑" size="13px" weight="400" font-style="" opacity="1" y="13.875" transform="rotate(0)"><tspan id="SvgjsTspan1018" dy="16" x="65.5"><tspan id="SvgjsTspan1019" style="text-decoration:;">prefetch worker 2</tspan></tspan></text></g></g><g id="SvgjsG1020" transform="translate(832.4999999999998,332.078125)"><path id="SvgjsPath1021" d="M 0 4Q 0 0 4 0L 127 0Q 131 0 131 4L 131 45Q 131 49 127 49L 4 49Q 0 49 0 45Z" stroke="rgba(50,50,50,1)" stroke-width="2" fill-opacity="1" fill="#ffffff"></path><g id="SvgjsG1022"><text id="SvgjsText1023" font-family="微软雅黑" text-anchor="middle" font-size="13px" width="111px" fill="#323232" font-weight="400" align="middle" lineHeight="125%" anchor="middle" family="微软雅黑" size="13px" weight="400" font-style="" opacity="1" y="13.875" transform="rotate(0)"><tspan id="SvgjsTspan1024" dy="16" x="65.5"><tspan id="SvgjsTspan1025" style="text-decoration:;">prefetch worker n</tspan></tspan></text></g></g><g id="SvgjsG1026" transform="translate(837.9999999999998,373.578125)"><path id="SvgjsPath1027" d="M 0 0L 120 0L 120 40L 0 40Z" stroke="none" fill="none"></path><g id="SvgjsG1028"><text id="SvgjsText1029" font-family="微软雅黑" text-anchor="middle" font-size="13px" width="120px" fill="#323232" font-weight="400" align="middle" lineHeight="125%" anchor="middle" family="微软雅黑" size="13px" weight="400" font-style="" opacity="1" y="9.375" transform="rotate(0)"><tspan id="SvgjsTspan1030" dy="16" x="60"><tspan id="SvgjsTspan1031" style="text-decoration:;">n = threads_count</tspan></tspan></text></g></g><g id="SvgjsG1032" transform="translate(837.9999999999998,275.578125)"><path id="SvgjsPath1033" d="M 0 0L 120 0L 120 40L 0 40Z" stroke="none" fill="none"></path><g id="SvgjsG1034"><text id="SvgjsText1035" font-family="微软雅黑" text-anchor="middle" font-size="13px" width="120px" fill="#323232" font-weight="400" align="middle" lineHeight="125%" anchor="middle" family="微软雅黑" size="13px" weight="400" font-style="" opacity="1" y="-7.125" transform="rotate(0)"><tspan id="SvgjsTspan1036" dy="16" x="60"><tspan id="SvgjsTspan1037" style="text-decoration:;">.</tspan></tspan><tspan id="SvgjsTspan1038" dy="16" x="60"><tspan id="SvgjsTspan1039" style="text-decoration:;">.</tspan></tspan><tspan id="SvgjsTspan1040" dy="16" x="60"><tspan id="SvgjsTspan1041" style="text-decoration:;">.</tspan></tspan></text></g></g><g id="SvgjsG1042" transform="translate(749.4999999999998,172.328125)"><path id="SvgjsPath1043" d="M 81 0Q 72.9 0 72.9 9L 72.9 80Q 72.9 89 59 89Q 72.9 89 72.9 98L 72.9 169Q 72.9 178 81 178" stroke="rgba(50,50,50,1)" stroke-width="2" fill="none"></path><path id="SvgjsPath1044" d="M 0 0L 81 0L 81 178L 0 178Z" stroke="none" fill="none"></path><g id="SvgjsG1045"><text id="SvgjsText1046" font-family="微软雅黑" text-anchor="end" font-size="13px" width="54px" fill="#323232" font-weight="400" align="middle" lineHeight="125%" anchor="end" family="微软雅黑" size="13px" weight="400" font-style="" opacity="1" y="78.375" transform="rotate(0)"></text></g></g><g id="SvgjsG1047" transform="translate(25,189.328125)"><path id="SvgjsPath1048" d="M 0 0L 146.125 0L 146.125 91.5L 0 91.5Z" stroke="rgba(50,50,50,1)" stroke-width="2" fill-opacity="1" fill="#ffffff"></path><g id="SvgjsG1049"><text id="SvgjsText1050" font-family="微软雅黑" text-anchor="middle" font-size="13px" width="127px" fill="#323232" font-weight="400" align="middle" lineHeight="125%" anchor="middle" family="微软雅黑" size="13px" weight="400" font-style="" opacity="1" y="35.125" transform="rotate(0)"></text></g></g><g id="SvgjsG1051" transform="translate(25,241.828125)"><path id="SvgjsPath1052" d="M 0 4Q 0 0 4 0L 116 0Q 120 0 120 4L 120 35Q 120 39 116 39L 4 39Q 0 39 0 35Z" stroke="rgba(50,50,50,1)" stroke-width="2" fill-opacity="1" fill="#ffffff"></path><g id="SvgjsG1053"><text id="SvgjsText1054" font-family="微软雅黑" text-anchor="middle" font-size="13px" width="100px" fill="#323232" font-weight="400" align="middle" lineHeight="125%" anchor="middle" family="微软雅黑" size="13px" weight="400" font-style="" opacity="1" y="8.875" transform="rotate(0)"><tspan id="SvgjsTspan1055" dy="16" x="60"><tspan id="SvgjsTspan1056" style="text-decoration:;">prefetch file list</tspan></tspan></text></g></g><g id="SvgjsG1057" transform="translate(25,188.328125)"><path id="SvgjsPath1058" d="M 0 0L 120 0L 120 40L 0 40Z" stroke="none" fill="none"></path><g id="SvgjsG1059"><text id="SvgjsText1060" font-family="微软雅黑" text-anchor="middle" font-size="13px" width="120px" fill="#323232" font-weight="400" align="middle" lineHeight="125%" anchor="middle" family="微软雅黑" size="13px" weight="400" font-style="" opacity="1" y="9.375" transform="rotate(0)"><tspan id="SvgjsTspan1061" dy="16" x="60"><tspan id="SvgjsTspan1062" style="text-decoration:;">bootstrap</tspan></tspan></text></g></g><g id="SvgjsG1063" transform="translate(200.5,241.828125)"><path id="SvgjsPath1064" d="M 0 4Q 0 0 4 0L 103 0Q 107 0 107 4L 107 35Q 107 39 103 39L 4 39Q 0 39 0 35Z" stroke="rgba(50,50,50,1)" stroke-width="2" fill-opacity="1" fill="#ffffff"></path><g id="SvgjsG1065"><text id="SvgjsText1066" font-family="微软雅黑" text-anchor="middle" font-size="13px" width="87px" fill="#323232" font-weight="400" align="middle" lineHeight="125%" anchor="middle" family="微软雅黑" size="13px" weight="400" font-style="" opacity="1" y="8.875" transform="rotate(0)"><tspan id="SvgjsTspan1067" dy="16" x="53.5"><tspan id="SvgjsTspan1068" style="text-decoration:;">inode list</tspan></tspan></text></g></g><g id="SvgjsG1069" transform="translate(351.5,241.828125)"><path id="SvgjsPath1070" d="M 0 4Q 0 0 4 0L 103 0Q 107 0 107 4L 107 35Q 107 39 103 39L 4 39Q 0 39 0 35Z" stroke="rgba(50,50,50,1)" stroke-width="2" fill-opacity="1" fill="#ffffff"></path><g id="SvgjsG1071"><text id="SvgjsText1072" font-family="微软雅黑" text-anchor="middle" font-size="13px" width="87px" fill="#323232" font-weight="400" align="middle" lineHeight="125%" anchor="middle" family="微软雅黑" size="13px" weight="400" font-style="" opacity="1" y="8.875" transform="rotate(0)"><tspan id="SvgjsTspan1073" dy="16" x="53.5"><tspan id="SvgjsTspan1074" style="text-decoration:;">chunk list</tspan></tspan></text></g></g><g id="SvgjsG1075"><path id="SvgjsPath1076" d="M308.5 261.328125L329.5 261.328125L329.5 261.328125L347.9 261.328125" stroke="#323232" stroke-width="2" fill="none" marker-end="url(#SvgjsMarker1077)"></path></g><g id="SvgjsG1079"><path id="SvgjsPath1080" d="M146 261.328125L172.75 261.328125L172.75 261.328125L196.9 261.328125" stroke="#323232" stroke-width="2" fill="none" marker-end="url(#SvgjsMarker1081)"></path></g><g id="SvgjsG1083" transform="translate(658.4999999999998,241.828125)"><path id="SvgjsPath1084" d="M 0 4Q 0 0 4 0L 103 0Q 107 0 107 4L 107 35Q 107 39 103 39L 4 39Q 0 39 0 35Z" stroke="rgba(50,50,50,1)" stroke-width="2" fill-opacity="1" fill="#ffffff"></path><g id="SvgjsG1085"><text id="SvgjsText1086" font-family="微软雅黑" text-anchor="middle" font-size="13px" width="87px" fill="#323232" font-weight="400" align="middle" lineHeight="125%" anchor="middle" family="微软雅黑" size="13px" weight="400" font-style="" opacity="1" y="8.875" transform="rotate(0)"><tspan id="SvgjsTspan1087" dy="16" x="53.5"><tspan id="SvgjsTspan1088" style="text-decoration:;">BIO Vector</tspan></tspan></text></g></g><g id="SvgjsG1089"><path id="SvgjsPath1090" d="M459.5 261.328125L558.4999999999999 261.328125L558.4999999999999 261.328125L654.8999999999997 261.328125" stroke="#323232" stroke-width="2" fill="none" marker-end="url(#SvgjsMarker1091)"></path><rect id="SvgjsRect1093" width="141" height="16" x="477" y="239.578125" fill="#ffffff"></rect><text id="SvgjsText1094" font-family="微软雅黑" text-anchor="middle" font-size="13px" width="141px" fill="#323232" font-weight="400" align="top" lineHeight="16px" anchor="middle" family="微软雅黑" size="13px" weight="400" font-style="" opacity="1" y="236.953125" transform="rotate(0)"><tspan id="SvgjsTspan1095" dy="16" x="547.5"><tspan id="SvgjsTspan1096" style="text-decoration:;">Merge adjacent chunks</tspan></tspan></text></g><g id="SvgjsG1097"><path id="SvgjsPath1098" d="M766.4999999999998 261.328125L784.9999999999998 261.328125L784.9999999999998 261.328125L804.4999999999998 261.328125" stroke="#323232" stroke-width="2" fill="none" marker-end="url(#SvgjsMarker1099)"></path></g><g id="SvgjsG1101" transform="translate(25,49.006696428571445)"><path id="SvgjsPath1102" d="M 0 0L 620 0L 620 50L 0 50Z" stroke="rgba(50,50,50,1)" stroke-width="2" fill-opacity="1" fill="#ffffff"></path><g id="SvgjsG1103"><text id="SvgjsText1104" font-family="微软雅黑" text-anchor="middle" font-size="13px" width="600px" fill="#323232" font-weight="400" align="middle" lineHeight="125%" anchor="middle" family="微软雅黑" size="13px" weight="400" font-style="" opacity="1" y="14.375" transform="rotate(0)"></text></g></g><g id="SvgjsG1105" transform="translate(25,25.006696428571445)"><path id="SvgjsPath1106" d="M 0 0L 100.5 0L 100.5 20L 0 20Z" stroke="none" fill="none"></path><g id="SvgjsG1107"><text id="SvgjsText1108" font-family="微软雅黑" text-anchor="middle" font-size="13px" width="101px" fill="#323232" font-weight="400" align="middle" lineHeight="125%" anchor="middle" family="微软雅黑" size="13px" weight="400" font-style="" opacity="1" y="-0.625" transform="rotate(0)"><tspan id="SvgjsTspan1109" dy="16" x="50.5"><tspan id="SvgjsTspan1110" style="text-decoration:;">Blob Cache files</tspan></tspan></text></g></g><g id="SvgjsG1111" transform="translate(1095.9298245614034,209.8281250000001)"><path id="SvgjsPath1112" d="M 19.8 72.1C -16.5 51.5 6.6000000000000005 36.05 14.85 30.9C 11.55 5.15 52.800000000000004 0 69.3 10.3C 82.5 -5.15 123.75 0 123.75 15.45C 156.75 10.3 169.95000000000002 30.9 156.75 56.650000000000006C 168.3 77.25 156.75 103 118.8 92.7C 110.55000000000001 106.09 77.55 106.09 69.3 92.7C 52.800000000000004 103 19.8 97.85 19.8 72.1Z" stroke="rgba(50,50,50,1)" stroke-width="2" fill-opacity="1" fill="#ffffff"></path><g id="SvgjsG1113"><text id="SvgjsText1114" font-family="微软雅黑" text-anchor="middle" font-size="13px" width="145px" fill="#323232" font-weight="400" align="middle" lineHeight="125%" anchor="middle" family="微软雅黑" size="13px" weight="400" font-style="" opacity="1" y="40.875" transform="rotate(0)"><tspan id="SvgjsTspan1115" dy="16" x="82.5"><tspan id="SvgjsTspan1116" style="text-decoration:;">Storage Backend</tspan></tspan></text></g></g><g id="SvgjsG1117" transform="translate(963.4999999999998,172.328125)"><path id="SvgjsPath1118" d="M 0 178Q 9 178 9 169L 9 98Q 9 89 22 89Q 9 89 9 80L 9 9Q 9 0 0 0" stroke="rgba(50,50,50,1)" stroke-width="2" fill="none"></path><path id="SvgjsPath1119" d="M 0 0L 102 0L 102 178L 0 178Z" stroke="none" fill="none"></path><g id="SvgjsG1120"><text id="SvgjsText1121" font-family="微软雅黑" text-anchor="start" font-size="13px" width="75px" fill="#323232" font-weight="400" align="middle" lineHeight="125%" anchor="start" family="微软雅黑" size="13px" weight="400" font-style="" opacity="1" y="78.375" transform="rotate(0)"></text></g></g><g id="SvgjsG1122"><path id="SvgjsPath1123" d="M1094.9298245614034 261.3281250000001L987.375 261.3281250000001" stroke-dasharray="8,5" stroke="#000000" stroke-width="2" fill="none" marker-end="url(#SvgjsMarker1124)"></path></g><g id="SvgjsG1126"><path id="SvgjsPath1127" d="M897.9999999999998 143.578125L897.9999999999998 74.00669642857144L421.41249999999974 74.00669642857144" stroke-dasharray="8,5" stroke="#000000" stroke-width="2" fill="none" marker-end="url(#SvgjsMarker1128)"></path></g><g id="SvgjsG1130" transform="translate(210.875,49.006696428571445)"><path id="SvgjsPath1131" d="M 0 0L 27.625 0L 27.625 50L 0 50Z" stroke="none" fill="url(#SvgjsLinearGradient1132)"></path><g id="SvgjsG1135"><text id="SvgjsText1136" font-family="微软雅黑" text-anchor="middle" font-size="13px" width="8px" fill="#323232" font-weight="400" align="middle" lineHeight="125%" anchor="middle" family="微软雅黑" size="13px" weight="400" font-style="" opacity="0.5" y="14.375" transform="rotate(0)"></text></g></g><g id="SvgjsG1137" transform="translate(287.375,49.006696428571445)"><path id="SvgjsPath1138" d="M 0 0L 27.625 0L 27.625 50L 0 50Z" stroke="none" fill="url(#SvgjsLinearGradient1139)"></path><g id="SvgjsG1142"><text id="SvgjsText1143" font-family="微软雅黑" text-anchor="middle" font-size="13px" width="8px" fill="#323232" font-weight="400" align="middle" lineHeight="125%" anchor="middle" family="微软雅黑" size="13px" weight="400" font-style="" opacity="0.5" y="14.375" transform="rotate(0)"></text></g></g><g id="SvgjsG1144" transform="translate(391.1874999999997,49.006696428571445)"><path id="SvgjsPath1145" d="M 0 0L 27.625 0L 27.625 50L 0 50Z" stroke="none" fill="url(#SvgjsLinearGradient1146)"></path><g id="SvgjsG1149"><text id="SvgjsText1150" font-family="微软雅黑" text-anchor="middle" font-size="13px" width="8px" fill="#323232" font-weight="400" align="middle" lineHeight="125%" anchor="middle" family="微软雅黑" size="13px" weight="400" font-style="" opacity="0.5" y="14.375" transform="rotate(0)"></text></g></g><g id="SvgjsG1151" transform="translate(25,105.328125)"><path id="SvgjsPath1152" d="M 0 0L 620 0L 620 50L 0 50Z" stroke="rgba(50,50,50,1)" stroke-width="2" fill-opacity="1" fill="#ffffff"></path><g id="SvgjsG1153"><text id="SvgjsText1154" font-family="微软雅黑" text-anchor="middle" font-size="13px" width="600px" fill="#323232" font-weight="400" align="middle" lineHeight="125%" anchor="middle" family="微软雅黑" size="13px" weight="400" font-style="" opacity="1" y="14.375" transform="rotate(0)"></text></g></g><g id="SvgjsG1155" transform="translate(97.875,105.328125)"><path id="SvgjsPath1156" d="M 0 0L 27.625 0L 27.625 50L 0 50Z" stroke="none" fill="url(#SvgjsLinearGradient1157)"></path><g id="SvgjsG1160"><text id="SvgjsText1161" font-family="微软雅黑" text-anchor="middle" font-size="13px" width="8px" fill="#323232" font-weight="400" align="middle" lineHeight="125%" anchor="middle" family="微软雅黑" size="13px" weight="400" font-style="" opacity="0.5" y="14.375" transform="rotate(0)"></text></g></g><g id="SvgjsG1162" transform="translate(452.375,105.328125)"><path id="SvgjsPath1163" d="M 0 0L 27.625 0L 27.625 50L 0 50Z" stroke="none" fill="url(#SvgjsLinearGradient1164)"></path><g id="SvgjsG1167"><text id="SvgjsText1168" font-family="微软雅黑" text-anchor="middle" font-size="13px" width="8px" fill="#323232" font-weight="400" align="middle" lineHeight="125%" anchor="middle" family="微软雅黑" size="13px" weight="400" font-style="" opacity="0.5" y="14.375" transform="rotate(0)"></text></g></g><g id="SvgjsG1169" transform="translate(481.1874999999997,105.328125)"><path id="SvgjsPath1170" d="M 0 0L 27.625 0L 27.625 50L 0 50Z" stroke="none" fill="url(#SvgjsLinearGradient1171)"></path><g id="SvgjsG1174"><text id="SvgjsText1175" font-family="微软雅黑" text-anchor="middle" font-size="13px" width="8px" fill="#323232" font-weight="400" align="middle" lineHeight="125%" anchor="middle" family="微软雅黑" size="13px" weight="400" font-style="" opacity="0.5" y="14.375" transform="rotate(0)"></text></g></g></svg>