<svg xmlns="http://www.w3.org/2000/svg" width="71.032" height="148.355" viewBox="0 0 71.032 148.355"><g transform="translate(-677.471 -1908.645)"><g transform="translate(-2 236)"><path d="M1530.925,880.465h-3v-3h3Zm-6,0h-3v-3h3Zm-6,0h-3v-3h3Zm-6,0h-3v-3h3Zm-6,0h-3v-3h3Zm-6,0h-3v-3h3Zm-6,0h-3v-3h3Zm-6,0h-3v-3h3Zm-6,0h-3v-3h3Zm-6,0h-3v-3h3Zm-6,0h-3v-3h3Zm-6,0h-3v-3h3Z" transform="translate(-780.421 936.323)" fill="#a1dcfc"/><path d="M6.243.078A.581.581,0,0,0,5.855,0a.581.581,0,0,0-.388.078c-.155.078-.233.233-.31.31L.116,9.228a.7.7,0,0,0,0,.775c.078.155.155.155.31.233a.7.7,0,0,0,.388.078h9.926a.581.581,0,0,0,.388-.078,1.071,1.071,0,0,0,.31-.233.7.7,0,0,0,0-.775L6.553.388C6.475.31,6.4.155,6.243.078Z" transform="matrix(0.866, 0.5, -0.5, 0.866, 684.628, 1806.29)" fill="#a1dcfc"/></g><g transform="translate(-2 102.355)"><path d="M1530.925,880.465h-3v-3h3Zm-6,0h-3v-3h3Zm-6,0h-3v-3h3Zm-6,0h-3v-3h3Zm-6,0h-3v-3h3Zm-6,0h-3v-3h3Zm-6,0h-3v-3h3Zm-6,0h-3v-3h3Zm-6,0h-3v-3h3Zm-6,0h-3v-3h3Zm-6,0h-3v-3h3Zm-6,0h-3v-3h3Z" transform="translate(-780.421 936.323)" fill="#a1dcfc"/><path d="M6.243.078A.581.581,0,0,0,5.855,0a.581.581,0,0,0-.388.078c-.155.078-.233.233-.31.31L.116,9.228a.7.7,0,0,0,0,.775c.078.155.155.155.31.233a.7.7,0,0,0,.388.078h9.926a.581.581,0,0,0,.388-.078,1.071,1.071,0,0,0,.31-.233.7.7,0,0,0,0-.775L6.553.388C6.475.31,6.4.155,6.243.078Z" transform="matrix(0.866, 0.5, -0.5, 0.866, 684.628, 1806.29)" fill="#a1dcfc"/></g><g transform="translate(-2 170.855)"><path d="M1530.925,880.465h-3v-3h3Zm-6,0h-3v-3h3Zm-6,0h-3v-3h3Zm-6,0h-3v-3h3Zm-6,0h-3v-3h3Zm-6,0h-3v-3h3Zm-6,0h-3v-3h3Zm-6,0h-3v-3h3Zm-6,0h-3v-3h3Zm-6,0h-3v-3h3Zm-6,0h-3v-3h3Zm-6,0h-3v-3h3Z" transform="translate(-780.421 936.323)" fill="#a1dcfc"/><path d="M6.243.078A.581.581,0,0,0,5.855,0a.581.581,0,0,0-.388.078c-.155.078-.233.233-.31.31L.116,9.228a.7.7,0,0,0,0,.775c.078.155.155.155.31.233a.7.7,0,0,0,.388.078h9.926a.581.581,0,0,0,.388-.078,1.071,1.071,0,0,0,.31-.233.7.7,0,0,0,0-.775L6.553.388C6.475.31,6.4.155,6.243.078Z" transform="matrix(0.866, 0.5, -0.5, 0.866, 684.628, 1806.29)" fill="#a1dcfc"/></g></g></svg>